<svg width="368" height="368" viewBox="0 0 368 368" fill="none" xmlns="http://www.w3.org/2000/svg">
<g clip-path="url(#clip0_3236_8368)">
<path d="M219.2 67.8867L174.01 93.9767C171.59 95.3667 169.63 93.8867 169.63 90.6567V51.4567C169.63 48.2267 171.63 44.4567 174.01 43.0767L219.2 16.9967C221.62 15.5967 223.58 17.0767 223.58 20.3067V59.5167C223.56 62.7567 221.62 66.4867 219.2 67.8867Z" fill="#FAFAFA"/>
<path d="M172.27 94.9771C171.793 94.9813 171.323 94.8569 170.91 94.6171C169.79 93.9771 169.15 92.5371 169.15 90.6171V51.457C169.15 48.077 171.23 44.137 173.77 42.667L218.96 16.577C219.443 16.2393 220.01 16.0394 220.598 15.9989C221.187 15.9584 221.775 16.0787 222.3 16.347C223.42 16.997 224.06 18.437 224.06 20.347V59.557C224.06 62.927 221.99 66.877 219.44 68.347L174.26 94.3871C173.66 94.7554 172.974 94.9589 172.27 94.9771ZM220.94 16.977C220.408 16.9946 219.89 17.1534 219.44 17.437L174.26 43.497C171.97 44.817 170.11 48.387 170.11 51.497V90.6971C170.11 92.2171 170.58 93.3571 171.39 93.8271C171.771 94.0052 172.193 94.0778 172.611 94.0374C173.03 93.9969 173.43 93.8449 173.77 93.597L218.96 67.507C221.24 66.187 223.1 62.627 223.1 59.557V20.307C223.1 18.787 222.63 17.647 221.82 17.177C221.551 17.0272 221.248 16.9513 220.94 16.957V16.977Z" fill="#E0E0E0"/>
<path d="M209.29 38.5068L200.07 71.6668L218.51 61.0168L209.29 38.5068Z" fill="#FF9800"/>
<path opacity="0.3" d="M209.29 38.5068L200.07 71.6668L218.51 61.0168L209.29 38.5068Z" fill="white"/>
<path d="M196.61 36.2266L187.38 78.9866L205.83 68.3366L196.61 36.2266Z" fill="#FF9800"/>
<path d="M184.03 58.3467L174.81 86.2467L193.25 75.6067L184.03 58.3467Z" fill="#FF9800"/>
<path opacity="0.3" d="M184.03 58.3467L174.81 86.2467L193.25 75.6067L184.03 58.3467Z" fill="black"/>
<path d="M176.56 49.3971L175.11 50.2372C174.94 50.3272 174.81 50.2371 174.81 50.0071V47.6371C174.812 47.5252 174.84 47.4152 174.892 47.3162C174.944 47.2171 175.019 47.1318 175.11 47.0671L176.56 46.2271C176.73 46.1271 176.86 46.2271 176.86 46.4571V48.8171C176.858 48.9305 176.831 49.0419 176.779 49.1426C176.726 49.2432 176.652 49.3304 176.56 49.3971Z" fill="#FF9800"/>
<path opacity="0.3" d="M176.56 49.3971L175.11 50.2372C174.94 50.3272 174.81 50.2371 174.81 50.0071V47.6371C174.812 47.5252 174.84 47.4152 174.892 47.3162C174.944 47.2171 175.019 47.1318 175.11 47.0671L176.56 46.2271C176.73 46.1271 176.86 46.2271 176.86 46.4571V48.8171C176.858 48.9305 176.831 49.0419 176.779 49.1426C176.726 49.2432 176.652 49.3304 176.56 49.3971Z" fill="black"/>
<path d="M176.56 53.9571L175.11 54.7971C174.94 54.8971 174.81 54.7971 174.81 54.5671V52.2071C174.812 52.0937 174.84 51.9823 174.892 51.8816C174.944 51.781 175.018 51.6938 175.11 51.6271L176.56 50.7571C176.73 50.6671 176.86 50.7571 176.86 50.9871V53.3571C176.863 53.474 176.838 53.59 176.785 53.6947C176.733 53.7994 176.656 53.8895 176.56 53.9571Z" fill="#FF9800"/>
<path d="M176.56 58.5175L175.11 59.3575C174.94 59.4575 174.81 59.3574 174.81 59.1374V56.7575C174.81 56.6452 174.837 56.5346 174.889 56.4353C174.942 56.336 175.017 56.2509 175.11 56.1875L176.56 55.3474C176.73 55.2474 176.86 55.3474 176.86 55.5674V57.9375C176.862 58.0514 176.835 58.164 176.783 58.2652C176.731 58.3664 176.654 58.4531 176.56 58.5175Z" fill="#FF9800"/>
<path opacity="0.3" d="M176.56 58.5175L175.11 59.3575C174.94 59.4575 174.81 59.3574 174.81 59.1374V56.7575C174.81 56.6452 174.837 56.5346 174.889 56.4353C174.942 56.336 175.017 56.2509 175.11 56.1875L176.56 55.3474C176.73 55.2474 176.86 55.3474 176.86 55.5674V57.9375C176.862 58.0514 176.835 58.164 176.783 58.2652C176.731 58.3664 176.654 58.4531 176.56 58.5175Z" fill="white"/>
<path d="M97.99 199.527C98.0754 199.487 98.1499 199.427 98.2074 199.352C98.2648 199.277 98.3034 199.19 98.32 199.097C98.5242 198.283 98.6845 197.458 98.8 196.627C98.9166 195.842 98.9867 195.05 99.01 194.257C99.01 194.057 98.9101 193.947 98.7701 193.997L97.1301 194.497C97.1147 193.391 96.9395 192.293 96.61 191.237L98.01 189.237C98.0689 189.16 98.1095 189.07 98.1285 188.975C98.1476 188.879 98.1447 188.781 98.12 188.687C97.7121 187.653 97.0683 186.728 96.24 185.987C96.14 185.907 95.98 185.987 95.86 186.157L94.47 188.157C93.802 187.704 93.0171 187.454 92.21 187.437L92.55 185.057C92.55 184.847 92.5 184.707 92.37 184.707C91.8129 184.751 91.2627 184.858 90.73 185.027C90.1428 185.207 89.5736 185.441 89.03 185.727C88.9509 185.785 88.8844 185.858 88.8345 185.942C88.7847 186.026 88.7525 186.12 88.74 186.217L88.4 188.597C87.4194 189.22 86.525 189.97 85.74 190.827L84.82 189.497C84.74 189.387 84.58 189.417 84.45 189.567C83.3677 190.849 82.4163 192.236 81.61 193.707C81.5671 193.789 81.5447 193.88 81.5447 193.972C81.5447 194.064 81.5671 194.155 81.61 194.237L82.53 195.557C81.9093 196.802 81.4039 198.1 81.0201 199.437L79.3801 199.937C79.2942 199.978 79.2189 200.038 79.1599 200.112C79.101 200.187 79.06 200.274 79.04 200.367C78.84 201.187 78.68 202.007 78.56 202.837C78.4512 203.626 78.3845 204.421 78.36 205.217C78.36 205.407 78.46 205.517 78.6 205.477L80.24 204.977C80.2544 206.077 80.4296 207.168 80.76 208.217L79.36 210.217C79.3018 210.295 79.2617 210.384 79.2427 210.48C79.2236 210.575 79.2262 210.673 79.25 210.767C79.6533 211.804 80.2978 212.729 81.1301 213.467C81.2301 213.547 81.39 213.467 81.51 213.307L82.9 211.307C83.5672 211.754 84.3472 212.004 85.15 212.027L84.82 214.407C84.82 214.607 84.87 214.757 85 214.747C85.5568 214.707 86.1071 214.603 86.64 214.437C87.2276 214.254 87.7967 214.016 88.34 213.727C88.4209 213.671 88.4887 213.598 88.5388 213.514C88.5889 213.429 88.62 213.335 88.6301 213.237L88.97 210.857C89.9505 210.237 90.8449 209.491 91.6301 208.637L92.55 209.957C92.63 210.077 92.79 210.047 92.92 209.897C94.0025 208.614 94.9507 207.223 95.75 205.747C95.7947 205.666 95.8181 205.575 95.8181 205.482C95.8181 205.389 95.7947 205.298 95.75 205.217L94.83 203.897C95.4491 202.655 95.9545 201.36 96.34 200.027L97.99 199.527ZM89.56 205.607C85.28 208.937 82.34 204.717 84.62 198.497C85.24 196.693 86.3352 195.09 87.79 193.857C92.07 190.517 95.01 194.747 92.73 200.967C92.1101 202.771 91.0149 204.374 89.56 205.607Z" fill="#E6E6E6"/>
<path d="M110.48 200.037C110.512 199.998 110.536 199.953 110.55 199.905C110.563 199.857 110.567 199.806 110.56 199.757C110.525 199.279 110.458 198.805 110.36 198.337C110.268 197.912 110.137 197.497 109.97 197.097C109.97 197.027 109.86 197.027 109.79 197.097L108.68 198.097C108.431 197.585 108.056 197.144 107.59 196.817L108.17 195.167C108.17 195.057 108.17 194.947 108.17 194.917C107.556 194.593 106.861 194.454 106.17 194.517C106.1 194.517 106.02 194.607 105.98 194.717L105.4 196.367C104.766 196.48 104.161 196.718 103.62 197.067L103.33 195.757C103.327 195.74 103.319 195.724 103.308 195.711C103.297 195.698 103.283 195.688 103.267 195.682C103.251 195.676 103.233 195.674 103.217 195.677C103.2 195.679 103.184 195.686 103.17 195.697C102.768 195.982 102.383 196.293 102.02 196.627C101.631 196.991 101.264 197.379 100.92 197.787C100.885 197.826 100.859 197.872 100.843 197.922C100.827 197.972 100.823 198.025 100.83 198.077L101.12 199.387C100.571 200.095 100.092 200.855 99.6901 201.657L98.6901 201.467C98.6301 201.467 98.5401 201.467 98.5001 201.617C97.9931 202.693 97.5977 203.819 97.32 204.977C97.32 205.087 97.3201 205.177 97.3901 205.187L98.3901 205.387C98.2153 206.215 98.1315 207.06 98.1401 207.907L97.04 208.907C96.9995 208.943 96.9676 208.988 96.9468 209.038C96.926 209.088 96.9169 209.142 96.9201 209.197C96.9495 209.675 97.0164 210.149 97.1201 210.617C97.2124 211.041 97.343 211.456 97.51 211.857C97.51 211.927 97.6201 211.927 97.6901 211.857L98.8001 210.857C99.0436 211.372 99.4198 211.814 99.8901 212.137L99.3101 213.797C99.3101 213.897 99.3101 214.007 99.3101 214.037C99.924 214.361 100.619 214.5 101.31 214.437C101.38 214.437 101.46 214.347 101.5 214.237L102.07 212.597C102.706 212.475 103.313 212.234 103.86 211.887L104.15 213.197C104.149 213.216 104.155 213.234 104.165 213.25C104.175 213.266 104.191 213.278 104.208 213.284C104.226 213.291 104.245 213.292 104.264 213.287C104.282 213.282 104.298 213.271 104.31 213.257C104.715 212.974 105.099 212.664 105.46 212.327C105.849 211.966 106.217 211.582 106.56 211.177C106.627 211.092 106.659 210.984 106.65 210.877L106.36 209.577C106.907 208.863 107.386 208.1 107.79 207.297L108.79 207.497C108.85 207.497 108.94 207.437 108.98 207.337C109.481 206.257 109.876 205.132 110.16 203.977C110.16 203.867 110.16 203.777 110.09 203.767L109.09 203.567C109.265 202.738 109.349 201.893 109.34 201.047L110.48 200.037ZM105.48 207.117C103.19 210.297 100.36 209.657 100.55 205.937C100.656 204.463 101.168 203.047 102.03 201.847C104.33 198.677 107.15 199.317 106.97 203.037C106.867 204.51 106.351 205.924 105.48 207.117Z" fill="#E6E6E6"/>
<path d="M113.7 177.837C113.741 177.801 113.773 177.756 113.793 177.705C113.814 177.655 113.823 177.601 113.82 177.547C113.79 177.069 113.723 176.594 113.62 176.127C113.528 175.702 113.397 175.287 113.23 174.887C113.23 174.817 113.12 174.817 113.05 174.887L111.94 175.887C111.691 175.375 111.32 174.932 110.86 174.597L111.43 172.957C111.43 172.847 111.43 172.737 111.43 172.707C110.816 172.383 110.121 172.244 109.43 172.307C109.36 172.307 109.28 172.397 109.24 172.507L108.67 174.147C108.034 174.269 107.427 174.509 106.88 174.857L106.59 173.547C106.587 173.53 106.579 173.514 106.568 173.501C106.557 173.488 106.543 173.478 106.527 173.472C106.511 173.466 106.493 173.464 106.477 173.467C106.46 173.469 106.444 173.476 106.43 173.487C106.028 173.772 105.643 174.083 105.28 174.417C104.893 174.78 104.526 175.164 104.18 175.567C104.146 175.608 104.122 175.656 104.108 175.708C104.094 175.76 104.091 175.814 104.1 175.867L104.39 177.177C103.834 177.883 103.352 178.643 102.95 179.447L101.95 179.247C101.89 179.247 101.81 179.307 101.76 179.407C101.251 180.481 100.849 181.603 100.56 182.757C100.56 182.867 100.56 182.957 100.63 182.967L101.63 183.167C101.455 183.995 101.371 184.84 101.38 185.687L100.28 186.687C100.239 186.723 100.208 186.768 100.187 186.818C100.166 186.868 100.157 186.922 100.16 186.977C100.19 187.455 100.256 187.929 100.36 188.397C100.452 188.821 100.583 189.236 100.75 189.637C100.75 189.707 100.86 189.707 100.93 189.637L102.04 188.637C102.29 189.148 102.665 189.588 103.13 189.917L102.55 191.577C102.55 191.677 102.55 191.787 102.55 191.817C103.164 192.141 103.859 192.28 104.55 192.217C104.62 192.217 104.7 192.127 104.74 192.017L105.32 190.377C105.952 190.25 106.555 190.01 107.1 189.667L107.39 190.977C107.393 190.994 107.401 191.009 107.412 191.022C107.423 191.036 107.437 191.046 107.453 191.052C107.469 191.058 107.487 191.06 107.504 191.057C107.521 191.054 107.537 191.047 107.55 191.037C107.957 190.757 108.341 190.446 108.7 190.107C109.089 189.746 109.457 189.362 109.8 188.957C109.836 188.916 109.862 188.868 109.877 188.816C109.893 188.765 109.897 188.71 109.89 188.657L109.6 187.357C110.147 186.643 110.626 185.88 111.03 185.077L112.03 185.277C112.09 185.277 112.18 185.217 112.23 185.117C112.728 184.037 113.12 182.912 113.4 181.757C113.4 181.647 113.4 181.557 113.33 181.547L112.33 181.347C112.505 180.518 112.589 179.673 112.58 178.827L113.7 177.837ZM108.7 184.917C106.4 188.097 103.58 187.457 103.76 183.737C103.865 182.261 104.381 180.844 105.25 179.647C107.54 176.477 110.37 177.107 110.18 180.837C110.075 182.306 109.566 183.718 108.71 184.917H108.7Z" fill="#E6E6E6"/>
<path d="M224.16 367.176C214.51 367.176 204.87 365.056 197.53 360.816C190.19 356.576 186.35 351.096 186.35 345.156C186.35 339.216 190.35 333.666 197.53 329.506C212.21 321.026 236.1 321.026 250.79 329.506C257.99 333.666 261.96 339.226 261.96 345.156C261.96 351.086 257.96 356.656 250.79 360.816C243.44 365.056 233.8 367.176 224.16 367.176ZM224.16 324.106C214.69 324.106 205.22 326.186 198.01 330.346C191.12 334.346 187.32 339.586 187.32 345.156C187.32 350.726 191.12 355.996 198.01 359.976C212.43 368.296 235.88 368.296 250.3 359.976C257.19 355.976 260.99 350.736 260.99 345.156C260.99 339.576 257.19 334.326 250.3 330.346C243.1 326.186 233.62 324.106 224.16 324.106Z" fill="#FF9800"/>
<path d="M225.15 337.286V343.566L218.95 326.756V320.486L225.15 337.286Z" fill="#263238"/>
<path d="M225.16 337.286V343.566L250.74 334.686V328.416L225.16 337.286Z" fill="#37474F"/>
<path d="M218.95 320.436L225.16 337.286L250.74 328.416C243.72 322.286 231.56 319.226 218.95 320.436Z" fill="#455A64"/>
<path d="M192.23 338.457C192.225 338.52 192.225 338.584 192.23 338.647V338.457Z" fill="#FF9800"/>
<path d="M222.61 345.207L218.81 363.077C203.3 361.567 192.1 353.717 192.23 344.757V338.637C192.23 347.527 203.41 355.287 218.82 356.797L221.43 344.517L222.61 345.207Z" fill="#FF9800"/>
<path opacity="0.4" d="M222.61 345.207L218.81 363.077C203.3 361.567 192.1 353.717 192.23 344.757V338.637C192.23 347.527 203.41 355.287 218.82 356.797L221.43 344.517L222.61 345.207Z" fill="black"/>
<path d="M221.72 357.007V363.287C228.104 363.667 234.502 362.808 240.56 360.757C247.87 358.217 253.03 354.187 255.09 349.417C255.717 348.037 256.057 346.543 256.09 345.027C256.09 344.437 256.09 338.547 256.09 338.547C256.09 338.547 254.32 338.407 252.25 336.197L247.46 337.857L225.56 345.417L221.72 357.007Z" fill="#FF9800"/>
<path opacity="0.6" d="M221.72 357.007V363.287C228.104 363.667 234.502 362.808 240.56 360.757C247.87 358.217 253.03 354.187 255.09 349.417C255.717 348.037 256.057 346.543 256.09 345.027C256.09 344.437 256.09 338.547 256.09 338.547C256.09 338.547 254.32 338.407 252.25 336.197L247.46 337.857L225.56 345.417L221.72 357.007Z" fill="white"/>
<path d="M202.63 331.276L221.69 342.276V336.006L202.63 325.006V331.276Z" fill="#FF9800"/>
<path opacity="0.1" d="M202.63 331.276L221.69 342.276V336.006L202.63 325.006V331.276Z" fill="black"/>
<path d="M192.46 336.377C190.37 346.187 202.1 355.167 218.81 356.807L222.61 338.937L200.56 326.207C195.95 329.087 193.3 332.427 192.46 336.377Z" fill="#FF9800"/>
<path opacity="0.3" d="M192.46 336.377C190.37 346.187 202.1 355.167 218.81 356.807L222.61 338.937L200.56 326.207C195.95 329.087 193.3 332.427 192.46 336.377Z" fill="black"/>
<path d="M221.83 356.487L221.72 357.007C228.108 357.376 234.506 356.5 240.56 354.427C247.87 351.887 253.03 347.867 255.09 343.087C257.04 338.587 256.01 333.927 252.21 329.867L247.42 331.527L225.56 339.137L221.83 356.487Z" fill="#FF9800"/>
<path opacity="0.75" d="M221.83 356.487L221.72 357.007C228.108 357.376 234.506 356.5 240.56 354.427C247.87 351.887 253.03 347.867 255.09 343.087C257.04 338.587 256.01 333.927 252.21 329.867L247.42 331.527L225.56 339.137L221.83 356.487Z" fill="white"/>
<path d="M202.63 325.006L221.69 336.006L216.08 320.756C211.376 321.345 206.818 322.785 202.63 325.006Z" fill="#FF9800"/>
<path d="M222.61 345.206V338.936L218.81 356.806V363.076L222.61 345.206Z" fill="#FF9800"/>
<path opacity="0.55" d="M222.61 345.206V338.936L218.81 356.806V363.076L222.61 345.206Z" fill="black"/>
<path d="M246.92 311.016L242.77 313.416L246.92 315.816L251.07 313.416L246.92 311.016Z" fill="#FF9800"/>
<path opacity="0.3" d="M246.92 311.016L242.77 313.416L246.92 315.816L251.07 313.416L246.92 311.016Z" fill="black"/>
<path d="M251.07 313.416V315.816L246.92 318.216V315.816L251.07 313.416Z" fill="#FF9800"/>
<path opacity="0.4" d="M251.07 313.416V315.816L246.92 318.216V315.816L251.07 313.416Z" fill="black"/>
<path d="M246.92 315.816V318.216L242.77 315.816V313.416L246.92 315.816Z" fill="#FF9800"/>
<path opacity="0.55" d="M246.92 315.816V318.216L242.77 315.816V313.416L246.92 315.816Z" fill="black"/>
<path d="M253.26 309.156L268.64 300.276C269.135 300.016 269.684 299.874 270.243 299.864C270.802 299.853 271.356 299.974 271.86 300.216C272.72 300.716 272.68 301.546 271.76 302.076L256.38 310.956C255.886 311.22 255.337 311.362 254.777 311.373C254.218 311.383 253.663 311.261 253.16 311.016C252.29 310.526 252.34 309.686 253.26 309.156Z" fill="#E0E0E0"/>
<path d="M256.27 316.426L252.12 318.816L256.27 321.216L260.43 318.816L256.27 316.426Z" fill="#FF9800"/>
<path opacity="0.88" d="M256.27 316.426L252.12 318.816L256.27 321.216L260.43 318.816L256.27 316.426Z" fill="white"/>
<path d="M260.43 318.816V321.216L256.27 323.616V321.216L260.43 318.816Z" fill="#FF9800"/>
<path opacity="0.75" d="M260.43 318.816V321.216L256.27 323.616V321.216L260.43 318.816Z" fill="white"/>
<path d="M256.27 321.216V323.616L252.12 321.216V318.816L256.27 321.216Z" fill="#FF9800"/>
<path opacity="0.6" d="M256.27 321.216V323.616L252.12 321.216V318.816L256.27 321.216Z" fill="white"/>
<path d="M262.61 314.567L277.99 305.677C278.487 305.416 279.037 305.275 279.598 305.264C280.159 305.254 280.714 305.375 281.22 305.617C282.08 306.117 282.03 306.947 281.11 307.477L265.73 316.367C265.235 316.628 264.686 316.769 264.126 316.778C263.566 316.787 263.013 316.663 262.51 316.417C261.65 315.927 261.69 315.087 262.61 314.567Z" fill="#E0E0E0"/>
<path d="M265.63 321.816L261.48 324.216L265.63 326.616L269.78 324.216L265.63 321.816Z" fill="#FF9800"/>
<path opacity="0.3" d="M265.63 321.816L261.48 324.216L265.63 326.616L269.78 324.216L265.63 321.816Z" fill="white"/>
<path d="M269.78 324.217V326.617L265.63 329.017V326.617L269.78 324.217Z" fill="#FF9800"/>
<path d="M265.63 326.617V329.017L261.48 326.617V324.217L265.63 326.617Z" fill="#FF9800"/>
<path opacity="0.1" d="M265.63 326.617V329.017L261.48 326.617V324.217L265.63 326.617Z" fill="black"/>
<path d="M271.97 319.967L287.35 311.077C287.845 310.816 288.394 310.675 288.953 310.665C289.512 310.654 290.066 310.775 290.57 311.017C291.43 311.517 291.38 312.347 290.47 312.877L275.08 321.757C274.585 322.019 274.036 322.16 273.476 322.168C272.916 322.177 272.363 322.053 271.86 321.807C271 321.327 271.05 320.497 271.97 319.967Z" fill="#E0E0E0"/>
<path d="M274.98 327.217L270.83 329.617L274.98 332.017L279.13 329.617L274.98 327.217Z" fill="#455A64"/>
<path d="M279.13 329.617V332.017L274.98 334.417V332.017L279.13 329.617Z" fill="#37474F"/>
<path d="M274.98 332.017V334.417L270.83 332.017V329.617L274.98 332.017Z" fill="#263238"/>
<path d="M281.32 325.366L296.7 316.476C297.195 316.214 297.745 316.074 298.304 316.065C298.864 316.056 299.417 316.18 299.92 316.426C300.78 316.916 300.74 317.746 299.82 318.276L284.44 327.166C283.945 327.427 283.396 327.568 282.837 327.579C282.278 327.589 281.724 327.468 281.22 327.226C280.36 326.756 280.4 325.896 281.32 325.366Z" fill="#E0E0E0"/>
<g opacity="0.3">
<path d="M207.17 299.668C207.089 299.668 207.01 299.647 206.94 299.608L177.32 282.508C177.251 282.466 177.194 282.407 177.154 282.337C177.114 282.267 177.092 282.188 177.09 282.108C177.091 282.028 177.112 281.95 177.152 281.882C177.193 281.813 177.251 281.757 177.32 281.718L214.32 260.338C214.389 260.298 214.466 260.277 214.545 260.277C214.624 260.277 214.702 260.298 214.77 260.338L244.4 277.438C244.469 277.479 244.526 277.537 244.565 277.608C244.603 277.678 244.622 277.757 244.62 277.838C244.622 277.916 244.602 277.994 244.563 278.063C244.525 278.131 244.468 278.188 244.4 278.228L207.4 299.608C207.33 299.647 207.251 299.668 207.17 299.668ZM178.46 282.108L207.17 298.688L243.29 277.838L214.56 261.258L178.46 282.108Z" fill="#FF9800"/>
</g>
<path d="M207.17 294.937V162.507L184.95 149.677V282.107L207.17 294.937Z" fill="#FF9800"/>
<path opacity="0.2" d="M207.17 294.937V162.507L184.95 149.677V282.107L207.17 294.937Z" fill="black"/>
<path d="M207.17 294.937L236.79 277.837L236.8 145.407L207.17 162.507V294.937Z" fill="#FF9800"/>
<path d="M236.8 145.407L214.58 132.577L184.95 149.677L207.17 162.507L236.8 145.407Z" fill="#FF9800"/>
<path opacity="0.25" d="M236.8 145.407L214.58 132.577L184.95 149.677L207.17 162.507L236.8 145.407Z" fill="white"/>
<path opacity="0.3" d="M236.8 145.407L206.87 161.907L197.15 156.477L184.95 149.677L196.95 156.857L206.78 162.717C206.54 166.057 206.48 281.387 206.52 284.717C206.546 288.134 206.766 291.546 207.18 294.937C207.591 291.546 207.808 288.133 207.83 284.717C207.83 281.487 207.83 166.267 207.59 163.037L236.8 145.407Z" fill="white"/>
<g opacity="0.3">
<path d="M151.62 331.757C151.54 331.757 151.461 331.736 151.39 331.697L121.77 314.597C121.701 314.555 121.644 314.497 121.604 314.427C121.564 314.357 121.542 314.278 121.54 314.197C121.54 314.118 121.562 314.04 121.602 313.971C121.643 313.903 121.701 313.846 121.77 313.807L158.77 292.427C158.84 292.388 158.919 292.367 159 292.367C159.081 292.367 159.16 292.388 159.23 292.427L188.85 309.527C188.921 309.566 188.98 309.623 189.021 309.693C189.063 309.762 189.084 309.842 189.084 309.922C189.084 310.003 189.063 310.082 189.021 310.152C188.98 310.221 188.921 310.279 188.85 310.317L151.85 331.697C151.78 331.737 151.701 331.758 151.62 331.757ZM122.91 314.197L151.62 330.757L187.74 309.907L159.03 293.327L122.91 314.197Z" fill="#FF9800"/>
</g>
<path d="M151.62 327.007V232.937L129.4 220.107V314.177L151.62 327.007Z" fill="#FF9800"/>
<path opacity="0.1" d="M151.62 327.007V232.937L129.4 220.107V314.177L151.62 327.007Z" fill="white"/>
<path d="M151.62 327.008L181.25 309.898V215.838L151.62 232.938V327.008Z" fill="#FF9800"/>
<path opacity="0.3" d="M151.62 327.008L181.25 309.898V215.838L151.62 232.938V327.008Z" fill="white"/>
<path d="M181.25 215.837L159.03 203.007L129.4 220.107L151.62 232.937L181.25 215.837Z" fill="#FF9800"/>
<path opacity="0.55" d="M181.25 215.837L159.03 203.007L129.4 220.107L151.62 232.937L181.25 215.837Z" fill="white"/>
<path opacity="0.3" d="M152.01 233.478L181.25 215.838L151.32 232.338C148.09 230.508 144.85 228.708 141.61 226.908L129.4 220.108L141.4 227.278C144.68 229.278 147.95 231.218 151.24 233.148C151.14 236.608 151.03 261.848 151 265.308C150.97 268.768 150.95 302.308 151 305.828C151.05 309.348 151.08 312.888 151.19 316.418C151.3 319.948 151.43 323.478 151.65 327.008C151.88 323.478 152.02 319.948 152.11 316.418C152.2 312.888 152.28 309.358 152.3 305.828C152.32 302.298 152.3 268.828 152.3 265.308C152.22 261.958 152.11 236.828 152.01 233.478Z" fill="white"/>
<g opacity="0.3">
<path d="M96.0801 363.806C95.9995 363.807 95.9202 363.786 95.8501 363.746L66.2201 346.646C66.1525 346.604 66.0967 346.545 66.0583 346.475C66.0198 346.405 65.9997 346.326 66.0001 346.246C65.9985 346.168 66.0181 346.09 66.0568 346.021C66.0955 345.953 66.1519 345.896 66.2201 345.856L103.22 324.476C103.289 324.437 103.366 324.416 103.445 324.416C103.524 324.416 103.602 324.437 103.67 324.476L133.3 341.576C133.369 341.617 133.426 341.676 133.465 341.746C133.503 341.817 133.522 341.896 133.52 341.976C133.522 342.055 133.502 342.133 133.463 342.201C133.425 342.27 133.368 342.327 133.3 342.366L96.3001 363.746C96.2335 363.786 96.1575 363.806 96.0801 363.806ZM67.3601 346.246L96.0801 362.826L132.2 341.976L103.48 325.396L67.3601 346.246Z" fill="#FF9800"/>
</g>
<path d="M96.0801 359.077L96.0701 294.937L73.8501 282.107L73.8601 346.247L96.0801 359.077Z" fill="#FF9800"/>
<path opacity="0.45" d="M96.0801 359.077L96.0701 294.937L73.8501 282.107L73.8601 346.247L96.0801 359.077Z" fill="black"/>
<path d="M96.0801 359.078L125.7 341.968L125.71 277.838L96.0701 294.938L96.0801 359.078Z" fill="#FF9800"/>
<path opacity="0.3" d="M96.0801 359.078L125.7 341.968L125.71 277.838L96.0701 294.938L96.0801 359.078Z" fill="black"/>
<path d="M125.71 277.838L103.49 265.008L73.8501 282.108L96.0701 294.938L125.71 277.838Z" fill="#FF9800"/>
<path opacity="0.15" d="M125.71 277.838L103.49 265.008L73.8501 282.108L96.0701 294.938L125.71 277.838Z" fill="black"/>
<path opacity="0.3" d="M125.71 277.838L95.7801 294.328L86.0601 288.908L73.8501 282.108L85.8501 289.278L95.6801 295.148C95.4501 297.148 95.3901 350.748 95.4301 352.778C95.4517 354.894 95.6727 357.003 96.0901 359.078C96.4993 357.002 96.7168 354.893 96.7401 352.778C96.7401 350.848 96.7401 297.388 96.5201 295.458L125.71 277.838Z" fill="white"/>
<g opacity="0.3">
<path d="M262.71 267.597C262.633 267.596 262.557 267.575 262.49 267.537L232.86 250.437C232.791 250.396 232.733 250.337 232.693 250.267C232.652 250.197 232.631 250.118 232.63 250.037C232.631 249.958 232.652 249.88 232.693 249.811C232.733 249.743 232.791 249.686 232.86 249.647L269.86 228.267C269.93 228.228 270.01 228.207 270.09 228.207C270.171 228.207 270.25 228.228 270.32 228.267L299.94 245.367C300.011 245.406 300.07 245.463 300.112 245.532C300.153 245.602 300.175 245.681 300.175 245.762C300.175 245.843 300.153 245.922 300.112 245.992C300.07 246.061 300.011 246.118 299.94 246.157L262.94 267.537C262.87 267.577 262.791 267.598 262.71 267.597ZM234 250.037L262.71 266.617L298.83 245.757L270.12 229.177L234 250.037Z" fill="#FF9800"/>
</g>
<path d="M262.71 262.867V70.1767L240.49 57.3467L240.5 250.037L262.71 262.867Z" fill="#FF9800"/>
<path opacity="0.3" d="M262.71 262.867V70.1767L240.49 57.3467L240.5 250.037L262.71 262.867Z" fill="white"/>
<path d="M262.71 262.867L292.34 245.767V53.0771L262.71 70.1771V262.867Z" fill="#FF9800"/>
<path opacity="0.55" d="M262.71 262.867L292.34 245.767V53.0771L262.71 70.1771V262.867Z" fill="white"/>
<path d="M292.34 53.0771L270.12 40.2471L240.49 57.3471L262.71 70.1771L292.34 53.0771Z" fill="#FF9800"/>
<path opacity="0.75" d="M292.34 53.0771L270.12 40.2471L240.49 57.3471L262.71 70.1771L292.34 53.0771Z" fill="white"/>
<path opacity="0.3" d="M263.1 70.7574L292.34 53.1074L262.41 69.6074C259.19 67.7774 255.94 65.9774 252.7 64.1774L240.49 57.3774L252.49 64.5574C255.77 66.5574 259.04 68.4874 262.34 70.4174C262.23 74.3374 262.12 78.2574 262.09 82.1774C262.06 86.0974 262.09 234.967 262.09 238.957C262.09 242.947 262.17 246.957 262.29 250.957C262.41 254.957 262.52 258.957 262.75 262.957C262.97 258.957 263.11 254.957 263.2 250.957C263.29 246.957 263.38 242.957 263.4 238.957C263.42 234.957 263.4 86.1674 263.4 82.1774C263.31 78.3474 263.21 74.5374 263.1 70.7574Z" fill="white"/>
<path d="M212.18 93.1966L187.29 107.567C186.601 108.016 186.027 108.621 185.615 109.334C185.204 110.046 184.965 110.845 184.92 111.667V131.857C184.92 133.367 185.98 133.977 187.29 133.227L196.46 127.917L198.92 132.167C199.027 132.358 199.188 132.514 199.382 132.616C199.577 132.718 199.797 132.761 200.015 132.74C200.234 132.718 200.441 132.634 200.613 132.497C200.784 132.359 200.912 132.175 200.98 131.967L203.87 123.647L212.18 118.857C212.871 118.408 213.447 117.803 213.86 117.091C214.274 116.379 214.514 115.579 214.56 114.757V94.5666C214.56 93.0566 213.49 92.4466 212.18 93.1966Z" fill="#FAFAFA"/>
<path d="M186.23 134.086C185.92 134.089 185.616 134.005 185.35 133.846C185.016 133.637 184.746 133.339 184.57 132.987C184.393 132.634 184.317 132.239 184.35 131.846V111.666C184.395 110.752 184.656 109.861 185.114 109.068C185.571 108.275 186.211 107.603 186.98 107.106L211.91 92.7563C212.23 92.5349 212.604 92.4026 212.992 92.3727C213.38 92.3428 213.77 92.4166 214.12 92.5863C214.452 92.7983 214.72 93.0962 214.896 93.4484C215.072 93.8005 215.15 94.1937 215.12 94.5863V114.756C215.076 115.672 214.814 116.564 214.354 117.357C213.895 118.151 213.252 118.822 212.48 119.316L204.35 124.006L201.53 132.146C201.424 132.45 201.233 132.718 200.979 132.916C200.726 133.115 200.421 133.236 200.1 133.266C199.781 133.293 199.461 133.229 199.176 133.082C198.892 132.935 198.654 132.712 198.49 132.436L196.31 128.646L187.6 133.646C187.191 133.912 186.718 134.064 186.23 134.086ZM213.23 93.4063C212.95 93.4236 212.679 93.5095 212.44 93.6563L187.56 108.026C186.952 108.43 186.445 108.968 186.079 109.599C185.713 110.231 185.498 110.938 185.45 111.666V131.856C185.426 132.056 185.453 132.259 185.528 132.446C185.603 132.633 185.724 132.798 185.88 132.926C186.068 132.999 186.271 133.023 186.471 132.995C186.67 132.967 186.86 132.888 187.02 132.766L196.66 127.196L199.38 131.906C199.437 132.007 199.523 132.089 199.626 132.142C199.729 132.195 199.845 132.218 199.96 132.206C200.077 132.195 200.188 132.151 200.281 132.078C200.373 132.005 200.442 131.907 200.48 131.796L203.43 123.276L211.91 118.396C212.517 117.992 213.022 117.454 213.387 116.822C213.751 116.191 213.964 115.484 214.01 114.756V94.5663C214.036 94.367 214.011 94.1644 213.938 93.9773C213.864 93.7902 213.745 93.6247 213.59 93.4963C213.481 93.434 213.356 93.4029 213.23 93.4063Z" fill="#E0E0E0"/>
<path d="M190.48 125.426C190.399 125.426 190.319 125.405 190.249 125.365C190.179 125.324 190.121 125.266 190.08 125.196C190.05 125.144 190.03 125.087 190.023 125.028C190.015 124.968 190.019 124.908 190.035 124.85C190.051 124.792 190.078 124.738 190.115 124.691C190.152 124.644 190.198 124.605 190.25 124.576L208.76 113.886C208.812 113.847 208.872 113.82 208.935 113.806C208.998 113.792 209.064 113.791 209.127 113.804C209.19 113.817 209.25 113.843 209.303 113.881C209.356 113.919 209.4 113.967 209.432 114.023C209.465 114.079 209.485 114.142 209.492 114.206C209.499 114.27 209.492 114.336 209.472 114.397C209.452 114.459 209.419 114.515 209.376 114.564C209.332 114.612 209.279 114.65 209.22 114.676L190.7 125.366C190.633 125.404 190.557 125.425 190.48 125.426Z" fill="#E0E0E0"/>
<path d="M190.48 121.146C190.399 121.147 190.319 121.125 190.249 121.085C190.179 121.045 190.121 120.986 190.08 120.916C190.05 120.865 190.03 120.807 190.023 120.748C190.015 120.689 190.019 120.628 190.035 120.571C190.051 120.513 190.078 120.459 190.115 120.412C190.152 120.365 190.198 120.325 190.25 120.296L208.76 109.606C208.867 109.547 208.992 109.532 209.109 109.564C209.227 109.596 209.328 109.672 209.39 109.776C209.448 109.881 209.463 110.005 209.431 110.121C209.4 110.237 209.324 110.336 209.22 110.396L190.7 121.086C190.633 121.124 190.557 121.145 190.48 121.146Z" fill="#E0E0E0"/>
<path d="M190.48 116.876C190.399 116.876 190.319 116.855 190.249 116.815C190.179 116.775 190.121 116.716 190.08 116.646C190.05 116.594 190.03 116.537 190.023 116.478C190.015 116.418 190.019 116.358 190.035 116.3C190.051 116.243 190.078 116.189 190.115 116.142C190.152 116.094 190.198 116.055 190.25 116.026L208.76 105.336C208.812 105.297 208.872 105.27 208.935 105.256C208.998 105.242 209.064 105.241 209.127 105.254C209.19 105.267 209.25 105.294 209.303 105.331C209.356 105.369 209.4 105.418 209.432 105.474C209.465 105.53 209.485 105.592 209.492 105.656C209.499 105.721 209.492 105.786 209.472 105.847C209.452 105.909 209.419 105.966 209.376 106.014C209.332 106.062 209.279 106.1 209.22 106.126L190.7 116.816C190.633 116.854 190.557 116.875 190.48 116.876Z" fill="#E0E0E0"/>
<path d="M190.48 112.596C190.4 112.597 190.322 112.577 190.252 112.538C190.182 112.5 190.123 112.444 190.08 112.376C190.05 112.324 190.03 112.266 190.022 112.206C190.014 112.146 190.018 112.085 190.034 112.026C190.05 111.968 190.077 111.913 190.114 111.865C190.151 111.817 190.197 111.776 190.25 111.746L208.76 101.056C208.867 100.998 208.992 100.983 209.109 101.014C209.227 101.046 209.328 101.122 209.39 101.226C209.448 101.331 209.463 101.455 209.431 101.571C209.4 101.687 209.324 101.786 209.22 101.846L190.7 112.536C190.633 112.575 190.557 112.595 190.48 112.596Z" fill="#FF9800"/>
<path d="M156.66 163.616L131.77 177.986C131.08 178.434 130.505 179.039 130.093 179.752C129.682 180.464 129.444 181.264 129.4 182.086V202.266C129.4 203.776 130.46 204.396 131.77 203.636L140.94 198.336L143.4 202.586C143.51 202.774 143.672 202.926 143.865 203.025C144.059 203.124 144.277 203.166 144.494 203.145C144.711 203.124 144.917 203.041 145.088 202.907C145.259 202.772 145.388 202.592 145.46 202.386L148.35 194.056L156.66 189.266C157.35 188.818 157.925 188.213 158.337 187.5C158.749 186.788 158.986 185.988 159.03 185.166V164.976C159.03 163.466 157.97 162.856 156.66 163.616Z" fill="#FAFAFA"/>
<path d="M130.71 204.496C130.402 204.497 130.099 204.418 129.83 204.266C129.498 204.054 129.23 203.756 129.054 203.404C128.878 203.052 128.801 202.659 128.83 202.266V182.086C128.875 181.171 129.136 180.278 129.594 179.484C130.051 178.689 130.691 178.015 131.46 177.516L156.35 163.146C156.663 162.917 157.036 162.784 157.423 162.763C157.811 162.742 158.196 162.834 158.532 163.028C158.868 163.222 159.14 163.509 159.316 163.855C159.491 164.201 159.562 164.591 159.52 164.976V185.166C159.477 186.082 159.215 186.974 158.755 187.768C158.296 188.561 157.653 189.233 156.88 189.726L148.75 194.416L145.93 202.556C145.826 202.862 145.636 203.13 145.382 203.329C145.128 203.528 144.821 203.649 144.5 203.676C144.18 203.71 143.857 203.649 143.571 203.502C143.285 203.354 143.048 203.127 142.89 202.846L140.71 199.056L132 204.056C131.616 204.313 131.171 204.465 130.71 204.496ZM156.92 164.076L132.04 178.446C131.43 178.848 130.922 179.386 130.556 180.018C130.19 180.649 129.976 181.357 129.93 182.086V202.266C129.867 202.468 129.874 202.685 129.951 202.882C130.027 203.078 130.168 203.243 130.351 203.349C130.534 203.455 130.747 203.496 130.956 203.464C131.165 203.433 131.357 203.331 131.5 203.176L141.14 197.606L143.86 202.316C143.914 202.42 143.999 202.504 144.103 202.558C144.207 202.611 144.324 202.632 144.44 202.616C144.558 202.609 144.671 202.566 144.764 202.493C144.857 202.419 144.926 202.319 144.96 202.206L147.96 193.696L156.44 188.806C157.047 188.403 157.553 187.864 157.918 187.233C158.282 186.601 158.495 185.894 158.54 185.166V164.976C158.565 164.777 158.54 164.575 158.467 164.388C158.393 164.201 158.274 164.035 158.12 163.906C157.93 163.833 157.724 163.81 157.523 163.84C157.321 163.87 157.131 163.951 156.97 164.076H156.92Z" fill="#E0E0E0"/>
<path d="M134.96 195.836C134.879 195.836 134.799 195.815 134.729 195.775C134.659 195.734 134.601 195.676 134.56 195.606C134.53 195.554 134.51 195.497 134.503 195.438C134.495 195.378 134.499 195.318 134.515 195.26C134.531 195.203 134.558 195.149 134.595 195.102C134.632 195.054 134.678 195.015 134.73 194.986L153.24 184.296C153.292 184.257 153.352 184.23 153.415 184.216C153.478 184.202 153.543 184.201 153.607 184.214C153.67 184.227 153.73 184.254 153.783 184.291C153.836 184.329 153.88 184.378 153.912 184.434C153.945 184.49 153.965 184.552 153.972 184.616C153.979 184.681 153.972 184.746 153.952 184.807C153.932 184.869 153.899 184.926 153.856 184.974C153.812 185.022 153.759 185.06 153.7 185.086L135.18 195.756C135.115 195.801 135.039 195.829 134.96 195.836Z" fill="#FF9800"/>
<path d="M134.96 191.567C134.879 191.567 134.799 191.546 134.729 191.505C134.659 191.465 134.601 191.407 134.56 191.337C134.53 191.285 134.51 191.228 134.503 191.168C134.495 191.109 134.499 191.049 134.515 190.991C134.531 190.933 134.558 190.879 134.595 190.832C134.632 190.785 134.678 190.746 134.73 190.717L153.24 180.027C153.292 179.988 153.352 179.961 153.415 179.947C153.478 179.932 153.543 179.932 153.607 179.945C153.67 179.958 153.73 179.984 153.783 180.022C153.836 180.06 153.88 180.108 153.912 180.164C153.945 180.22 153.965 180.282 153.972 180.347C153.979 180.411 153.972 180.476 153.952 180.538C153.932 180.599 153.899 180.656 153.856 180.704C153.812 180.752 153.759 180.79 153.7 180.817L135.18 191.507C135.113 191.545 135.037 191.565 134.96 191.567Z" fill="#E0E0E0"/>
<path d="M134.96 187.286C134.879 187.287 134.799 187.265 134.729 187.225C134.659 187.185 134.601 187.126 134.56 187.056C134.53 187.005 134.51 186.947 134.503 186.888C134.495 186.829 134.499 186.768 134.515 186.711C134.531 186.653 134.558 186.599 134.595 186.552C134.632 186.505 134.678 186.465 134.73 186.436L153.24 175.756C153.293 175.726 153.351 175.706 153.411 175.698C153.471 175.69 153.532 175.694 153.59 175.71C153.649 175.726 153.704 175.753 153.752 175.79C153.8 175.827 153.84 175.874 153.87 175.926C153.928 176.031 153.943 176.155 153.911 176.271C153.88 176.387 153.804 176.486 153.7 176.546L135.18 187.236C135.112 187.271 135.036 187.288 134.96 187.286Z" fill="#E0E0E0"/>
<path d="M134.96 183.016C134.879 183.016 134.799 182.995 134.729 182.955C134.659 182.914 134.601 182.856 134.56 182.786C134.53 182.734 134.51 182.677 134.503 182.618C134.495 182.558 134.499 182.498 134.515 182.44C134.531 182.382 134.558 182.328 134.595 182.281C134.632 182.234 134.678 182.195 134.73 182.166L153.24 171.476C153.292 171.437 153.352 171.41 153.415 171.396C153.478 171.382 153.543 171.381 153.607 171.394C153.67 171.407 153.73 171.433 153.783 171.471C153.836 171.509 153.88 171.557 153.912 171.613C153.945 171.669 153.965 171.732 153.972 171.796C153.979 171.86 153.972 171.925 153.952 171.987C153.932 172.049 153.899 172.105 153.856 172.153C153.812 172.201 153.759 172.24 153.7 172.266L135.18 182.956C135.113 182.994 135.037 183.015 134.96 183.016Z" fill="#E0E0E0"/>
<path d="M101.13 225.606L76.2401 239.976C75.5498 240.425 74.9752 241.03 74.5634 241.742C74.1515 242.455 73.9139 243.254 73.8701 244.076V264.256C73.8701 265.766 74.9301 266.386 76.2401 265.626L85.4101 260.326L87.8701 264.576C87.9817 264.764 88.1442 264.915 88.3386 265.014C88.5331 265.112 88.7515 265.153 88.9684 265.132C89.1853 265.111 89.3918 265.029 89.5639 264.895C89.7359 264.761 89.8664 264.581 89.9401 264.376L92.8201 256.046L101.13 251.256C101.82 250.808 102.395 250.203 102.807 249.491C103.219 248.778 103.456 247.978 103.5 247.156V226.966C103.5 225.456 102.44 224.846 101.13 225.606Z" fill="#FAFAFA"/>
<path d="M75.18 266.486C74.8719 266.486 74.569 266.407 74.3001 266.256C73.9683 266.044 73.7002 265.747 73.5241 265.394C73.348 265.042 73.2706 264.649 73.3001 264.256V244.076C73.3441 243.159 73.6066 242.266 74.0658 241.471C74.5251 240.676 75.1677 240.003 75.9401 239.506L100.82 225.136C101.133 224.907 101.506 224.774 101.893 224.753C102.281 224.732 102.666 224.824 103.002 225.018C103.338 225.212 103.61 225.499 103.785 225.845C103.961 226.191 104.032 226.581 103.99 226.966V247.156C103.947 248.071 103.686 248.962 103.229 249.756C102.771 250.549 102.13 251.221 101.36 251.716L93.2201 256.406L90.4 264.546C90.2922 264.843 90.1027 265.102 89.8534 265.295C89.6041 265.489 89.3053 265.607 88.9915 265.637C88.6777 265.668 88.3617 265.609 88.08 265.467C87.7984 265.325 87.5627 265.107 87.4 264.836L85.21 261.046L76.5001 266.046C76.1073 266.309 75.6515 266.461 75.18 266.486ZM101.4 226.066L76.56 240.436C75.9516 240.839 75.4451 241.377 75.0806 242.009C74.7161 242.64 74.5036 243.348 74.46 244.076V264.256C74.4341 264.457 74.459 264.661 74.5324 264.85C74.6057 265.039 74.7253 265.206 74.8801 265.336C75.071 265.404 75.2757 265.424 75.4762 265.395C75.6767 265.365 75.8668 265.287 76.03 265.166L85.6601 259.596L88.3801 264.306C88.4394 264.406 88.5259 264.487 88.6296 264.539C88.7332 264.592 88.8496 264.613 88.9651 264.602C89.0806 264.59 89.1904 264.546 89.2816 264.474C89.3728 264.402 89.4417 264.306 89.48 264.196L92.43 255.686L100.86 250.756C101.469 250.354 101.976 249.815 102.342 249.184C102.708 248.553 102.923 247.845 102.97 247.116V226.966C102.994 226.766 102.967 226.563 102.892 226.376C102.817 226.189 102.696 226.024 102.54 225.897C102.352 225.823 102.147 225.8 101.947 225.83C101.747 225.86 101.559 225.941 101.4 226.066Z" fill="#E0E0E0"/>
<path d="M79.4301 257.826C79.327 257.832 79.2251 257.802 79.1415 257.742C79.0578 257.681 78.9974 257.594 78.9705 257.494C78.9435 257.395 78.9516 257.289 78.9934 257.195C79.0352 257.1 79.1082 257.023 79.2001 256.976L97.7201 246.286C97.8248 246.226 97.949 246.211 98.0653 246.243C98.1228 246.259 98.1767 246.286 98.2239 246.322C98.271 246.359 98.3105 246.404 98.3401 246.456C98.3696 246.508 98.3886 246.565 98.3961 246.624C98.4035 246.684 98.3993 246.744 98.3835 246.801C98.3677 246.859 98.3407 246.913 98.3041 246.96C98.2675 247.007 98.2219 247.047 98.1701 247.076L79.6601 257.756C79.5904 257.798 79.5113 257.822 79.4301 257.826Z" fill="#E0E0E0"/>
<path d="M79.4301 253.557C79.349 253.557 79.2694 253.536 79.1992 253.496C79.1289 253.455 79.0706 253.397 79.0301 253.327C78.9718 253.222 78.957 253.098 78.9888 252.982C79.0206 252.866 79.0964 252.768 79.2001 252.707L97.7201 242.017C97.7712 241.986 97.8279 241.966 97.8868 241.958C97.9458 241.949 98.0058 241.953 98.0635 241.967C98.1212 241.982 98.1753 242.008 98.2228 242.044C98.2703 242.08 98.3101 242.125 98.3401 242.177C98.3988 242.284 98.4139 242.409 98.3822 242.526C98.3505 242.644 98.2745 242.744 98.1701 242.807L79.6601 253.497C79.5895 253.535 79.5105 253.556 79.4301 253.557Z" fill="#E0E0E0"/>
<path d="M79.4301 249.277C79.327 249.283 79.2251 249.253 79.1415 249.192C79.0578 249.132 78.9974 249.045 78.9705 248.945C78.9435 248.845 78.9516 248.74 78.9934 248.645C79.0352 248.551 79.1082 248.474 79.2001 248.427L97.7201 237.757C97.7719 237.727 97.8291 237.708 97.8883 237.701C97.9476 237.693 98.0077 237.698 98.0653 237.713C98.1228 237.729 98.1767 237.756 98.2239 237.793C98.271 237.829 98.3105 237.875 98.3401 237.927C98.3696 237.979 98.3886 238.036 98.3961 238.095C98.4035 238.154 98.3993 238.214 98.3835 238.272C98.3677 238.33 98.3407 238.384 98.3041 238.431C98.2675 238.478 98.2219 238.517 98.1701 238.547L79.6601 249.217C79.5895 249.255 79.5105 249.276 79.4301 249.277Z" fill="#FF9800"/>
<path d="M79.4301 245.006C79.349 245.007 79.2694 244.986 79.1992 244.945C79.1289 244.905 79.0706 244.847 79.0301 244.776C78.9718 244.671 78.957 244.548 78.9888 244.432C79.0206 244.316 79.0964 244.217 79.2001 244.156L97.7201 233.466C97.824 233.407 97.9468 233.391 98.0625 233.421C98.1782 233.451 98.2778 233.524 98.3401 233.626C98.3988 233.733 98.4139 233.858 98.3822 233.976C98.3505 234.093 98.2745 234.194 98.1701 234.256L79.6601 244.946C79.5895 244.985 79.5105 245.006 79.4301 245.006Z" fill="#E0E0E0"/>
<path d="M267.75 0.855988L242.86 15.226C242.17 15.6742 241.595 16.2792 241.183 16.9918C240.771 17.7043 240.534 18.5041 240.49 19.326V39.516C240.49 41.026 241.55 41.636 242.86 40.876L252.03 35.576L254.49 39.826C254.599 40.0168 254.761 40.1721 254.956 40.2731C255.151 40.3742 255.371 40.4167 255.59 40.3956C255.808 40.3744 256.016 40.2906 256.188 40.154C256.361 40.0175 256.49 39.8341 256.56 39.626L259.44 31.296L267.75 26.506C268.44 26.0578 269.015 25.4528 269.427 24.7402C269.839 24.0277 270.076 23.2278 270.12 22.406V2.22599C270.12 0.755991 269.06 0.0959879 267.75 0.855988Z" fill="#FAFAFA"/>
<path d="M241.8 41.7565C241.492 41.756 241.189 41.6768 240.92 41.5265C240.587 41.3153 240.319 41.0175 240.143 40.6652C239.966 40.3129 239.889 39.9192 239.92 39.5265V19.3265C239.962 18.4089 240.223 17.5148 240.683 16.7194C241.142 15.9241 241.786 15.2509 242.56 14.7565L267.44 0.386474C267.753 0.157254 268.126 0.0240008 268.513 0.00294801C268.901 -0.0181048 269.286 0.0739507 269.622 0.267902C269.958 0.461853 270.23 0.749327 270.405 1.0953C270.581 1.44128 270.652 1.83082 270.61 2.21647V22.4065C270.565 23.3222 270.304 24.2142 269.846 25.0088C269.389 25.8035 268.749 26.4779 267.98 26.9765L259.84 31.6565L257.06 39.7565C256.958 40.0611 256.769 40.3294 256.517 40.5284C256.265 40.7273 255.96 40.8483 255.64 40.8765C255.32 40.9129 254.996 40.8534 254.709 40.7057C254.423 40.558 254.186 40.3285 254.03 40.0465L251.84 36.2665L243.13 41.2665C242.74 41.548 242.28 41.7174 241.8 41.7565ZM268.02 1.33647L243.13 15.6865C242.523 16.0898 242.017 16.6283 241.653 17.2599C241.288 17.8914 241.075 18.5988 241.03 19.3265V39.5165C240.971 39.7172 240.981 39.932 241.059 40.1263C241.137 40.3205 241.278 40.4828 241.459 40.5869C241.641 40.691 241.852 40.7308 242.059 40.6998C242.266 40.6689 242.457 40.5691 242.6 40.4165L252.23 34.8465L254.95 39.5565C255.004 39.6599 255.089 39.7441 255.193 39.7978C255.297 39.8514 255.414 39.8719 255.53 39.8565C255.647 39.8501 255.759 39.8085 255.852 39.7371C255.945 39.6657 256.014 39.5678 256.05 39.4565L259 30.9365L267.48 26.0465C268.083 25.6404 268.585 25.1008 268.945 24.4695C269.306 23.8382 269.516 23.1323 269.56 22.4065V2.22647C269.623 2.02497 269.616 1.80795 269.539 1.61111C269.463 1.41427 269.322 1.24933 269.139 1.14343C268.956 1.03752 268.743 0.996961 268.534 1.02841C268.325 1.05986 268.133 1.16145 267.99 1.31647L268.02 1.33647Z" fill="#E0E0E0"/>
<path d="M253.81 28.7568C253.811 28.1518 253.949 27.5549 254.214 27.011C254.479 26.4671 254.864 25.9904 255.34 25.6168C256.15 25.1568 256.8 25.8368 256.8 27.0268C256.817 27.6362 256.694 28.2413 256.441 28.7959C256.188 29.3505 255.811 29.84 255.34 30.2268C254.48 30.7568 253.81 30.0368 253.81 28.7568ZM253.99 13.2968L256.7 11.7568L256.16 23.3368L254.53 24.2768L253.99 13.2968Z" fill="#FF9800"/>
</g>
<defs>
<clipPath id="clip0_3236_8368">
<rect width="367.18" height="367.18" fill="white"/>
</clipPath>
</defs>
</svg>
