<svg width="639" height="640" viewBox="0 0 639 640" fill="none" xmlns="http://www.w3.org/2000/svg">
<g filter="url(#filter0_d_9_11)">
<path d="M320.14 374.168L283.093 338.181L214.449 269.478H213.36L97.8638 386.162V387.253C108.255 397.567 119.096 407.413 129.462 417.787C132.516 420.844 137.771 428.466 142.537 428.466C147.857 428.466 154.344 419.056 157.791 415.606L197.016 376.348C200.614 372.747 209.835 359.807 215.539 361.307C224.363 363.624 235.291 379.759 241.688 386.162L293.988 438.507C301.805 446.331 310.049 457.789 320.14 462.498C335.408 440.803 359.126 422.389 377.886 403.611L492.293 289.107C500.596 280.797 511.684 264.424 522.802 260.321C528.414 258.251 536.497 259.664 542.414 259.664C547 259.664 556.663 257.805 559.657 262.191C565.383 270.579 564.889 290.096 565.338 300.012C566.83 332.881 563.453 364.549 552.948 395.977C508.847 527.904 358.504 597.696 229.704 547.764C202.243 537.119 176.389 521.339 154.522 501.571C40.8687 398.829 46.1345 212.499 169.776 119.506C222.822 79.6084 294.441 58.521 360.453 72.2261C386.633 77.6611 409.356 89.9143 434.545 97.1774L412.753 133.164L530.428 123.35L517.411 85.1817L491.204 12.1175H489.025L469.412 44.8328C442.405 33.5198 417.64 20.7466 388.783 13.9216C312.179 -4.1957 227.399 9.19301 159.97 49.6845C131.842 66.5748 106.647 87.7242 85.0997 112.444C-9.7062 221.214 -14.0651 382.786 68.1406 499.575C87.535 527.13 112.849 551.434 140.357 570.763C290.254 676.086 508.475 625.977 593.343 461.408C611.613 425.981 622.669 387.582 626.497 347.995C630.997 301.45 628.954 243.173 605.827 200.936C602.695 195.214 591.52 197.505 585.998 197.505H527.16C518.125 197.505 502.642 194.537 494.472 198.626C480.049 205.843 466.64 225.361 455.248 236.762L369.17 322.912L336.482 355.628C330.817 361.299 323.559 366.83 320.14 374.168Z" fill="#F57C00"/>
</g>
<defs>
<filter id="filter0_d_9_11" x="-7.03956e-07" y="5.07928e-07" width="638.425" height="640" filterUnits="userSpaceOnUse" color-interpolation-filters="sRGB">
<feFlood flood-opacity="0" result="BackgroundImageFix"/>
<feColorMatrix in="SourceAlpha" type="matrix" values="0 0 0 0 0 0 0 0 0 0 0 0 0 0 0 0 0 0 127 0" result="hardAlpha"/>
<feOffset dy="4"/>
<feGaussianBlur stdDeviation="5"/>
<feComposite in2="hardAlpha" operator="out"/>
<feColorMatrix type="matrix" values="0 0 0 0 0 0 0 0 0 0 0 0 0 0 0 0 0 0 0.25 0"/>
<feBlend mode="normal" in2="BackgroundImageFix" result="effect1_dropShadow_9_11"/>
<feBlend mode="normal" in="SourceGraphic" in2="effect1_dropShadow_9_11" result="shape"/>
</filter>
</defs>
</svg>
