<svg width="128" height="128" viewBox="0 0 128 128" fill="none" xmlns="http://www.w3.org/2000/svg">
<path d="M64 128C99.3462 128 128 99.3462 128 64C128 28.6538 99.3462 0 64 0C28.6538 0 0 28.6538 0 64C0 99.3462 28.6538 128 64 128Z" fill="#FF9800"/>
<path d="M64 106.435C87.4069 106.435 106.382 87.4598 106.382 64.0529C106.382 40.646 87.4069 21.6709 64 21.6709C40.593 21.6709 21.618 40.646 21.618 64.0529C21.618 87.4598 40.593 106.435 64 106.435Z" stroke="white"/>
<path d="M67.1406 56.4517V59.6836H66.7492V56.862H66.7303L65.9413 57.3859V56.9883L66.7492 56.4517H67.1406Z" fill="white"/>
<path d="M66.0044 54.3857V54.1017L67.0712 52.9339C67.1964 52.7972 67.2995 52.6783 67.3805 52.5773C67.4615 52.4752 67.5214 52.3795 67.5604 52.2901C67.6003 52.1996 67.6203 52.1049 67.6203 52.006C67.6203 51.8924 67.593 51.7941 67.5383 51.7109C67.4846 51.6278 67.411 51.5637 67.3173 51.5184C67.2237 51.4732 67.1185 51.4506 67.0017 51.4506C66.8776 51.4506 66.7692 51.4763 66.6767 51.5279C66.5851 51.5784 66.5141 51.6494 66.4636 51.7409C66.4142 51.8325 66.3895 51.9398 66.3895 52.0628H66.017C66.017 51.8735 66.0607 51.7073 66.148 51.5642C66.2353 51.4211 66.3542 51.3096 66.5047 51.2296C66.6561 51.1497 66.826 51.1097 67.0144 51.1097C67.2037 51.1097 67.3715 51.1497 67.5178 51.2296C67.664 51.3096 67.7787 51.4174 67.8618 51.5531C67.9449 51.6888 67.9864 51.8398 67.9864 52.006C67.9864 52.1249 67.9649 52.2412 67.9217 52.3548C67.8797 52.4674 67.806 52.5931 67.7008 52.7319C67.5967 52.8698 67.452 53.0381 67.2669 53.2369L66.5409 54.0133V54.0386H68.0433V54.3857H66.0044Z" fill="white"/>
<path d="M67.0964 49.1321C66.8881 49.1321 66.7024 49.0963 66.5394 49.0248C66.3774 48.9532 66.2485 48.8538 66.1527 48.7265C66.0581 48.5982 66.0065 48.4493 65.9981 48.2799H66.3958C66.4042 48.3841 66.44 48.474 66.5031 48.5498C66.5662 48.6245 66.6488 48.6823 66.7508 48.7234C66.8529 48.7644 66.966 48.7849 67.0901 48.7849C67.229 48.7849 67.3521 48.7607 67.4594 48.7123C67.5667 48.6639 67.6508 48.5966 67.7119 48.5103C67.7729 48.4241 67.8034 48.3241 67.8034 48.2105C67.8034 48.0916 67.7739 47.9869 67.715 47.8965C67.6561 47.8049 67.5698 47.7334 67.4562 47.6818C67.3426 47.6303 67.2037 47.6045 67.0396 47.6045H66.7808V47.2573H67.0396C67.168 47.2573 67.2805 47.2342 67.3773 47.1879C67.4752 47.1416 67.5514 47.0764 67.6061 46.9922C67.6619 46.9081 67.6898 46.8092 67.6898 46.6956C67.6898 46.5861 67.6656 46.4909 67.6172 46.4099C67.5688 46.3289 67.5004 46.2658 67.412 46.2206C67.3247 46.1753 67.2216 46.1527 67.1027 46.1527C66.9912 46.1527 66.886 46.1732 66.7871 46.2143C66.6893 46.2542 66.6093 46.3126 66.5473 46.3894C66.4852 46.4652 66.4515 46.5567 66.4463 46.664H66.0675C66.0738 46.4946 66.1249 46.3463 66.2206 46.219C66.3163 46.0906 66.4415 45.9907 66.5962 45.9192C66.7519 45.8476 66.9228 45.8119 67.109 45.8119C67.3089 45.8119 67.4804 45.8524 67.6235 45.9334C67.7666 46.0133 67.8765 46.119 67.9533 46.2505C68.0301 46.3821 68.0685 46.5241 68.0685 46.6766C68.0685 46.8586 68.0206 47.0138 67.9249 47.1422C67.8302 47.2705 67.7013 47.3594 67.5383 47.4088V47.4341C67.7424 47.4678 67.9018 47.5545 68.0164 47.6945C68.1311 47.8333 68.1884 48.0053 68.1884 48.2105C68.1884 48.3862 68.1406 48.544 68.0448 48.6839C67.9501 48.8228 67.8207 48.9322 67.6566 49.0121C67.4925 49.0921 67.3058 49.1321 67.0964 49.1321Z" fill="white"/>
<path d="M65.9287 43.1273V42.8053L67.3489 40.5582H67.5825V41.0568H67.4247L66.3516 42.7548V42.7801H68.2642V43.1273H65.9287ZM67.4499 43.79V43.0294V42.8795V40.5582H67.8223V43.79H67.4499Z" fill="white"/>
<path d="M67.0144 38.5364C66.8292 38.5364 66.6625 38.4996 66.5141 38.4259C66.3658 38.3523 66.2469 38.2513 66.1575 38.1229C66.0681 37.9946 66.0191 37.8483 66.0107 37.6842H66.3895C66.4042 37.8305 66.4705 37.9514 66.5883 38.0472C66.7072 38.1419 66.8492 38.1892 67.0144 38.1892C67.1469 38.1892 67.2647 38.1582 67.3678 38.0961C67.472 38.034 67.5535 37.9488 67.6124 37.8405C67.6724 37.731 67.7024 37.6074 67.7024 37.4696C67.7024 37.3286 67.6714 37.2029 67.6093 37.0925C67.5483 36.9809 67.4641 36.8931 67.3568 36.8289C67.2495 36.7647 67.1269 36.7321 66.9891 36.7311C66.8902 36.73 66.7887 36.7453 66.6845 36.7768C66.5804 36.8074 66.4947 36.8468 66.4273 36.8952L66.0612 36.851L66.2569 35.2603H67.9359V35.6075H66.5851L66.4715 36.5606H66.4904C66.5567 36.508 66.6398 36.4644 66.7398 36.4297C66.8397 36.395 66.9439 36.3776 67.0522 36.3776C67.25 36.3776 67.4262 36.4249 67.5809 36.5196C67.7366 36.6133 67.8586 36.7416 67.947 36.9047C68.0364 37.0677 68.0811 37.2539 68.0811 37.4633C68.0811 37.6695 68.0348 37.8536 67.9423 38.0156C67.8507 38.1766 67.7245 38.3039 67.5635 38.3975C67.4026 38.4901 67.2195 38.5364 67.0144 38.5364Z" fill="white"/>
<path d="M67.0775 33.2385C66.9449 33.2364 66.8124 33.2112 66.6798 33.1628C66.5473 33.1144 66.4263 33.0328 66.3169 32.9182C66.2075 32.8025 66.1196 32.6462 66.0533 32.4495C65.987 32.2517 65.9539 32.0034 65.9539 31.7047C65.9539 31.4185 65.9807 31.165 66.0344 30.944C66.088 30.7221 66.1659 30.5353 66.2679 30.3838C66.37 30.2313 66.4931 30.1156 66.6372 30.0366C66.7824 29.9577 66.946 29.9183 67.128 29.9183C67.3089 29.9183 67.4699 29.9546 67.6109 30.0272C67.7529 30.0987 67.8686 30.1987 67.958 30.327C68.0475 30.4554 68.1053 30.6032 68.1316 30.7704H67.7466C67.7108 30.6253 67.6414 30.5048 67.5383 30.4091C67.4352 30.3133 67.2984 30.2655 67.128 30.2655C66.8776 30.2655 66.6803 30.3744 66.5362 30.5921C66.3931 30.8099 66.3211 31.1155 66.32 31.509H66.3453C66.4042 31.4196 66.4741 31.3433 66.5551 31.2802C66.6372 31.216 66.7277 31.1665 66.8266 31.1318C66.9255 31.0971 67.0301 31.0797 67.1406 31.0797C67.3258 31.0797 67.4951 31.126 67.6487 31.2186C67.8023 31.3101 67.9254 31.4369 68.018 31.5989C68.1106 31.7599 68.1569 31.9445 68.1569 32.1528C68.1569 32.3527 68.1122 32.5358 68.0227 32.702C67.9333 32.8672 67.8076 32.9987 67.6456 33.0965C67.4846 33.1933 67.2953 33.2406 67.0775 33.2385ZM67.0775 32.8913C67.21 32.8913 67.3289 32.8582 67.4341 32.7919C67.5404 32.7257 67.624 32.6368 67.685 32.5252C67.7471 32.4137 67.7781 32.2896 67.7781 32.1528C67.7781 32.0192 67.7482 31.8977 67.6882 31.7883C67.6293 31.6778 67.5477 31.59 67.4436 31.5248C67.3405 31.4595 67.2227 31.4269 67.0901 31.4269C66.9902 31.4269 66.8971 31.4469 66.8108 31.4869C66.7245 31.5258 66.6488 31.5795 66.5836 31.6478C66.5194 31.7162 66.4689 31.7946 66.4321 31.883C66.3952 31.9703 66.3768 32.0623 66.3768 32.1591C66.3768 32.2875 66.4068 32.4074 66.4668 32.5189C66.5278 32.6304 66.6109 32.7204 66.7161 32.7888C66.8224 32.8572 66.9428 32.8913 67.0775 32.8913Z" fill="white"/>
<path d="M66.1054 27.8965L67.5509 25.0371V25.0118H65.8845V24.6646H67.9549V25.0307L66.5157 27.8965H66.1054Z" fill="white"/>
<path d="M64.165 64.1281V21.7461" stroke="white" stroke-width="0.5"/>
<path d="M63.105 58.8311H65.225" stroke="white" stroke-width="0.5"/>
<path d="M63.105 53.5332H65.225" stroke="white" stroke-width="0.5"/>
<path d="M63.105 48.2354H65.225" stroke="white" stroke-width="0.5"/>
<path d="M63.105 42.9365H65.225" stroke="white" stroke-width="0.5"/>
<path d="M63.105 37.6387H65.225" stroke="white" stroke-width="0.5"/>
<path d="M63.105 32.3418H65.225" stroke="white" stroke-width="0.5"/>
<path d="M63.105 27.0439H65.225" stroke="white" stroke-width="0.5"/>
<path d="M63.999 101.306C84.5732 101.306 101.252 84.6271 101.252 64.0528C101.252 43.4785 84.5732 26.7998 63.999 26.7998C43.4247 26.7998 26.746 43.4785 26.746 64.0528C26.746 84.6271 43.4247 101.306 63.999 101.306Z" stroke="white" stroke-width="0.25"/>
<path d="M64 95.6421C81.5068 95.6421 95.699 81.45 95.699 63.9431C95.699 46.4363 81.5068 32.2441 64 32.2441C46.4931 32.2441 32.301 46.4363 32.301 63.9431C32.301 81.45 46.4931 95.6421 64 95.6421Z" stroke="white" stroke-width="0.25"/>
<path d="M64 90.6461C78.7465 90.6461 90.7009 78.6917 90.7009 63.9451C90.7009 49.1986 78.7465 37.2441 64 37.2441C49.2534 37.2441 37.299 49.1986 37.299 63.9451C37.299 78.6917 49.2534 90.6461 64 90.6461Z" stroke="white" stroke-width="0.25"/>
<path d="M63.999 85.3063C75.7996 85.3063 85.366 75.7399 85.366 63.9393C85.366 52.1386 75.7996 42.5723 63.999 42.5723C52.1983 42.5723 42.632 52.1386 42.632 63.9393C42.632 75.7399 52.1983 85.3063 63.999 85.3063Z" stroke="white" stroke-width="0.25"/>
<path d="M63.999 79.8646C72.793 79.8646 79.922 72.7356 79.922 63.9416C79.922 55.1475 72.793 48.0186 63.999 48.0186C55.205 48.0186 48.076 55.1475 48.076 63.9416C48.076 72.7356 55.205 79.8646 63.999 79.8646Z" stroke="white" stroke-width="0.25"/>
<path d="M63.999 74.6455C69.9708 74.6455 74.812 69.8044 74.812 63.8325C74.812 57.8607 69.9708 53.0195 63.999 53.0195C58.0271 53.0195 53.186 57.8607 53.186 63.8325C53.186 69.8044 58.0271 74.6455 63.999 74.6455Z" stroke="white" stroke-width="0.25"/>
<path d="M63.999 69.2773C66.9438 69.2773 69.331 66.8901 69.331 63.9453C69.331 61.0005 66.9438 58.6133 63.999 58.6133C61.0542 58.6133 58.667 61.0005 58.667 63.9453C58.667 66.8901 61.0542 69.2773 63.999 69.2773Z" stroke="white" stroke-width="0.25"/>
<path d="M64.165 64.128L97.103 37.457" stroke="white" stroke-width="0.5"/>
<path d="M67.615 59.9717L68.949 61.6197" stroke="white" stroke-width="0.5"/>
<path d="M71.732 56.6387L73.066 58.2857" stroke="white" stroke-width="0.5"/>
<path d="M75.849 53.3027L77.183 54.9507" stroke="white" stroke-width="0.5"/>
<path d="M79.966 49.9697L81.3 51.6167" stroke="white" stroke-width="0.5"/>
<path d="M84.084 46.6357L85.417 48.2837" stroke="white" stroke-width="0.5"/>
<path d="M88.2 43.3027L89.532 44.9497" stroke="white" stroke-width="0.5"/>
<path d="M92.317 39.9678L93.651 41.6148" stroke="white" stroke-width="0.5"/>
<path d="M64.165 64.1279L105.621 72.9429" stroke="white" stroke-width="0.5"/>
<path d="M69.566 64.1953L69.126 66.2693" stroke="white" stroke-width="0.5"/>
<path d="M74.75 65.2969L74.308 67.3699" stroke="white" stroke-width="0.5"/>
<path d="M79.93 66.3984L79.491 68.4714" stroke="white" stroke-width="0.5"/>
<path d="M85.113 67.499L84.673 69.57" stroke="white" stroke-width="0.5"/>
<path d="M90.296 68.6016L89.854 70.6736" stroke="white" stroke-width="0.5"/>
<path d="M95.478 69.7012L95.037 71.7752" stroke="white" stroke-width="0.5"/>
<path d="M100.658 70.8047L100.22 72.8777" stroke="white" stroke-width="0.5"/>
<path d="M64.165 64.1279L82.743 102.225" stroke="white" stroke-width="0.5"/>
<path d="M67.44 68.4258L65.536 69.3558" stroke="white" stroke-width="0.5"/>
<path d="M69.761 73.1885L67.855 74.1175" stroke="white" stroke-width="0.5"/>
<path d="M72.085 77.9512L70.18 78.8812" stroke="white" stroke-width="0.5"/>
<path d="M74.407 82.7109L72.502 83.6409" stroke="white" stroke-width="0.5"/>
<path d="M76.729 87.4727L74.825 88.4017" stroke="white" stroke-width="0.5"/>
<path d="M79.052 92.2344L77.147 93.1654" stroke="white" stroke-width="0.5"/>
<path d="M81.374 96.9971L79.469 97.9251" stroke="white" stroke-width="0.5"/>
<path d="M64.165 64.1279L46.254 102.541" stroke="white" stroke-width="0.5"/>
<path d="M62.886 69.3794L60.966 68.4834" stroke="white" stroke-width="0.5"/>
<path d="M60.647 74.1792L58.727 73.2852" stroke="white" stroke-width="0.5"/>
<path d="M58.408 78.9799L56.487 78.0869" stroke="white" stroke-width="0.5"/>
<path d="M56.17 83.7826L54.249 82.8896" stroke="white" stroke-width="0.5"/>
<path d="M53.931 88.5835L52.01 87.6895" stroke="white" stroke-width="0.5"/>
<path d="M51.691 93.3882L49.771 92.4902" stroke="white" stroke-width="0.5"/>
<path d="M49.453 98.189L47.532 97.293" stroke="white" stroke-width="0.5"/>
<path d="M64.165 64.1279L22.87 73.6639" stroke="white" stroke-width="0.5"/>
<path d="M59.242 66.355L58.765 64.29" stroke="white" stroke-width="0.5"/>
<path d="M54.08 67.5464L53.602 65.4824" stroke="white" stroke-width="0.5"/>
<path d="M48.918 68.7368L48.442 66.6738" stroke="white" stroke-width="0.5"/>
<path d="M43.755 69.9292L43.279 67.8652" stroke="white" stroke-width="0.5"/>
<path d="M38.593 71.1217L38.117 69.0557" stroke="white" stroke-width="0.5"/>
<path d="M33.431 72.3111L32.955 70.2471" stroke="white" stroke-width="0.5"/>
<path d="M28.27 73.5054L27.792 71.4395" stroke="white" stroke-width="0.5"/>
<path d="M64.165 64.1281L30.768 38.0381" stroke="white" stroke-width="0.5"/>
<path d="M59.337 61.7022L60.643 60.0342" stroke="white" stroke-width="0.5"/>
<path d="M55.163 58.4425L56.469 56.7705" stroke="white" stroke-width="0.5"/>
<path d="M50.988 55.1807L52.293 53.5107" stroke="white" stroke-width="0.5"/>
<path d="M46.813 51.918L48.119 50.248" stroke="white" stroke-width="0.5"/>
<path d="M42.639 48.6573L43.944 46.9883" stroke="white" stroke-width="0.5"/>
<path d="M38.465 45.3936L39.769 43.7246" stroke="white" stroke-width="0.5"/>
<path d="M34.289 42.1329L35.594 40.4629" stroke="white" stroke-width="0.5"/>
<path opacity="0.6" d="M23.103 73.8021L39.098 44.9181L63.984 53.9541L94.794 39.2891L94.35 70.9861L77.907 92.7631L59.836 74.5411L23.103 73.8021Z" fill="white"/>
</svg>
