<svg width="2798" height="2445" xmlns="http://www.w3.org/2000/svg" xmlns:xlink="http://www.w3.org/1999/xlink" xml:space="preserve" overflow="hidden"><g transform="translate(-4 -12)"><path d="M352 1415.5C352 840.295 818.295 374 1393.5 374 1968.7 374 2435 840.295 2435 1415.5 2435 1990.7 1968.7 2457 1393.5 2457 818.295 2457 352 1990.7 352 1415.5ZM415.572 1415.5C415.572 1955.59 853.405 2393.43 1393.5 2393.43 1933.59 2393.43 2371.43 1955.59 2371.43 1415.5 2371.43 875.405 1933.59 437.572 1393.5 437.572 853.405 437.572 415.572 875.405 415.572 1415.5Z" fill="#7F7F7F" fill-rule="evenodd"/><text font-family="Calibri,Calibri_MSFontService,sans-serif" font-weight="700" font-size="202" transform="matrix(1 0 0 1 1019.16 1241)">Indicator </text><text font-family="Calibri,Calibri_MSFontService,sans-serif" font-weight="700" font-size="202" transform="matrix(1 0 0 1 859.478 1483)">Specification </text><text font-family="Calibri,Calibri_MSFontService,sans-serif" font-weight="700" font-size="202" transform="matrix(1 0 0 1 987.789 1725)">Card (ISC)</text><path d="M974 431.5C974 199.817 1161.82 12 1393.5 12 1625.18 12 1813 199.817 1813 431.5 1813 663.184 1625.18 851 1393.5 851 1161.82 851 974 663.184 974 431.5Z" fill="#F4B183" fill-rule="evenodd"/><path d="M4.00013 1927.5C4.00013 1695.82 191.817 1508 423.5 1508 655.183 1508 843 1695.82 843 1927.5 843 2159.18 655.183 2347 423.5 2347 191.817 2347 4.00013 2159.18 4.00013 1927.5Z" fill="#C5E0B4" fill-rule="evenodd"/><path d="M1943 1927.5C1943 1695.82 2130.82 1508 2362.5 1508 2594.18 1508 2782 1695.82 2782 1927.5 2782 2159.18 2594.18 2347 2362.5 2347 2130.82 2347 1943 2159.18 1943 1927.5Z" fill="#9DC3E6" fill-rule="evenodd"/><text fill="#262626" font-family="Calibri,Calibri_MSFontService,sans-serif" font-weight="700" font-size="147" transform="matrix(1 0 0 1 1261.95 333)">Task </text><text fill="#262626" font-family="Calibri,Calibri_MSFontService,sans-serif" font-weight="700" font-size="147" transform="matrix(1 0 0 1 1042.64 509)">Abstraction</text><text fill="#262626" font-family="Calibri,Calibri_MSFontService,sans-serif" font-weight="700" font-size="147" transform="matrix(1 0 0 1 2220.43 1877)">Data </text><text fill="#262626" font-family="Calibri,Calibri_MSFontService,sans-serif" font-weight="700" font-size="147" transform="matrix(1 0 0 1 2012.15 2053)">Abstraction</text><text fill="#262626" font-family="Calibri,Calibri_MSFontService,sans-serif" font-weight="700" font-size="147" transform="matrix(1 0 0 1 216.433 1877)">Idiom/</text><text fill="#262626" font-family="Calibri,Calibri_MSFontService,sans-serif" font-weight="700" font-size="147" transform="matrix(1 0 0 1 257.958 2053)">Chart</text></g></svg>