<svg width="811" height="720" xmlns="http://www.w3.org/2000/svg" xmlns:xlink="http://www.w3.org/1999/xlink" overflow="hidden"><g><rect x="0" y="0" width="811" height="719.704" fill="#FFFFFF"/><path d="M102 411.825C102 244.555 237.882 108.955 405.5 108.955 573.118 108.955 709 244.555 709 411.825 709 579.095 573.118 714.695 405.5 714.695 237.882 714.695 102 579.095 102 411.825ZM120.495 411.825C120.495 568.885 248.096 696.208 405.5 696.208 562.904 696.208 690.505 568.885 690.505 411.825 690.505 254.765 562.904 127.442 405.5 127.442 248.096 127.442 120.495 254.765 120.495 411.825Z" fill="#7F7F7F" fill-rule="evenodd"/><text font-family="Calibri,Calibri_MSFontService,sans-serif" font-weight="700" font-size="58.6667" transform="matrix(1 0 0 0.999589 296.605 361)">Indicator</text><text font-family="Calibri,Calibri_MSFontService,sans-serif" font-weight="700" font-size="58.6667" transform="matrix(1 0 0 0.999589 250.133 431)">Specification</text><text font-family="Calibri,Calibri_MSFontService,sans-serif" font-weight="700" font-size="58.6667" transform="matrix(1 0 0 0.999589 287.475 502)">Card (ISC)</text><path d="M283 125.448C283 57.8213 337.845 2.99874 405.5 2.99874 473.155 2.99874 528 57.8213 528 125.448 528 193.075 473.155 247.898 405.5 247.898 337.845 247.898 283 193.075 283 125.448Z" fill="#F4B183" fill-rule="evenodd"/><path d="M0.999991 560.769C0.999991 493.418 55.6213 438.82 123 438.82 190.379 438.82 245 493.418 245 560.769 245 628.12 190.379 682.719 123 682.719 55.6213 682.719 0.999991 628.12 0.999991 560.769Z" fill="#C5E0B4" fill-rule="evenodd"/><path d="M566 560.769C566 493.418 620.621 438.82 688 438.82 755.379 438.82 810 493.418 810 560.769 810 628.12 755.379 682.719 688 682.719 620.621 682.719 566 628.12 566 560.769Z" fill="#9DC3E6" fill-rule="evenodd"/><text fill="#262626" font-family="Calibri,Calibri_MSFontService,sans-serif" font-weight="700" font-size="42.6667" transform="matrix(1 0 0 0.999589 367.264 97)">Task</text><text fill="#262626" font-family="Calibri,Calibri_MSFontService,sans-serif" font-weight="700" font-size="42.6667" transform="matrix(1 0 0 0.999589 303.438 148)">Abstraction</text><text fill="#262626" font-family="Calibri,Calibri_MSFontService,sans-serif" font-weight="700" font-size="42.6667" transform="matrix(1 0 0 0.999589 646.21 546)">Data</text><text fill="#262626" font-family="Calibri,Calibri_MSFontService,sans-serif" font-weight="700" font-size="42.6667" transform="matrix(1 0 0 0.999589 585.592 597)">Abstraction</text><text fill="#262626" font-family="Calibri,Calibri_MSFontService,sans-serif" font-weight="700" font-size="42.6667" transform="matrix(1 0 0 0.999589 62.9882 546)">Idiom/</text><text fill="#262626" font-family="Calibri,Calibri_MSFontService,sans-serif" font-weight="700" font-size="42.6667" transform="matrix(1 0 0 0.999589 75.0731 597)">Chart</text></g></svg>