<svg width="4557" height="2096" xmlns="http://www.w3.org/2000/svg" xmlns:xlink="http://www.w3.org/1999/xlink" xml:space="preserve" overflow="hidden"><g transform="translate(-60 -56)"><path d="M2848 102.56C2848 79.607 2866.61 60.9998 2889.56 60.9998L4570.44 60.9998C4593.39 60.9998 4612 79.607 4612 102.56L4612 2105.44C4612 2128.39 4593.39 2147 4570.44 2147L2889.56 2147C2866.61 2147 2848 2128.39 2848 2105.44Z" stroke="#D9D9D9" stroke-width="10.3125" stroke-miterlimit="8" fill="#FFFFFF" fill-rule="evenodd"/><text font-family="Calibri,Calibri_MSFontService,sans-serif" font-weight="700" font-size="74" transform="matrix(1 0 0 1 3283.89 159)">Multi</text><text font-family="Calibri,Calibri_MSFontService,sans-serif" font-weight="700" font-size="74" transform="matrix(1 0 0 1 3450.61 159)">-</text><text font-family="Calibri,Calibri_MSFontService,sans-serif" font-weight="700" font-size="74" transform="matrix(1 0 0 1 3472.95 159)">level Analysis Indicator</text><path d="M1043 102.56C1043 79.607 1061.61 60.9998 1084.56 60.9998L2765.44 60.9998C2788.39 60.9998 2807 79.607 2807 102.56L2807 2105.44C2807 2128.39 2788.39 2147 2765.44 2147L1084.56 2147C1061.61 2147 1043 2128.39 1043 2105.44Z" stroke="#D9D9D9" stroke-width="10.3125" stroke-miterlimit="8" fill="#FFFFFF" fill-rule="evenodd"/><text font-family="Calibri,Calibri_MSFontService,sans-serif" font-weight="700" font-size="74" transform="matrix(1 0 0 1 1615.62 159)">Composite Indicator</text><path d="M65 103.961C65 80.2341 84.2343 60.9998 107.961 60.9998L949.914 60.9998C973.64 60.9998 992.875 80.2341 992.875 103.961L992.875 2104.04C992.875 2127.77 973.64 2147 949.914 2147L107.961 2147C84.2343 2147 65 2127.77 65 2104.04Z" stroke="#D9D9D9" stroke-width="10.3125" stroke-miterlimit="8" fill="#FFFFFF" fill-rule="evenodd"/><text font-family="Calibri,Calibri_MSFontService,sans-serif" font-weight="700" font-size="74" transform="matrix(1 0 0 1 305.385 159)">Basic Indicator</text><path d="M578 287.686C578 273.5 589.5 262 603.686 262L858.314 262C872.5 262 884 273.5 884 287.686L884 1490.31C884 1504.5 872.5 1516 858.314 1516L603.686 1516C589.5 1516 578 1504.5 578 1490.31Z" stroke="#D9D9D9" stroke-width="10.3125" stroke-miterlimit="8" fill="#FFFFFF" fill-rule="evenodd"/><path d="M107 1194 951.488 1194" stroke="#D9D9D9" stroke-width="10.3125" stroke-miterlimit="8" stroke-dasharray="10.3125 10.3125" fill="none" fill-rule="evenodd"/><path d="M107 529 951.488 529" stroke="#D9D9D9" stroke-width="10.3125" stroke-miterlimit="8" stroke-dasharray="10.3125 10.3125" fill="none" fill-rule="evenodd"/><path d="M107 861 951.488 861" stroke="#D9D9D9" stroke-width="10.3125" stroke-miterlimit="8" stroke-dasharray="10.3125 10.3125" fill="none" fill-rule="evenodd"/><g><g><g><path d="M168.09 157.714 31.1278 157.714C26.5624 157.714 22.827 153.979 22.827 149.413L22.827 49.8044C22.827 45.239 26.5624 41.5037 31.1278 41.5037L70.1412 41.5037C71.8014 41.5037 73.4615 41.9187 74.7066 42.9563L97.5336 58.1051 168.09 58.1051C172.655 58.1051 176.391 61.8405 176.391 66.4059L176.391 149.413C176.391 153.979 172.655 157.714 168.09 157.714Z" stroke="#000000" stroke-width="2.7669" fill="#4472C4" transform="matrix(1 0 0 1.00134 655.891 262.758)"/></g></g></g><g><g><g><path d="M168.315 157.925 31.1695 157.925C26.5979 157.925 22.8576 154.185 22.8576 149.613L22.8576 49.8711C22.8576 45.2996 26.5979 41.5593 31.1695 41.5593L70.2352 41.5593C71.8975 41.5593 73.5599 41.9749 74.8067 43.0139L97.6643 58.183 168.315 58.183C172.887 58.183 176.627 61.9233 176.627 66.4948L176.627 149.613C176.627 154.185 172.887 157.925 168.315 157.925Z" stroke="#000000" stroke-width="2.77061" fill="#4472C4" transform="matrix(1.00471 0 0 1 633.788 285.758)"/></g></g></g><g><g><g><path d="M168.09 157.714 31.1278 157.714C26.5624 157.714 22.827 153.979 22.827 149.413L22.827 49.8044C22.827 45.239 26.5624 41.5037 31.1278 41.5037L70.1412 41.5037C71.8014 41.5037 73.4615 41.9187 74.7066 42.9563L97.5336 58.1051 168.09 58.1051C172.655 58.1051 176.391 61.8405 176.391 66.4059L176.391 149.413C176.391 153.979 172.655 157.714 168.09 157.714Z" stroke="#000000" stroke-width="2.7669" fill="#4472C4" transform="matrix(1 0 0 1.00134 612.891 309.758)"/></g></g></g><rect x="107" y="333" width="467" height="123" fill="#FFFFFF"/><text font-family="Calibri,Calibri_MSFontService,sans-serif" font-weight="400" font-size="74" transform="matrix(1 0 0 1 311.362 418)">Dataset</text><g><g><g><path d="M804.833 652.167 663.167 652.167 725.667 714.667 725.667 777.167 725.667 793.833 742.333 777.167 742.333 714.667Z" stroke="#000000" stroke-width="3.65296" fill="#70AD47"/></g></g></g><g><g><g><path d="M757.542 1031.71C748.792 1031.71 741.917 1024.62 741.917 1016.08 741.917 1007.54 749 1000.46 757.542 1000.46 766.292 1000.46 773.167 1007.54 773.167 1016.08 773.167 1024.62 766.083 1031.71 757.542 1031.71ZM792.75 1006.29C791.917 1003.37 790.875 1000.67 789.417 998.167L792.75 988.375 785.25 980.875 775.458 984.208C772.958 982.75 770.25 981.708 767.333 980.875L762.75 971.708 752.333 971.708 747.75 980.875C744.833 981.708 742.125 982.75 739.625 984.208L729.833 980.875 722.333 988.375 725.667 998.167C724.208 1000.67 723.167 1003.37 722.333 1006.29L713.167 1010.87 713.167 1021.29 722.333 1025.87C723.167 1028.79 724.208 1031.5 725.667 1034L722.333 1043.79 729.625 1051.08 739.417 1047.75C741.917 1049.21 744.625 1050.25 747.542 1051.08L752.125 1060.25 762.542 1060.25 767.125 1051.08C770.042 1050.25 772.75 1049.21 775.25 1047.75L785.042 1051.08 792.542 1043.79 789.208 1034C790.667 1031.5 791.917 1028.58 792.75 1025.87L801.917 1021.29 801.917 1010.87 792.75 1006.29Z" stroke="#000000" stroke-width="3.65296" fill="#FFC000"/><path d="M710.458 1107.54C701.708 1107.54 694.833 1100.46 694.833 1091.92 694.833 1083.17 701.917 1076.29 710.458 1076.29 719.208 1076.29 726.083 1083.37 726.083 1091.92 726.083 1100.46 719.208 1107.54 710.458 1107.54L710.458 1107.54ZM742.333 1074 745.667 1064.21 738.167 1056.71 728.375 1060.04C725.875 1058.58 722.958 1057.54 720.25 1056.71L715.667 1047.54 705.25 1047.54 700.667 1056.71C697.75 1057.54 695.042 1058.58 692.542 1060.04L682.75 1056.71 675.458 1064 678.583 1073.79C677.125 1076.29 676.083 1079.21 675.25 1081.92L666.083 1086.5 666.083 1096.92 675.25 1101.5C676.083 1104.42 677.125 1107.12 678.583 1109.62L675.458 1119.42 682.75 1126.71 692.542 1123.58C695.042 1125.04 697.75 1126.08 700.667 1126.92L705.25 1136.08 715.667 1136.08 720.25 1126.92C723.167 1126.08 725.875 1125.04 728.375 1123.58L738.167 1126.92 745.458 1119.42 742.333 1109.83C743.792 1107.33 744.833 1104.62 745.667 1101.71L754.833 1097.12 754.833 1086.71 745.667 1082.12C744.833 1079.21 743.792 1076.5 742.333 1074Z" stroke="#000000" stroke-width="3.65296" fill="#FFC000"/></g></g></g><rect x="107" y="661" width="467" height="123" fill="#FFFFFF"/><text font-family="Calibri,Calibri_MSFontService,sans-serif" font-weight="400" font-size="74" transform="matrix(1 0 0 1 358.433 747)">Filters</text><rect x="107" y="993" width="467" height="122" fill="#FFFFFF"/><text font-family="Calibri,Calibri_MSFontService,sans-serif" font-weight="400" font-size="74" transform="matrix(1 0 0 1 298.62 1078)">Analysis</text><path d="M760.75 503.5 760.75 554 786.5 554 735 604.5 683.5 554 709.25 554 709.25 503.5Z" stroke="#AE5A21" stroke-width="4.58333" stroke-miterlimit="8" fill="#ED7D31" fill-rule="evenodd"/><path d="M760.75 834.5 760.75 885 786.5 885 735 935.5 683.5 885 709.25 885 709.25 834.5Z" stroke="#AE5A21" stroke-width="4.58333" stroke-miterlimit="8" fill="#ED7D31" fill-rule="evenodd"/><path d="M760.75 1168.5 760.75 1218.5 786.5 1218.5 735 1268.5 683.5 1218.5 709.25 1218.5 709.25 1168.5Z" stroke="#AE5A21" stroke-width="4.58333" stroke-miterlimit="8" fill="#ED7D31" fill-rule="evenodd"/><g><g><g><path d="M792.333 1327.83 792.333 1402.83 675.667 1402.83 675.667 1327.83ZM809 1407 804.833 1407 804.833 1321.58 809 1321.58C811.301 1321.58 813.167 1319.72 813.167 1317.42 813.167 1315.12 811.301 1313.25 809 1313.25L738.167 1313.25 738.167 1309.08C738.167 1306.78 736.301 1304.92 734 1304.92 731.699 1304.92 729.833 1306.78 729.833 1309.08L729.833 1313.25 659 1313.25C656.699 1313.25 654.833 1315.12 654.833 1317.42 654.833 1319.72 656.699 1321.58 659 1321.58L663.167 1321.58 663.167 1407 659 1407C656.699 1407 654.833 1408.87 654.833 1411.17 654.833 1413.47 656.699 1415.33 659 1415.33L722.625 1415.33 690.542 1447.42C688.913 1449.06 688.927 1451.72 690.573 1453.34 692.218 1454.97 694.872 1454.96 696.5 1453.31L729.833 1419.98 729.833 1457C729.833 1459.3 731.699 1461.17 734 1461.17 736.301 1461.17 738.167 1459.3 738.167 1457L738.167 1419.92 771.5 1453.25C773.128 1454.88 775.768 1454.88 777.396 1453.25 779.024 1451.62 779.024 1448.98 777.396 1447.35L745.375 1415.33 809 1415.33C811.301 1415.33 813.167 1413.47 813.167 1411.17 813.167 1408.87 811.301 1407 809 1407Z" fill="#002060"/><path d="M750.667 1336.17 767.333 1336.17 767.333 1394.5 750.667 1394.5Z" fill="#002060"/><path d="M725.667 1354.92 742.333 1354.92 742.333 1394.5 725.667 1394.5Z" fill="#002060"/><path d="M700.667 1369.5 717.333 1369.5 717.333 1394.5 700.667 1394.5Z" fill="#002060"/></g></g></g><rect x="107" y="1319" width="467" height="123" fill="#FFFFFF"/><text font-family="Calibri,Calibri_MSFontService,sans-serif" font-weight="400" font-size="74" transform="matrix(1 0 0 1 161.212 1405)">Visualization</text><path d="M1180 1210 2769.14 1210" stroke="#D9D9D9" stroke-width="10.3125" stroke-miterlimit="8" stroke-dasharray="10.3125 10.3125" fill="none" fill-rule="evenodd"/><path d="M2379 266.206C2379 253.942 2388.94 244 2401.21 244L2699.79 244C2712.06 244 2722 253.942 2722 266.206L2722 1137.79C2722 1150.06 2712.06 1160 2699.79 1160L2401.21 1160C2388.94 1160 2379 1150.06 2379 1137.79Z" stroke="#D9D9D9" stroke-width="10.3125" stroke-miterlimit="8" fill="#FFFFFF" fill-rule="evenodd"/><path d="M1538 272.658C1538 256.831 1550.83 244 1566.66 244L2214.34 244C2230.17 244 2243 256.831 2243 272.658L2243 1131.34C2243 1147.17 2230.17 1160 2214.34 1160L1566.66 1160C1550.83 1160 1538 1147.17 1538 1131.34Z" stroke="#D9D9D9" stroke-width="10.3125" stroke-miterlimit="8" fill="#FFFFFF" fill-rule="evenodd"/><g><g><g><path d="M168.09 157.714 31.1278 157.714C26.5624 157.714 22.827 153.979 22.827 149.413L22.827 49.8044C22.827 45.239 26.5624 41.5037 31.1278 41.5037L70.1412 41.5037C71.8014 41.5037 73.4615 41.9187 74.7066 42.9563L97.5336 58.1051 168.09 58.1051C172.655 58.1051 176.391 61.8405 176.391 66.4059L176.391 149.413C176.391 153.979 172.655 157.714 168.09 157.714Z" stroke="#000000" stroke-width="2.7669" fill="#4472C4" transform="matrix(1 0 0 1.00134 1618.89 238.758)"/></g></g></g><g><g><g><path d="M169.109 158.67 31.3164 158.67C26.7233 158.67 22.9654 154.912 22.9654 150.319L22.9654 50.1063C22.9654 45.5132 26.7233 41.7552 31.3164 41.7552L70.5663 41.7552C72.2365 41.7552 73.9067 42.1728 75.1594 43.2166L98.1248 58.4573 169.109 58.4573C173.702 58.4573 177.46 62.2153 177.46 66.8083L177.46 150.319C177.46 154.912 173.702 158.67 169.109 158.67Z" stroke="#000000" stroke-width="2.78367" fill="#4472C4" transform="matrix(1 0 0 1.00314 1596.79 261.472)"/></g></g></g><g><g><g><path d="M168.09 157.714 31.1278 157.714C26.5624 157.714 22.827 153.979 22.827 149.413L22.827 49.8044C22.827 45.239 26.5624 41.5037 31.1278 41.5037L70.1412 41.5037C71.8014 41.5037 73.4615 41.9187 74.7066 42.9563L97.5336 58.1051 168.09 58.1051C172.655 58.1051 176.391 61.8405 176.391 66.4059L176.391 149.413C176.391 153.979 172.655 157.714 168.09 157.714Z" stroke="#000000" stroke-width="2.7669" fill="#4472C4" transform="matrix(1 0 0 1.00134 1575.89 285.758)"/></g></g></g><g><g><g><path d="M168.09 157.714 31.1278 157.714C26.5624 157.714 22.827 153.979 22.827 149.413L22.827 49.8044C22.827 45.239 26.5624 41.5037 31.1278 41.5037L70.1412 41.5037C71.8014 41.5037 73.4615 41.9187 74.7066 42.9563L97.5336 58.1051 168.09 58.1051C172.655 58.1051 176.391 61.8405 176.391 66.4059L176.391 149.413C176.391 153.979 172.655 157.714 168.09 157.714Z" stroke="#000000" stroke-width="2.7669" fill="#4472C4" transform="matrix(1 0 0 1.00134 1961.89 238.758)"/></g></g></g><g><g><g><path d="M169.109 158.67 31.3164 158.67C26.7233 158.67 22.9654 154.912 22.9654 150.319L22.9654 50.1063C22.9654 45.5132 26.7233 41.7552 31.3164 41.7552L70.5663 41.7552C72.2365 41.7552 73.9067 42.1728 75.1594 43.2166L98.1248 58.4573 169.109 58.4573C173.702 58.4573 177.46 62.2153 177.46 66.8083L177.46 150.319C177.46 154.912 173.702 158.67 169.109 158.67Z" stroke="#000000" stroke-width="2.78367" fill="#4472C4" transform="matrix(1 0 0 1.00314 1939.79 261.472)"/></g></g></g><g><g><g><path d="M168.09 157.714 31.1278 157.714C26.5624 157.714 22.827 153.979 22.827 149.413L22.827 49.8044C22.827 45.239 26.5624 41.5037 31.1278 41.5037L70.1412 41.5037C71.8014 41.5037 73.4615 41.9187 74.7066 42.9563L97.5336 58.1051 168.09 58.1051C172.655 58.1051 176.391 61.8405 176.391 66.4059L176.391 149.413C176.391 153.979 172.655 157.714 168.09 157.714Z" stroke="#000000" stroke-width="2.7669" fill="#4472C4" transform="matrix(1 0 0 1.00134 1918.89 285.758)"/></g></g></g><g><g><g><path d="M168.315 157.925 31.1695 157.925C26.5979 157.925 22.8576 154.185 22.8576 149.613L22.8576 49.8711C22.8576 45.2996 26.5979 41.5593 31.1695 41.5593L70.2352 41.5593C71.8975 41.5593 73.5599 41.9749 74.8067 43.0139L97.6643 58.183 168.315 58.183C172.887 58.183 176.627 61.9233 176.627 66.4948L176.627 149.613C176.627 154.185 172.887 157.925 168.315 157.925Z" stroke="#000000" stroke-width="2.77061" fill="#4472C4" transform="matrix(1.00471 0 0 1 2471.79 238.758)"/></g></g></g><g><g><g><path d="M168.09 157.714 31.1278 157.714C26.5624 157.714 22.827 153.979 22.827 149.413L22.827 49.8044C22.827 45.239 26.5624 41.5037 31.1278 41.5037L70.1412 41.5037C71.8014 41.5037 73.4615 41.9187 74.7066 42.9563L97.5336 58.1051 168.09 58.1051C172.655 58.1051 176.391 61.8405 176.391 66.4059L176.391 149.413C176.391 153.979 172.655 157.714 168.09 157.714Z" stroke="#000000" stroke-width="2.7669" fill="#4472C4" transform="matrix(1 0 0 1.00922 2450.89 261.472)"/></g></g></g><g><g><g><path d="M168.315 157.925 31.1695 157.925C26.5979 157.925 22.8576 154.185 22.8576 149.613L22.8576 49.8711C22.8576 45.2996 26.5979 41.5593 31.1695 41.5593L70.2352 41.5593C71.8975 41.5593 73.5599 41.9749 74.8067 43.0139L97.6643 58.183 168.315 58.183C172.887 58.183 176.627 61.9233 176.627 66.4948L176.627 149.613C176.627 154.185 172.887 157.925 168.315 157.925Z" stroke="#000000" stroke-width="2.77061" fill="#4472C4" transform="matrix(1.00471 0 0 1 2428.79 285.758)"/></g></g></g><rect x="1137" y="309" width="396" height="123" fill="#FFFFFF"/><text font-family="Calibri,Calibri_MSFontService,sans-serif" font-weight="400" font-size="74" transform="matrix(1 0 0 1 1271.31 394)">Dataset</text><path d="M1180 529 2769.14 529" stroke="#D9D9D9" stroke-width="10.3125" stroke-miterlimit="8" stroke-dasharray="10.3125 10.3125" fill="none" fill-rule="evenodd"/><g><g><g><path d="M1767.83 652.167 1626.17 652.167 1688.67 714.667 1688.67 777.167 1688.67 793.833 1705.33 777.167 1705.33 714.667Z" stroke="#000000" stroke-width="3.65296" fill="#70AD47"/></g></g></g><g><g><g><path d="M170.833 29.1666 29.1666 29.1666 91.6665 91.6665 91.6665 154.166 91.6665 170.833 108.333 154.166 108.333 91.6665Z" stroke="#000000" stroke-width="3.65295" fill="#70AD47" transform="matrix(1 0 0 1 1940 623)"/></g></g></g><g><g><g><path d="M2621.83 652.167 2480.17 652.167 2542.67 714.667 2542.67 777.167 2542.67 793.833 2559.33 777.167 2559.33 714.667Z" stroke="#000000" stroke-width="3.65296" fill="#70AD47"/></g></g></g><path d="M1180 861 2769.14 861" stroke="#D9D9D9" stroke-width="10.3125" stroke-miterlimit="8" stroke-dasharray="10.3125 10.3125" fill="none" fill-rule="evenodd"/><g><g><g><path d="M1720.54 1031.71C1711.79 1031.71 1704.92 1024.62 1704.92 1016.08 1704.92 1007.54 1712 1000.46 1720.54 1000.46 1729.29 1000.46 1736.17 1007.54 1736.17 1016.08 1736.17 1024.62 1729.08 1031.71 1720.54 1031.71ZM1755.75 1006.29C1754.92 1003.37 1753.88 1000.67 1752.42 998.167L1755.75 988.375 1748.25 980.875 1738.46 984.208C1735.96 982.75 1733.25 981.708 1730.33 980.875L1725.75 971.708 1715.33 971.708 1710.75 980.875C1707.83 981.708 1705.13 982.75 1702.63 984.208L1692.83 980.875 1685.33 988.375 1688.67 998.167C1687.21 1000.67 1686.17 1003.37 1685.33 1006.29L1676.17 1010.87 1676.17 1021.29 1685.33 1025.87C1686.17 1028.79 1687.21 1031.5 1688.67 1034L1685.33 1043.79 1692.63 1051.08 1702.42 1047.75C1704.92 1049.21 1707.63 1050.25 1710.54 1051.08L1715.13 1060.25 1725.54 1060.25 1730.13 1051.08C1733.04 1050.25 1735.75 1049.21 1738.25 1047.75L1748.04 1051.08 1755.54 1043.79 1752.21 1034C1753.67 1031.5 1754.92 1028.58 1755.75 1025.87L1764.92 1021.29 1764.92 1010.87 1755.75 1006.29Z" stroke="#000000" stroke-width="3.65296" fill="#FFC000"/><path d="M1673.46 1107.54C1664.71 1107.54 1657.83 1100.46 1657.83 1091.92 1657.83 1083.17 1664.92 1076.29 1673.46 1076.29 1682.21 1076.29 1689.08 1083.37 1689.08 1091.92 1689.08 1100.46 1682.21 1107.54 1673.46 1107.54L1673.46 1107.54ZM1705.33 1074 1708.67 1064.21 1701.17 1056.71 1691.38 1060.04C1688.88 1058.58 1685.96 1057.54 1683.25 1056.71L1678.67 1047.54 1668.25 1047.54 1663.67 1056.71C1660.75 1057.54 1658.04 1058.58 1655.54 1060.04L1645.75 1056.71 1638.46 1064 1641.58 1073.79C1640.13 1076.29 1639.08 1079.21 1638.25 1081.92L1629.08 1086.5 1629.08 1096.92 1638.25 1101.5C1639.08 1104.42 1640.13 1107.12 1641.58 1109.62L1638.46 1119.42 1645.75 1126.71 1655.54 1123.58C1658.04 1125.04 1660.75 1126.08 1663.67 1126.92L1668.25 1136.08 1678.67 1136.08 1683.25 1126.92C1686.17 1126.08 1688.88 1125.04 1691.38 1123.58L1701.17 1126.92 1708.46 1119.42 1705.33 1109.83C1706.79 1107.33 1707.83 1104.62 1708.67 1101.71L1717.83 1097.12 1717.83 1086.71 1708.67 1082.12C1707.83 1079.21 1706.79 1076.5 1705.33 1074Z" stroke="#000000" stroke-width="3.65296" fill="#FFC000"/></g></g></g><g><g><g><path d="M123.541 77.7082C114.791 77.7082 107.917 70.6249 107.917 62.0832 107.917 53.5416 115 46.4583 123.541 46.4583 132.291 46.4583 139.166 53.5416 139.166 62.0832 139.166 70.6249 132.083 77.7082 123.541 77.7082ZM158.75 52.2916C157.916 49.3749 156.875 46.6666 155.416 44.1666L158.75 34.3749 151.25 26.875 141.458 30.2083C138.958 28.75 136.25 27.7083 133.333 26.875L128.75 17.7083 118.333 17.7083 113.75 26.875C110.833 27.7083 108.125 28.75 105.625 30.2083L95.8332 26.875 88.3332 34.3749 91.6665 44.1666C90.2082 46.6666 89.1665 49.3749 88.3332 52.2916L79.1665 56.8749 79.1665 67.2916 88.3332 71.8749C89.1665 74.7916 90.2082 77.4999 91.6665 79.9999L88.3332 89.7915 95.6249 97.0832 105.417 93.7499C107.917 95.2082 110.625 96.2499 113.541 97.0832L118.125 106.25 128.541 106.25 133.125 97.0832C136.041 96.2499 138.75 95.2082 141.25 93.7499L151.041 97.0832 158.541 89.7915 155.208 79.9999C156.666 77.4999 157.916 74.5832 158.75 71.8749L167.916 67.2916 167.916 56.8749 158.75 52.2916Z" stroke="#000000" stroke-width="3.65295" fill="#FFC000" transform="matrix(1 0 0 1 1940 954)"/><path d="M76.4582 153.541C67.7082 153.541 60.8332 146.458 60.8332 137.916 60.8332 129.166 67.9166 122.291 76.4582 122.291 85.2082 122.291 92.0832 129.375 92.0832 137.916 92.0832 146.458 85.2082 153.541 76.4582 153.541L76.4582 153.541ZM108.333 120 111.666 110.208 104.167 102.708 94.3749 106.042C91.8749 104.583 88.9582 103.542 86.2499 102.708L81.6665 93.5415 71.2499 93.5415 66.6666 102.708C63.7499 103.542 61.0416 104.583 58.5416 106.042L48.7499 102.708 41.4583 110 44.5833 119.791C43.1249 122.291 42.0833 125.208 41.2499 127.916L32.0833 132.5 32.0833 142.916 41.2499 147.5C42.0833 150.416 43.1249 153.125 44.5833 155.625L41.4583 165.416 48.7499 172.708 58.5416 169.583C61.0416 171.041 63.7499 172.083 66.6666 172.916L71.2499 182.083 81.6665 182.083 86.2499 172.916C89.1665 172.083 91.8749 171.041 94.3749 169.583L104.167 172.916 111.458 165.416 108.333 155.833C109.792 153.333 110.833 150.625 111.666 147.708L120.833 143.125 120.833 132.708 111.666 128.125C110.833 125.208 109.792 122.5 108.333 120Z" stroke="#000000" stroke-width="3.65295" fill="#FFC000" transform="matrix(1 0 0 1 1940 954)"/></g></g></g><g><g><g><path d="M2574.54 1031.71C2565.79 1031.71 2558.92 1024.62 2558.92 1016.08 2558.92 1007.54 2566 1000.46 2574.54 1000.46 2583.29 1000.46 2590.17 1007.54 2590.17 1016.08 2590.17 1024.62 2583.08 1031.71 2574.54 1031.71ZM2609.75 1006.29C2608.92 1003.37 2607.88 1000.67 2606.42 998.167L2609.75 988.375 2602.25 980.875 2592.46 984.208C2589.96 982.75 2587.25 981.708 2584.33 980.875L2579.75 971.708 2569.33 971.708 2564.75 980.875C2561.83 981.708 2559.12 982.75 2556.62 984.208L2546.83 980.875 2539.33 988.375 2542.67 998.167C2541.21 1000.67 2540.17 1003.37 2539.33 1006.29L2530.17 1010.87 2530.17 1021.29 2539.33 1025.87C2540.17 1028.79 2541.21 1031.5 2542.67 1034L2539.33 1043.79 2546.62 1051.08 2556.42 1047.75C2558.92 1049.21 2561.62 1050.25 2564.54 1051.08L2569.12 1060.25 2579.54 1060.25 2584.12 1051.08C2587.04 1050.25 2589.75 1049.21 2592.25 1047.75L2602.04 1051.08 2609.54 1043.79 2606.21 1034C2607.67 1031.5 2608.92 1028.58 2609.75 1025.87L2618.92 1021.29 2618.92 1010.87 2609.75 1006.29Z" stroke="#000000" stroke-width="3.65296" fill="#FFC000"/><path d="M2527.46 1107.54C2518.71 1107.54 2511.83 1100.46 2511.83 1091.92 2511.83 1083.17 2518.92 1076.29 2527.46 1076.29 2536.21 1076.29 2543.08 1083.37 2543.08 1091.92 2543.08 1100.46 2536.21 1107.54 2527.46 1107.54L2527.46 1107.54ZM2559.33 1074 2562.67 1064.21 2555.17 1056.71 2545.38 1060.04C2542.88 1058.58 2539.96 1057.54 2537.25 1056.71L2532.67 1047.54 2522.25 1047.54 2517.67 1056.71C2514.75 1057.54 2512.04 1058.58 2509.54 1060.04L2499.75 1056.71 2492.46 1064 2495.58 1073.79C2494.12 1076.29 2493.08 1079.21 2492.25 1081.92L2483.08 1086.5 2483.08 1096.92 2492.25 1101.5C2493.08 1104.42 2494.12 1107.12 2495.58 1109.62L2492.46 1119.42 2499.75 1126.71 2509.54 1123.58C2512.04 1125.04 2514.75 1126.08 2517.67 1126.92L2522.25 1136.08 2532.67 1136.08 2537.25 1126.92C2540.17 1126.08 2542.88 1125.04 2545.38 1123.58L2555.17 1126.92 2562.46 1119.42 2559.33 1109.83C2560.79 1107.33 2561.83 1104.62 2562.67 1101.71L2571.83 1097.12 2571.83 1086.71 2562.67 1082.12C2561.83 1079.21 2560.79 1076.5 2559.33 1074Z" stroke="#000000" stroke-width="3.65296" fill="#FFC000"/></g></g></g><rect x="1115" y="661" width="418" height="123" fill="#FFFFFF"/><text font-family="Calibri,Calibri_MSFontService,sans-serif" font-weight="400" font-size="74" transform="matrix(1 0 0 1 1318.52 747)">Filters</text><rect x="1107" y="993" width="426" height="122" fill="#FFFFFF"/><text font-family="Calibri,Calibri_MSFontService,sans-serif" font-weight="400" font-size="74" transform="matrix(1 0 0 1 1258.21 1078)">Analysis</text><path d="M1722.75 503.5 1722.75 554 1748.5 554 1697 604.5 1645.5 554 1671.25 554 1671.25 503.5Z" stroke="#AE5A21" stroke-width="4.58333" stroke-miterlimit="8" fill="#ED7D31" fill-rule="evenodd"/><path d="M1722.75 834.5 1722.75 885 1748.5 885 1697 935.5 1645.5 885 1671.25 885 1671.25 834.5Z" stroke="#AE5A21" stroke-width="4.58333" stroke-miterlimit="8" fill="#ED7D31" fill-rule="evenodd"/><path d="M1722.75 1184.5 1722.75 1234.5 1748.5 1234.5 1697 1284.5 1645.5 1234.5 1671.25 1234.5 1671.25 1184.5Z" stroke="#AE5A21" stroke-width="4.58333" stroke-miterlimit="8" fill="#ED7D31" fill-rule="evenodd"/><path d="M2065.75 1184.5 2065.75 1234.5 2091.5 1234.5 2040 1284.5 1988.5 1234.5 2014.25 1234.5 2014.25 1184.5Z" stroke="#AE5A21" stroke-width="4.58333" stroke-miterlimit="8" fill="#ED7D31" fill-rule="evenodd"/><path d="M2576.75 1184.5 2576.75 1234.5 2602.5 1234.5 2551 1284.5 2499.5 1234.5 2525.25 1234.5 2525.25 1184.5Z" stroke="#AE5A21" stroke-width="4.58333" stroke-miterlimit="8" fill="#ED7D31" fill-rule="evenodd"/><path d="M2065.75 503.5 2065.75 554 2091.5 554 2040 604.5 1988.5 554 2014.25 554 2014.25 503.5Z" stroke="#AE5A21" stroke-width="4.58333" stroke-miterlimit="8" fill="#ED7D31" fill-rule="evenodd"/><path d="M2065.75 834.5 2065.75 885 2091.5 885 2040 935.5 1988.5 885 2014.25 885 2014.25 834.5Z" stroke="#AE5A21" stroke-width="4.58333" stroke-miterlimit="8" fill="#ED7D31" fill-rule="evenodd"/><path d="M2576.75 503.5 2576.75 554 2602.5 554 2551 604.5 2499.5 554 2525.25 554 2525.25 503.5Z" stroke="#AE5A21" stroke-width="4.58333" stroke-miterlimit="8" fill="#ED7D31" fill-rule="evenodd"/><path d="M2576.75 834.5 2576.75 885 2602.5 885 2551 935.5 2499.5 885 2525.25 885 2525.25 834.5Z" stroke="#AE5A21" stroke-width="4.58333" stroke-miterlimit="8" fill="#ED7D31" fill-rule="evenodd"/><rect x="1081" y="1337" width="452" height="123" fill="#FFFFFF"/><text font-family="Calibri,Calibri_MSFontService,sans-serif" font-weight="400" font-size="74" transform="matrix(1 0 0 1 1230.57 1423)">Combine</text><path d="M1180 1534 2769.14 1534" stroke="#D9D9D9" stroke-width="10.3125" stroke-miterlimit="8" stroke-dasharray="10.3125 10.3125" fill="none" fill-rule="evenodd"/><g><g><g><path d="M158.333 45.8333 158.333 120.833 41.6666 120.833 41.6666 45.8333ZM175 125 170.833 125 170.833 39.5833 175 39.5833C177.301 39.5833 179.166 37.7179 179.166 35.4166 179.166 33.1154 177.301 31.25 175 31.25L104.167 31.25 104.167 27.0833C104.167 24.782 102.301 22.9166 99.9998 22.9166 97.6986 22.9166 95.8332 24.782 95.8332 27.0833L95.8332 31.25 25 31.25C22.6987 31.25 20.8333 33.1154 20.8333 35.4166 20.8333 37.7179 22.6987 39.5833 25 39.5833L29.1666 39.5833 29.1666 125 25 125C22.6987 125 20.8333 126.865 20.8333 129.166 20.8333 131.468 22.6987 133.333 25 133.333L88.6249 133.333 56.5416 165.416C54.9135 167.062 54.9274 169.715 56.5728 171.343 58.2182 172.972 60.8718 172.958 62.4999 171.312L95.8332 137.979 95.8332 175C95.8332 177.301 97.6986 179.166 99.9998 179.166 102.301 179.166 104.167 177.301 104.167 175L104.167 137.916 137.5 171.25C139.128 172.878 141.767 172.878 143.396 171.25 145.024 169.622 145.024 166.982 143.396 165.354L111.375 133.333 175 133.333C177.301 133.333 179.166 131.468 179.166 129.166 179.166 126.865 177.301 125 175 125Z" fill="#002060" transform="matrix(1 0 0 1 1946 1611)"/><path d="M116.666 54.1666 133.333 54.1666 133.333 112.5 116.666 112.5Z" fill="#002060" transform="matrix(1 0 0 1 1946 1611)"/><path d="M91.6665 72.9166 108.333 72.9166 108.333 112.5 91.6665 112.5Z" fill="#002060" transform="matrix(1 0 0 1 1946 1611)"/><path d="M66.6666 87.4999 83.3332 87.4999 83.3332 112.5 66.6666 112.5Z" fill="#002060" transform="matrix(1 0 0 1 1946 1611)"/></g></g></g><path d="M2065.75 1509.5 2065.75 1559.5 2091.5 1559.5 2040 1609.5 1988.5 1559.5 2014.25 1559.5 2014.25 1509.5Z" stroke="#AE5A21" stroke-width="4.58333" stroke-miterlimit="8" fill="#ED7D31" fill-rule="evenodd"/><rect x="1081" y="1650" width="452" height="123" fill="#FFFFFF"/><text font-family="Calibri,Calibri_MSFontService,sans-serif" font-weight="400" font-size="74" transform="matrix(1 0 0 1 1120.77 1735)">Visualization</text><text font-family="Calibri,Calibri_MSFontService,sans-serif" font-weight="400" font-size="74" transform="matrix(1 0 0 1 1765.23 498)">DS</text><text font-family="Calibri,Calibri_MSFontService,sans-serif" font-weight="400" font-size="49" transform="matrix(1 0 0 1 1844.29 515)">1</text><text font-family="Calibri,Calibri_MSFontService,sans-serif" font-weight="400" font-size="74" transform="matrix(1 0 0 1 2103.77 498)">DS</text><text font-family="Calibri,Calibri_MSFontService,sans-serif" font-weight="400" font-size="49" transform="matrix(1 0 0 1 2182.83 515)">2</text><text font-family="Calibri,Calibri_MSFontService,sans-serif" font-weight="400" font-size="74" transform="matrix(1 0 0 1 2613.01 498)">DS</text><text font-family="Calibri,Calibri_MSFontService,sans-serif" font-weight="400" font-size="49" transform="matrix(1 0 0 1 2692.08 515)">n</text><text font-family="Calibri,Calibri_MSFontService,sans-serif" font-weight="400" font-size="74" transform="matrix(1 0 0 1 1776.02 834)">F</text><text font-family="Calibri,Calibri_MSFontService,sans-serif" font-weight="400" font-size="49" transform="matrix(1 0 0 1 1809.82 851)">1</text><text font-family="Calibri,Calibri_MSFontService,sans-serif" font-weight="400" font-size="74" transform="matrix(1 0 0 1 2114.55 834)">F</text><text font-family="Calibri,Calibri_MSFontService,sans-serif" font-weight="400" font-size="49" transform="matrix(1 0 0 1 2148.36 851)">2</text><text font-family="Calibri,Calibri_MSFontService,sans-serif" font-weight="400" font-size="74" transform="matrix(1 0 0 1 2623.74 834)">F</text><text font-family="Calibri,Calibri_MSFontService,sans-serif" font-weight="400" font-size="49" transform="matrix(1 0 0 1 2657.55 851)">n</text><text font-family="Calibri,Calibri_MSFontService,sans-serif" font-weight="400" font-size="74" transform="matrix(1 0 0 1 1771.43 1136)">A</text><text font-family="Calibri,Calibri_MSFontService,sans-serif" font-weight="400" font-size="49" transform="matrix(1 0 0 1 1814.4 1153)">1</text><text font-family="Calibri,Calibri_MSFontService,sans-serif" font-weight="400" font-size="74" transform="matrix(1 0 0 1 2109.97 1136)">A</text><text font-family="Calibri,Calibri_MSFontService,sans-serif" font-weight="400" font-size="49" transform="matrix(1 0 0 1 2152.94 1153)">1</text><text font-family="Calibri,Calibri_MSFontService,sans-serif" font-weight="400" font-size="74" transform="matrix(1 0 0 1 2619.45 1136)">A</text><text font-family="Calibri,Calibri_MSFontService,sans-serif" font-weight="400" font-size="49" transform="matrix(1 0 0 1 2662.42 1153)">1</text><path d="M1635.6 1307.15 2652.57 1307.15 2652.57 1352.96 1635.6 1352.96Z" fill="#A5A5A5" fill-rule="evenodd"/><path d="M1635.6 1352.96 2652.57 1352.96 2652.57 1398.77 1635.6 1398.77Z" fill="#E1E1E1" fill-rule="evenodd"/><path d="M1635.6 1398.77 2652.57 1398.77 2652.57 1444.58 1635.6 1444.58Z" fill="#F0F0F0" fill-rule="evenodd"/><path d="M1635.6 1444.58 2652.57 1444.58 2652.57 1490.4 1635.6 1490.4Z" fill="#E1E1E1" fill-rule="evenodd"/><path d="M1633.3 1352.96 2654.87 1352.96" stroke="#FFFFFF" stroke-width="13.75" stroke-linejoin="round" stroke-miterlimit="10" fill="none" fill-rule="evenodd"/><path d="M1633.3 1398.77 2654.87 1398.77" stroke="#FFFFFF" stroke-width="4.58333" stroke-linejoin="round" stroke-miterlimit="10" fill="none" fill-rule="evenodd"/><path d="M1633.3 1444.58 2654.87 1444.58" stroke="#FFFFFF" stroke-width="4.58333" stroke-linejoin="round" stroke-miterlimit="10" fill="none" fill-rule="evenodd"/><path d="M1635.6 1304.85 1635.6 1492.69" stroke="#FFFFFF" stroke-width="4.58333" stroke-linejoin="round" stroke-miterlimit="10" fill="none" fill-rule="evenodd"/><path d="M2652.57 1304.85 2652.57 1492.69" stroke="#FFFFFF" stroke-width="4.58333" stroke-linejoin="round" stroke-miterlimit="10" fill="none" fill-rule="evenodd"/><path d="M1633.3 1307.15 2654.87 1307.15" stroke="#FFFFFF" stroke-width="4.58333" stroke-linejoin="round" stroke-miterlimit="10" fill="none" fill-rule="evenodd"/><path d="M1633.3 1490.4 2654.87 1490.4" stroke="#FFFFFF" stroke-width="4.58333" stroke-linejoin="round" stroke-miterlimit="10" fill="none" fill-rule="evenodd"/><path d="M2269.5 362.5C2269.5 358.082 2272.86 354.5 2277 354.5 2281.14 354.5 2284.5 358.082 2284.5 362.5 2284.5 366.918 2281.14 370.5 2277 370.5 2272.86 370.5 2269.5 366.918 2269.5 362.5Z" stroke="#000000" stroke-width="4.58333" stroke-miterlimit="8" fill-rule="evenodd"/><path d="M2294.5 362.5C2294.5 358.082 2297.86 354.5 2302 354.5 2306.14 354.5 2309.5 358.082 2309.5 362.5 2309.5 366.918 2306.14 370.5 2302 370.5 2297.86 370.5 2294.5 366.918 2294.5 362.5Z" stroke="#000000" stroke-width="4.58333" stroke-miterlimit="8" fill-rule="evenodd"/><path d="M2319.5 362.5C2319.5 358.082 2323.08 354.5 2327.5 354.5 2331.92 354.5 2335.5 358.082 2335.5 362.5 2335.5 366.918 2331.92 370.5 2327.5 370.5 2323.08 370.5 2319.5 366.918 2319.5 362.5Z" stroke="#000000" stroke-width="4.58333" stroke-miterlimit="8" fill-rule="evenodd"/><path d="M2269.5 699.5C2269.5 695.082 2272.86 691.5 2277 691.5 2281.14 691.5 2284.5 695.082 2284.5 699.5 2284.5 703.918 2281.14 707.5 2277 707.5 2272.86 707.5 2269.5 703.918 2269.5 699.5Z" stroke="#000000" stroke-width="4.58333" stroke-miterlimit="8" fill-rule="evenodd"/><path d="M2294.5 699.5C2294.5 695.082 2297.86 691.5 2302 691.5 2306.14 691.5 2309.5 695.082 2309.5 699.5 2309.5 703.918 2306.14 707.5 2302 707.5 2297.86 707.5 2294.5 703.918 2294.5 699.5Z" stroke="#000000" stroke-width="4.58333" stroke-miterlimit="8" fill-rule="evenodd"/><path d="M2319.5 699.5C2319.5 695.082 2323.08 691.5 2327.5 691.5 2331.92 691.5 2335.5 695.082 2335.5 699.5 2335.5 703.918 2331.92 707.5 2327.5 707.5 2323.08 707.5 2319.5 703.918 2319.5 699.5Z" stroke="#000000" stroke-width="4.58333" stroke-miterlimit="8" fill-rule="evenodd"/><path d="M2269.5 1030.5C2269.5 1026.08 2272.86 1022.5 2277 1022.5 2281.14 1022.5 2284.5 1026.08 2284.5 1030.5 2284.5 1034.92 2281.14 1038.5 2277 1038.5 2272.86 1038.5 2269.5 1034.92 2269.5 1030.5Z" stroke="#000000" stroke-width="4.58333" stroke-miterlimit="8" fill-rule="evenodd"/><path d="M2294.5 1030.5C2294.5 1026.08 2297.86 1022.5 2302 1022.5 2306.14 1022.5 2309.5 1026.08 2309.5 1030.5 2309.5 1034.92 2306.14 1038.5 2302 1038.5 2297.86 1038.5 2294.5 1034.92 2294.5 1030.5Z" stroke="#000000" stroke-width="4.58333" stroke-miterlimit="8" fill-rule="evenodd"/><path d="M2319.5 1030.5C2319.5 1026.08 2323.08 1022.5 2327.5 1022.5 2331.92 1022.5 2335.5 1026.08 2335.5 1030.5 2335.5 1034.92 2331.92 1038.5 2327.5 1038.5 2323.08 1038.5 2319.5 1034.92 2319.5 1030.5Z" stroke="#000000" stroke-width="4.58333" stroke-miterlimit="8" fill-rule="evenodd"/><path d="M1891 244 1891 1159.71" stroke="#D9D9D9" stroke-width="10.3125" stroke-miterlimit="8" fill="none" fill-rule="evenodd"/><path d="M2993 1210 4582.14 1210" stroke="#D9D9D9" stroke-width="10.3125" stroke-miterlimit="8" stroke-dasharray="10.3125 10.3125" fill="none" fill-rule="evenodd"/><path d="M4193 266.206C4193 253.942 4202.94 244 4215.21 244L4513.79 244C4526.06 244 4536 253.942 4536 266.206L4536 1137.79C4536 1150.06 4526.06 1160 4513.79 1160L4215.21 1160C4202.94 1160 4193 1150.06 4193 1137.79Z" stroke="#D9D9D9" stroke-width="10.3125" stroke-miterlimit="8" fill="#FFFFFF" fill-rule="evenodd"/><path d="M3346 274.238C3346 257.538 3359.54 244 3376.24 244L4029.76 244C4046.46 244 4060 257.538 4060 274.238L4060 1129.76C4060 1146.46 4046.46 1160 4029.76 1160L3376.24 1160C3359.54 1160 3346 1146.46 3346 1129.76Z" stroke="#D9D9D9" stroke-width="10.3125" stroke-miterlimit="8" fill="#FFFFFF" fill-rule="evenodd"/><g><g><g><path d="M168.315 157.925 31.1695 157.925C26.5979 157.925 22.8576 154.185 22.8576 149.613L22.8576 49.8711C22.8576 45.2996 26.5979 41.5593 31.1695 41.5593L70.2352 41.5593C71.8975 41.5593 73.5599 41.9749 74.8067 43.0139L97.6643 58.183 168.315 58.183C172.887 58.183 176.627 61.9233 176.627 66.4948L176.627 149.613C176.627 154.185 172.887 157.925 168.315 157.925Z" stroke="#000000" stroke-width="2.77061" fill="#4472C4" transform="matrix(1.00471 0 0 1 3431.79 238.758)"/></g></g></g><g><g><g><path d="M168.09 157.714 31.1278 157.714C26.5624 157.714 22.827 153.979 22.827 149.413L22.827 49.8044C22.827 45.239 26.5624 41.5037 31.1278 41.5037L70.1412 41.5037C71.8014 41.5037 73.4615 41.9187 74.7066 42.9563L97.5336 58.1051 168.09 58.1051C172.655 58.1051 176.391 61.8405 176.391 66.4059L176.391 149.413C176.391 153.979 172.655 157.714 168.09 157.714Z" stroke="#000000" stroke-width="2.7669" fill="#4472C4" transform="matrix(1 0 0 1.00922 3410.89 261.472)"/></g></g></g><g><g><g><path d="M168.315 157.925 31.1695 157.925C26.5979 157.925 22.8576 154.185 22.8576 149.613L22.8576 49.8711C22.8576 45.2996 26.5979 41.5593 31.1695 41.5593L70.2352 41.5593C71.8975 41.5593 73.5599 41.9749 74.8067 43.0139L97.6643 58.183 168.315 58.183C172.887 58.183 176.627 61.9233 176.627 66.4948L176.627 149.613C176.627 154.185 172.887 157.925 168.315 157.925Z" stroke="#000000" stroke-width="2.77061" fill="#4472C4" transform="matrix(1.00471 0 0 1 3388.79 285.758)"/></g></g></g><g><g><g><path d="M168.315 157.925 31.1695 157.925C26.5979 157.925 22.8576 154.185 22.8576 149.613L22.8576 49.8711C22.8576 45.2996 26.5979 41.5593 31.1695 41.5593L70.2352 41.5593C71.8975 41.5593 73.5599 41.9749 74.8067 43.0139L97.6643 58.183 168.315 58.183C172.887 58.183 176.627 61.9233 176.627 66.4948L176.627 149.613C176.627 154.185 172.887 157.925 168.315 157.925Z" stroke="#000000" stroke-width="2.77061" fill="#4472C4" transform="matrix(1.00471 0 0 1 3774.79 238.758)"/></g></g></g><g><g><g><path d="M168.09 157.714 31.1278 157.714C26.5624 157.714 22.827 153.979 22.827 149.413L22.827 49.8044C22.827 45.239 26.5624 41.5037 31.1278 41.5037L70.1412 41.5037C71.8014 41.5037 73.4615 41.9187 74.7066 42.9563L97.5336 58.1051 168.09 58.1051C172.655 58.1051 176.391 61.8405 176.391 66.4059L176.391 149.413C176.391 153.979 172.655 157.714 168.09 157.714Z" stroke="#000000" stroke-width="2.7669" fill="#4472C4" transform="matrix(1 0 0 1.00922 3753.89 261.472)"/></g></g></g><g><g><g><path d="M168.315 157.925 31.1695 157.925C26.5979 157.925 22.8576 154.185 22.8576 149.613L22.8576 49.8711C22.8576 45.2996 26.5979 41.5593 31.1695 41.5593L70.2352 41.5593C71.8975 41.5593 73.5599 41.9749 74.8067 43.0139L97.6643 58.183 168.315 58.183C172.887 58.183 176.627 61.9233 176.627 66.4948L176.627 149.613C176.627 154.185 172.887 157.925 168.315 157.925Z" stroke="#000000" stroke-width="2.77061" fill="#4472C4" transform="matrix(1.00471 0 0 1 3731.79 285.758)"/></g></g></g><g><g><g><path d="M168.315 157.925 31.1695 157.925C26.5979 157.925 22.8576 154.185 22.8576 149.613L22.8576 49.8711C22.8576 45.2996 26.5979 41.5593 31.1695 41.5593L70.2352 41.5593C71.8975 41.5593 73.5599 41.9749 74.8067 43.0139L97.6643 58.183 168.315 58.183C172.887 58.183 176.627 61.9233 176.627 66.4948L176.627 149.613C176.627 154.185 172.887 157.925 168.315 157.925Z" stroke="#000000" stroke-width="2.77061" fill="#4472C4" transform="matrix(1.00471 0 0 1 4285.79 238.758)"/></g></g></g><g><g><g><path d="M168.09 157.714 31.1278 157.714C26.5624 157.714 22.827 153.979 22.827 149.413L22.827 49.8044C22.827 45.239 26.5624 41.5037 31.1278 41.5037L70.1412 41.5037C71.8014 41.5037 73.4615 41.9187 74.7066 42.9563L97.5336 58.1051 168.09 58.1051C172.655 58.1051 176.391 61.8405 176.391 66.4059L176.391 149.413C176.391 153.979 172.655 157.714 168.09 157.714Z" stroke="#000000" stroke-width="2.7669" fill="#4472C4" transform="matrix(1 0 0 1.00922 4264.89 261.472)"/></g></g></g><g><g><g><path d="M168.315 157.925 31.1695 157.925C26.5979 157.925 22.8576 154.185 22.8576 149.613L22.8576 49.8711C22.8576 45.2996 26.5979 41.5593 31.1695 41.5593L70.2352 41.5593C71.8975 41.5593 73.5599 41.9749 74.8067 43.0139L97.6643 58.183 168.315 58.183C172.887 58.183 176.627 61.9233 176.627 66.4948L176.627 149.613C176.627 154.185 172.887 157.925 168.315 157.925Z" stroke="#000000" stroke-width="2.77061" fill="#4472C4" transform="matrix(1.00471 0 0 1 4242.79 285.758)"/></g></g></g><rect x="2877" y="309" width="467" height="123" fill="#FFFFFF"/><text font-family="Calibri,Calibri_MSFontService,sans-serif" font-weight="400" font-size="74" transform="matrix(1 0 0 1 3081.82 394)">Dataset</text><path d="M2993 529 4582.14 529" stroke="#D9D9D9" stroke-width="10.3125" stroke-miterlimit="8" stroke-dasharray="10.3125 10.3125" fill="none" fill-rule="evenodd"/><g><g><g><path d="M3581.83 652.167 3440.17 652.167 3502.67 714.667 3502.67 777.167 3502.67 793.833 3519.33 777.167 3519.33 714.667Z" stroke="#000000" stroke-width="3.65296" fill="#70AD47"/></g></g></g><g><g><g><path d="M169.979 29.0208 29.0208 29.0208 91.2083 91.2083 91.2083 153.396 91.2083 169.979 107.792 153.396 107.792 91.2083Z" stroke="#000000" stroke-width="3.63469" fill="#70AD47" transform="matrix(1 0 0 1.00503 3754 623)"/></g></g></g><g><g><g><path d="M4434.83 652.167 4293.17 652.167 4355.67 714.667 4355.67 777.167 4355.67 793.833 4372.33 777.167 4372.33 714.667Z" stroke="#000000" stroke-width="3.65296" fill="#70AD47"/></g></g></g><path d="M2993 861 4582.14 861" stroke="#D9D9D9" stroke-width="10.3125" stroke-miterlimit="8" stroke-dasharray="10.3125 10.3125" fill="none" fill-rule="evenodd"/><g><g><g><path d="M3534.54 1031.71C3525.79 1031.71 3518.92 1024.62 3518.92 1016.08 3518.92 1007.54 3526 1000.46 3534.54 1000.46 3543.29 1000.46 3550.17 1007.54 3550.17 1016.08 3550.17 1024.62 3543.08 1031.71 3534.54 1031.71ZM3569.75 1006.29C3568.92 1003.37 3567.88 1000.67 3566.42 998.167L3569.75 988.375 3562.25 980.875 3552.46 984.208C3549.96 982.75 3547.25 981.708 3544.33 980.875L3539.75 971.708 3529.33 971.708 3524.75 980.875C3521.83 981.708 3519.12 982.75 3516.62 984.208L3506.83 980.875 3499.33 988.375 3502.67 998.167C3501.21 1000.67 3500.17 1003.37 3499.33 1006.29L3490.17 1010.87 3490.17 1021.29 3499.33 1025.87C3500.17 1028.79 3501.21 1031.5 3502.67 1034L3499.33 1043.79 3506.62 1051.08 3516.42 1047.75C3518.92 1049.21 3521.62 1050.25 3524.54 1051.08L3529.12 1060.25 3539.54 1060.25 3544.12 1051.08C3547.04 1050.25 3549.75 1049.21 3552.25 1047.75L3562.04 1051.08 3569.54 1043.79 3566.21 1034C3567.67 1031.5 3568.92 1028.58 3569.75 1025.87L3578.92 1021.29 3578.92 1010.87 3569.75 1006.29Z" stroke="#000000" stroke-width="3.65296" fill="#FFC000"/><path d="M3487.46 1107.54C3478.71 1107.54 3471.83 1100.46 3471.83 1091.92 3471.83 1083.17 3478.92 1076.29 3487.46 1076.29 3496.21 1076.29 3503.08 1083.37 3503.08 1091.92 3503.08 1100.46 3496.21 1107.54 3487.46 1107.54L3487.46 1107.54ZM3519.33 1074 3522.67 1064.21 3515.17 1056.71 3505.38 1060.04C3502.88 1058.58 3499.96 1057.54 3497.25 1056.71L3492.67 1047.54 3482.25 1047.54 3477.67 1056.71C3474.75 1057.54 3472.04 1058.58 3469.54 1060.04L3459.75 1056.71 3452.46 1064 3455.58 1073.79C3454.12 1076.29 3453.08 1079.21 3452.25 1081.92L3443.08 1086.5 3443.08 1096.92 3452.25 1101.5C3453.08 1104.42 3454.12 1107.12 3455.58 1109.62L3452.46 1119.42 3459.75 1126.71 3469.54 1123.58C3472.04 1125.04 3474.75 1126.08 3477.67 1126.92L3482.25 1136.08 3492.67 1136.08 3497.25 1126.92C3500.17 1126.08 3502.88 1125.04 3505.38 1123.58L3515.17 1126.92 3522.46 1119.42 3519.33 1109.83C3520.79 1107.33 3521.83 1104.62 3522.67 1101.71L3531.83 1097.12 3531.83 1086.71 3522.67 1082.12C3521.83 1079.21 3520.79 1076.5 3519.33 1074Z" stroke="#000000" stroke-width="3.65296" fill="#FFC000"/></g></g></g><g><g><g><path d="M122.924 77.3198C114.218 77.3198 107.377 70.2719 107.377 61.7729 107.377 53.274 114.425 46.226 122.924 46.226 131.63 46.226 138.471 53.274 138.471 61.7729 138.471 70.2719 131.423 77.3198 122.924 77.3198ZM157.956 52.0302C157.127 49.1281 156.091 46.4333 154.64 43.9458L157.956 34.2031 150.494 26.7406 140.751 30.0573C138.264 28.6063 135.569 27.5698 132.667 26.7406L128.106 17.6198 117.742 17.6198 113.181 26.7406C110.279 27.5698 107.584 28.6063 105.097 30.0573L95.3542 26.7406 87.8917 34.2031 91.2083 43.9458C89.7573 46.4333 88.7208 49.1281 87.8917 52.0302L78.7708 56.5906 78.7708 66.9552 87.8917 71.5156C88.7208 74.4177 89.7573 77.1125 91.2083 79.6L87.8917 89.3427 95.1469 96.5979 104.89 93.2813C107.377 94.7323 110.072 95.7688 112.974 96.5979L117.534 105.719 127.899 105.719 132.459 96.5979C135.361 95.7688 138.056 94.7323 140.544 93.2813L150.286 96.5979 157.749 89.3427 154.432 79.6C155.883 77.1125 157.127 74.2104 157.956 71.5156L167.077 66.9552 167.077 56.5906 157.956 52.0302Z" stroke="#000000" stroke-width="3.63469" fill="#FFC000" transform="matrix(1 0 0 1.00503 3754 954)"/><path d="M76.0761 152.774C67.3698 152.774 60.5292 145.726 60.5292 137.227 60.5292 128.521 67.5771 121.68 76.0761 121.68 84.7823 121.68 91.6229 128.728 91.6229 137.227 91.6229 145.726 84.7823 152.774 76.0761 152.774L76.0761 152.774ZM107.792 119.4 111.108 109.657 103.646 102.195 93.9031 105.511C91.4156 104.06 88.5136 103.024 85.8188 102.195L81.2583 93.074 70.8938 93.074 66.3333 102.195C63.4313 103.024 60.7365 104.06 58.249 105.511L48.5063 102.195 41.251 109.45 44.3604 119.193C42.9094 121.68 41.8729 124.582 41.0438 127.277L31.9229 131.838 31.9229 142.202 41.0438 146.763C41.8729 149.665 42.9094 152.359 44.3604 154.847L41.251 164.59 48.5063 171.845 58.249 168.735C60.7365 170.186 63.4313 171.223 66.3333 172.052L70.8938 181.173 81.2583 181.173 85.8188 172.052C88.7208 171.223 91.4156 170.186 93.9031 168.735L103.646 172.052 110.901 164.59 107.792 155.054C109.243 152.567 110.279 149.872 111.108 146.97L120.229 142.409 120.229 132.045 111.108 127.484C110.279 124.582 109.243 121.888 107.792 119.4Z" stroke="#000000" stroke-width="3.63469" fill="#FFC000" transform="matrix(1 0 0 1.00503 3754 954)"/></g></g></g><g><g><g><path d="M4387.54 1031.71C4378.79 1031.71 4371.92 1024.62 4371.92 1016.08 4371.92 1007.54 4379 1000.46 4387.54 1000.46 4396.29 1000.46 4403.17 1007.54 4403.17 1016.08 4403.17 1024.62 4396.08 1031.71 4387.54 1031.71ZM4422.75 1006.29C4421.92 1003.37 4420.88 1000.67 4419.42 998.167L4422.75 988.375 4415.25 980.875 4405.46 984.208C4402.96 982.75 4400.25 981.708 4397.33 980.875L4392.75 971.708 4382.33 971.708 4377.75 980.875C4374.83 981.708 4372.12 982.75 4369.62 984.208L4359.83 980.875 4352.33 988.375 4355.67 998.167C4354.21 1000.67 4353.17 1003.37 4352.33 1006.29L4343.17 1010.87 4343.17 1021.29 4352.33 1025.87C4353.17 1028.79 4354.21 1031.5 4355.67 1034L4352.33 1043.79 4359.62 1051.08 4369.42 1047.75C4371.92 1049.21 4374.62 1050.25 4377.54 1051.08L4382.12 1060.25 4392.54 1060.25 4397.12 1051.08C4400.04 1050.25 4402.75 1049.21 4405.25 1047.75L4415.04 1051.08 4422.54 1043.79 4419.21 1034C4420.67 1031.5 4421.92 1028.58 4422.75 1025.87L4431.92 1021.29 4431.92 1010.87 4422.75 1006.29Z" stroke="#000000" stroke-width="3.65296" fill="#FFC000"/><path d="M4340.46 1107.54C4331.71 1107.54 4324.83 1100.46 4324.83 1091.92 4324.83 1083.17 4331.92 1076.29 4340.46 1076.29 4349.21 1076.29 4356.08 1083.37 4356.08 1091.92 4356.08 1100.46 4349.21 1107.54 4340.46 1107.54L4340.46 1107.54ZM4372.33 1074 4375.67 1064.21 4368.17 1056.71 4358.38 1060.04C4355.88 1058.58 4352.96 1057.54 4350.25 1056.71L4345.67 1047.54 4335.25 1047.54 4330.67 1056.71C4327.75 1057.54 4325.04 1058.58 4322.54 1060.04L4312.75 1056.71 4305.46 1064 4308.58 1073.79C4307.12 1076.29 4306.08 1079.21 4305.25 1081.92L4296.08 1086.5 4296.08 1096.92 4305.25 1101.5C4306.08 1104.42 4307.12 1107.12 4308.58 1109.62L4305.46 1119.42 4312.75 1126.71 4322.54 1123.58C4325.04 1125.04 4327.75 1126.08 4330.67 1126.92L4335.25 1136.08 4345.67 1136.08 4350.25 1126.92C4353.17 1126.08 4355.88 1125.04 4358.38 1123.58L4368.17 1126.92 4375.46 1119.42 4372.33 1109.83C4373.79 1107.33 4374.83 1104.62 4375.67 1101.71L4384.83 1097.12 4384.83 1086.71 4375.67 1082.12C4374.83 1079.21 4373.79 1076.5 4372.33 1074Z" stroke="#000000" stroke-width="3.65296" fill="#FFC000"/></g></g></g><rect x="2877" y="661" width="467" height="123" fill="#FFFFFF"/><text font-family="Calibri,Calibri_MSFontService,sans-serif" font-weight="400" font-size="74" transform="matrix(1 0 0 1 3128.89 747)">Filters</text><rect x="2877" y="993" width="467" height="122" fill="#FFFFFF"/><text font-family="Calibri,Calibri_MSFontService,sans-serif" font-weight="400" font-size="74" transform="matrix(1 0 0 1 3069.08 1078)">Analysis</text><path d="M3536.75 503.5 3536.75 554 3562.5 554 3511 604.5 3459.5 554 3485.25 554 3485.25 503.5Z" stroke="#AE5A21" stroke-width="4.58333" stroke-miterlimit="8" fill="#ED7D31" fill-rule="evenodd"/><path d="M3536.75 834.5 3536.75 885 3562.5 885 3511 935.5 3459.5 885 3485.25 885 3485.25 834.5Z" stroke="#AE5A21" stroke-width="4.58333" stroke-miterlimit="8" fill="#ED7D31" fill-rule="evenodd"/><path d="M3536.75 1184.5 3536.75 1234.5 3562.5 1234.5 3511 1284.5 3459.5 1234.5 3485.25 1234.5 3485.25 1184.5Z" stroke="#AE5A21" stroke-width="4.58333" stroke-miterlimit="8" fill="#ED7D31" fill-rule="evenodd"/><path d="M3879.75 1184.5 3879.75 1234.5 3905.5 1234.5 3854 1284.5 3802.5 1234.5 3828.25 1234.5 3828.25 1184.5Z" stroke="#AE5A21" stroke-width="4.58333" stroke-miterlimit="8" fill="#ED7D31" fill-rule="evenodd"/><path d="M4390.75 1184.5 4390.75 1234.5 4416.5 1234.5 4365 1284.5 4313.5 1234.5 4339.25 1234.5 4339.25 1184.5Z" stroke="#AE5A21" stroke-width="4.58333" stroke-miterlimit="8" fill="#ED7D31" fill-rule="evenodd"/><path d="M3879.75 503.5 3879.75 554 3905.5 554 3854 604.5 3802.5 554 3828.25 554 3828.25 503.5Z" stroke="#AE5A21" stroke-width="4.58333" stroke-miterlimit="8" fill="#ED7D31" fill-rule="evenodd"/><path d="M3879.75 834.5 3879.75 885 3905.5 885 3854 935.5 3802.5 885 3828.25 885 3828.25 834.5Z" stroke="#AE5A21" stroke-width="4.58333" stroke-miterlimit="8" fill="#ED7D31" fill-rule="evenodd"/><path d="M4390.75 503.5 4390.75 554 4416.5 554 4365 604.5 4313.5 554 4339.25 554 4339.25 503.5Z" stroke="#AE5A21" stroke-width="4.58333" stroke-miterlimit="8" fill="#ED7D31" fill-rule="evenodd"/><path d="M4390.75 834.5 4390.75 885 4416.5 885 4365 935.5 4313.5 885 4339.25 885 4339.25 834.5Z" stroke="#AE5A21" stroke-width="4.58333" stroke-miterlimit="8" fill="#ED7D31" fill-rule="evenodd"/><rect x="2877" y="1337" width="467" height="123" fill="#FFFFFF"/><text font-family="Calibri,Calibri_MSFontService,sans-serif" font-weight="400" font-size="74" transform="matrix(1 0 0 1 3115.28 1423)">Merge</text><path d="M2993 1534 4582.14 1534" stroke="#D9D9D9" stroke-width="10.3125" stroke-miterlimit="8" stroke-dasharray="10.3125 10.3125" fill="none" fill-rule="evenodd"/><path d="M3879.75 1509.5 3879.75 1559.5 3905.5 1559.5 3854 1609.5 3802.5 1559.5 3828.25 1559.5 3828.25 1509.5Z" stroke="#AE5A21" stroke-width="4.58333" stroke-miterlimit="8" fill="#ED7D31" fill-rule="evenodd"/><rect x="2877" y="1605" width="467" height="213" fill="#FFFFFF"/><text font-family="Calibri,Calibri_MSFontService,sans-serif" font-weight="400" font-size="74" transform="matrix(1 0 0 1 3092.5 1691)">Second </text><text font-family="Calibri,Calibri_MSFontService,sans-serif" font-weight="400" font-size="74" transform="matrix(1 0 0 1 3069.08 1780)">Analysis</text><text font-family="Calibri,Calibri_MSFontService,sans-serif" font-weight="400" font-size="74" transform="matrix(1 0 0 1 3578.99 498)">DS</text><text font-family="Calibri,Calibri_MSFontService,sans-serif" font-weight="400" font-size="49" transform="matrix(1 0 0 1 3658.06 515)">1</text><text font-family="Calibri,Calibri_MSFontService,sans-serif" font-weight="400" font-size="74" transform="matrix(1 0 0 1 3917.53 498)">DS</text><text font-family="Calibri,Calibri_MSFontService,sans-serif" font-weight="400" font-size="49" transform="matrix(1 0 0 1 3996.59 515)">2</text><text font-family="Calibri,Calibri_MSFontService,sans-serif" font-weight="400" font-size="74" transform="matrix(1 0 0 1 4426.78 498)">DS</text><text font-family="Calibri,Calibri_MSFontService,sans-serif" font-weight="400" font-size="49" transform="matrix(1 0 0 1 4505.84 515)">n</text><text font-family="Calibri,Calibri_MSFontService,sans-serif" font-weight="400" font-size="74" transform="matrix(1 0 0 1 3589.78 834)">F</text><text font-family="Calibri,Calibri_MSFontService,sans-serif" font-weight="400" font-size="49" transform="matrix(1 0 0 1 3623.58 851)">1</text><text font-family="Calibri,Calibri_MSFontService,sans-serif" font-weight="400" font-size="74" transform="matrix(1 0 0 1 3928.32 834)">F</text><text font-family="Calibri,Calibri_MSFontService,sans-serif" font-weight="400" font-size="49" transform="matrix(1 0 0 1 3962.12 851)">2</text><text font-family="Calibri,Calibri_MSFontService,sans-serif" font-weight="400" font-size="74" transform="matrix(1 0 0 1 4437.51 834)">F</text><text font-family="Calibri,Calibri_MSFontService,sans-serif" font-weight="400" font-size="49" transform="matrix(1 0 0 1 4471.31 851)">n</text><text font-family="Calibri,Calibri_MSFontService,sans-serif" font-weight="400" font-size="74" transform="matrix(1 0 0 1 3585.2 1136)">A</text><text font-family="Calibri,Calibri_MSFontService,sans-serif" font-weight="400" font-size="49" transform="matrix(1 0 0 1 3628.17 1153)">1</text><text font-family="Calibri,Calibri_MSFontService,sans-serif" font-weight="400" font-size="74" transform="matrix(1 0 0 1 3923.74 1136)">A</text><text font-family="Calibri,Calibri_MSFontService,sans-serif" font-weight="400" font-size="49" transform="matrix(1 0 0 1 3966.71 1153)">2</text><text font-family="Calibri,Calibri_MSFontService,sans-serif" font-weight="400" font-size="74" transform="matrix(1 0 0 1 4432.93 1136)">A</text><text font-family="Calibri,Calibri_MSFontService,sans-serif" font-weight="400" font-size="49" transform="matrix(1 0 0 1 4475.89 1153)">n</text><path d="M3449.36 1307.15 3703.6 1307.15 3703.6 1352.96 3449.36 1352.96Z" fill="#A5A5A5" fill-rule="evenodd"/><path d="M3703.6 1307.15 3957.85 1307.15 3957.85 1352.96 3703.6 1352.96Z" fill="#A5A5A5" fill-rule="evenodd"/><path d="M3957.85 1307.15 4212.09 1307.15 4212.09 1352.96 3957.85 1352.96Z" fill="#A5A5A5" fill-rule="evenodd"/><path d="M4212.09 1307.15 4466.34 1307.15 4466.34 1352.96 4212.09 1352.96Z" fill="#A5A5A5" fill-rule="evenodd"/><path d="M3449.36 1352.96 3703.6 1352.96 3703.6 1398.77 3449.36 1398.77Z" fill="#E1E1E1" fill-rule="evenodd"/><path d="M3703.6 1352.96 3957.85 1352.96 3957.85 1398.77 3703.6 1398.77Z" fill="#E1E1E1" fill-rule="evenodd"/><path d="M3957.85 1352.96 4212.09 1352.96 4212.09 1398.77 3957.85 1398.77Z" fill="#E1E1E1" fill-rule="evenodd"/><path d="M4212.09 1352.96 4466.34 1352.96 4466.34 1398.77 4212.09 1398.77Z" fill="#E1E1E1" fill-rule="evenodd"/><path d="M3449.36 1398.77 3703.6 1398.77 3703.6 1444.58 3449.36 1444.58Z" fill="#F0F0F0" fill-rule="evenodd"/><path d="M3703.6 1398.77 3957.85 1398.77 3957.85 1444.58 3703.6 1444.58Z" fill="#F0F0F0" fill-rule="evenodd"/><path d="M3957.85 1398.77 4212.09 1398.77 4212.09 1444.58 3957.85 1444.58Z" fill="#F0F0F0" fill-rule="evenodd"/><path d="M4212.09 1398.77 4466.34 1398.77 4466.34 1444.58 4212.09 1444.58Z" fill="#F0F0F0" fill-rule="evenodd"/><path d="M3449.36 1444.58 3703.6 1444.58 3703.6 1490.4 3449.36 1490.4Z" fill="#E1E1E1" fill-rule="evenodd"/><path d="M3703.6 1444.58 3957.85 1444.58 3957.85 1490.4 3703.6 1490.4Z" fill="#E1E1E1" fill-rule="evenodd"/><path d="M3957.85 1444.58 4212.09 1444.58 4212.09 1490.4 3957.85 1490.4Z" fill="#E1E1E1" fill-rule="evenodd"/><path d="M4212.09 1444.58 4466.34 1444.58 4466.34 1490.4 4212.09 1490.4Z" fill="#E1E1E1" fill-rule="evenodd"/><path d="M3703.6 1304.85 3703.6 1492.69" stroke="#FFFFFF" stroke-width="4.58333" stroke-linejoin="round" stroke-miterlimit="10" fill="none" fill-rule="evenodd"/><path d="M3957.85 1304.85 3957.85 1492.69" stroke="#FFFFFF" stroke-width="4.58333" stroke-linejoin="round" stroke-miterlimit="10" fill="none" fill-rule="evenodd"/><path d="M4212.09 1304.85 4212.09 1492.69" stroke="#FFFFFF" stroke-width="4.58333" stroke-linejoin="round" stroke-miterlimit="10" fill="none" fill-rule="evenodd"/><path d="M3447.07 1352.96 4468.63 1352.96" stroke="#FFFFFF" stroke-width="13.75" stroke-linejoin="round" stroke-miterlimit="10" fill="none" fill-rule="evenodd"/><path d="M3447.07 1398.77 4468.63 1398.77" stroke="#FFFFFF" stroke-width="4.58333" stroke-linejoin="round" stroke-miterlimit="10" fill="none" fill-rule="evenodd"/><path d="M3447.07 1444.58 4468.63 1444.58" stroke="#FFFFFF" stroke-width="4.58333" stroke-linejoin="round" stroke-miterlimit="10" fill="none" fill-rule="evenodd"/><path d="M3449.36 1304.85 3449.36 1492.69" stroke="#FFFFFF" stroke-width="4.58333" stroke-linejoin="round" stroke-miterlimit="10" fill="none" fill-rule="evenodd"/><path d="M4466.34 1304.85 4466.34 1492.69" stroke="#FFFFFF" stroke-width="4.58333" stroke-linejoin="round" stroke-miterlimit="10" fill="none" fill-rule="evenodd"/><path d="M3447.07 1307.15 4468.63 1307.15" stroke="#FFFFFF" stroke-width="4.58333" stroke-linejoin="round" stroke-miterlimit="10" fill="none" fill-rule="evenodd"/><path d="M3447.07 1490.4 4468.63 1490.4" stroke="#FFFFFF" stroke-width="4.58333" stroke-linejoin="round" stroke-miterlimit="10" fill="none" fill-rule="evenodd"/><path d="M4095.5 362.5C4095.5 358.082 4099.08 354.5 4103.5 354.5 4107.92 354.5 4111.5 358.082 4111.5 362.5 4111.5 366.918 4107.92 370.5 4103.5 370.5 4099.08 370.5 4095.5 366.918 4095.5 362.5Z" stroke="#000000" stroke-width="4.58333" stroke-miterlimit="8" fill-rule="evenodd"/><path d="M4120.5 362.5C4120.5 358.082 4124.08 354.5 4128.5 354.5 4132.92 354.5 4136.5 358.082 4136.5 362.5 4136.5 366.918 4132.92 370.5 4128.5 370.5 4124.08 370.5 4120.5 366.918 4120.5 362.5Z" stroke="#000000" stroke-width="4.58333" stroke-miterlimit="8" fill-rule="evenodd"/><path d="M4145.5 362.5C4145.5 358.082 4149.08 354.5 4153.5 354.5 4157.92 354.5 4161.5 358.082 4161.5 362.5 4161.5 366.918 4157.92 370.5 4153.5 370.5 4149.08 370.5 4145.5 366.918 4145.5 362.5Z" stroke="#000000" stroke-width="4.58333" stroke-miterlimit="8" fill-rule="evenodd"/><path d="M4095.5 699.5C4095.5 695.082 4099.08 691.5 4103.5 691.5 4107.92 691.5 4111.5 695.082 4111.5 699.5 4111.5 703.918 4107.92 707.5 4103.5 707.5 4099.08 707.5 4095.5 703.918 4095.5 699.5Z" stroke="#000000" stroke-width="4.58333" stroke-miterlimit="8" fill-rule="evenodd"/><path d="M4120.5 699.5C4120.5 695.082 4124.08 691.5 4128.5 691.5 4132.92 691.5 4136.5 695.082 4136.5 699.5 4136.5 703.918 4132.92 707.5 4128.5 707.5 4124.08 707.5 4120.5 703.918 4120.5 699.5Z" stroke="#000000" stroke-width="4.58333" stroke-miterlimit="8" fill-rule="evenodd"/><path d="M4145.5 699.5C4145.5 695.082 4149.08 691.5 4153.5 691.5 4157.92 691.5 4161.5 695.082 4161.5 699.5 4161.5 703.918 4157.92 707.5 4153.5 707.5 4149.08 707.5 4145.5 703.918 4145.5 699.5Z" stroke="#000000" stroke-width="4.58333" stroke-miterlimit="8" fill-rule="evenodd"/><path d="M4095.5 1030.5C4095.5 1026.08 4099.08 1022.5 4103.5 1022.5 4107.92 1022.5 4111.5 1026.08 4111.5 1030.5 4111.5 1034.92 4107.92 1038.5 4103.5 1038.5 4099.08 1038.5 4095.5 1034.92 4095.5 1030.5Z" stroke="#000000" stroke-width="4.58333" stroke-miterlimit="8" fill-rule="evenodd"/><path d="M4120.5 1030.5C4120.5 1026.08 4124.08 1022.5 4128.5 1022.5 4132.92 1022.5 4136.5 1026.08 4136.5 1030.5 4136.5 1034.92 4132.92 1038.5 4128.5 1038.5 4124.08 1038.5 4120.5 1034.92 4120.5 1030.5Z" stroke="#000000" stroke-width="4.58333" stroke-miterlimit="8" fill-rule="evenodd"/><path d="M4145.5 1030.5C4145.5 1026.08 4149.08 1022.5 4153.5 1022.5 4157.92 1022.5 4161.5 1026.08 4161.5 1030.5 4161.5 1034.92 4157.92 1038.5 4153.5 1038.5 4149.08 1038.5 4145.5 1034.92 4145.5 1030.5Z" stroke="#000000" stroke-width="4.58333" stroke-miterlimit="8" fill-rule="evenodd"/><path d="M2993 1854 4582.14 1854" stroke="#D9D9D9" stroke-width="10.3125" stroke-miterlimit="8" stroke-dasharray="10.3125 10.3125" fill="none" fill-rule="evenodd"/><g><g><g><path d="M158.333 45.8333 158.333 120.833 41.6666 120.833 41.6666 45.8333ZM175 125 170.833 125 170.833 39.5833 175 39.5833C177.301 39.5833 179.166 37.7179 179.166 35.4166 179.166 33.1154 177.301 31.25 175 31.25L104.167 31.25 104.167 27.0833C104.167 24.782 102.301 22.9166 99.9998 22.9166 97.6986 22.9166 95.8332 24.782 95.8332 27.0833L95.8332 31.25 25 31.25C22.6987 31.25 20.8333 33.1154 20.8333 35.4166 20.8333 37.7179 22.6987 39.5833 25 39.5833L29.1666 39.5833 29.1666 125 25 125C22.6987 125 20.8333 126.865 20.8333 129.166 20.8333 131.468 22.6987 133.333 25 133.333L88.6249 133.333 56.5416 165.416C54.9135 167.062 54.9274 169.715 56.5728 171.343 58.2182 172.972 60.8718 172.958 62.4999 171.312L95.8332 137.979 95.8332 175C95.8332 177.301 97.6986 179.166 99.9998 179.166 102.301 179.166 104.167 177.301 104.167 175L104.167 137.916 137.5 171.25C139.128 172.878 141.767 172.878 143.396 171.25 145.024 169.622 145.024 166.982 143.396 165.354L111.375 133.333 175 133.333C177.301 133.333 179.166 131.468 179.166 129.166 179.166 126.865 177.301 125 175 125Z" fill="#002060" transform="matrix(1 0 0 1 3754 1930)"/><path d="M116.666 54.1666 133.333 54.1666 133.333 112.5 116.666 112.5Z" fill="#002060" transform="matrix(1 0 0 1 3754 1930)"/><path d="M91.6665 72.9166 108.333 72.9166 108.333 112.5 91.6665 112.5Z" fill="#002060" transform="matrix(1 0 0 1 3754 1930)"/><path d="M66.6666 87.4999 83.3332 87.4999 83.3332 112.5 66.6666 112.5Z" fill="#002060" transform="matrix(1 0 0 1 3754 1930)"/></g></g></g><path d="M3879.75 1821.5 3879.75 1871.5 3905.5 1871.5 3854 1921.5 3802.5 1871.5 3828.25 1871.5 3828.25 1821.5Z" stroke="#AE5A21" stroke-width="4.58333" stroke-miterlimit="8" fill="#ED7D31" fill-rule="evenodd"/><rect x="2877" y="1962" width="467" height="123" fill="#FFFFFF"/><text font-family="Calibri,Calibri_MSFontService,sans-serif" font-weight="400" font-size="74" transform="matrix(1 0 0 1 2931.67 2048)">Visualization</text><g><g><g><path d="M122.924 77.3198C114.218 77.3198 107.377 70.2719 107.377 61.7729 107.377 53.274 114.425 46.226 122.924 46.226 131.63 46.226 138.471 53.274 138.471 61.7729 138.471 70.2719 131.423 77.3198 122.924 77.3198ZM157.956 52.0302C157.127 49.1281 156.091 46.4333 154.64 43.9458L157.956 34.2031 150.494 26.7406 140.751 30.0573C138.264 28.6063 135.569 27.5698 132.667 26.7406L128.106 17.6198 117.742 17.6198 113.181 26.7406C110.279 27.5698 107.584 28.6063 105.097 30.0573L95.3542 26.7406 87.8917 34.2031 91.2083 43.9458C89.7573 46.4333 88.7208 49.1281 87.8917 52.0302L78.7708 56.5906 78.7708 66.9552 87.8917 71.5156C88.7208 74.4177 89.7573 77.1125 91.2083 79.6L87.8917 89.3427 95.1469 96.5979 104.89 93.2813C107.377 94.7323 110.072 95.7688 112.974 96.5979L117.534 105.719 127.899 105.719 132.459 96.5979C135.361 95.7688 138.056 94.7323 140.544 93.2813L150.286 96.5979 157.749 89.3427 154.432 79.6C155.883 77.1125 157.127 74.2104 157.956 71.5156L167.077 66.9552 167.077 56.5906 157.956 52.0302Z" stroke="#000000" stroke-width="3.63469" fill="#FFC000" transform="matrix(1 0 0 1.00502 3754 1611)"/><path d="M76.0761 152.774C67.3698 152.774 60.5292 145.726 60.5292 137.227 60.5292 128.521 67.5771 121.68 76.0761 121.68 84.7823 121.68 91.6229 128.728 91.6229 137.227 91.6229 145.726 84.7823 152.774 76.0761 152.774L76.0761 152.774ZM107.792 119.4 111.108 109.657 103.646 102.195 93.9031 105.511C91.4156 104.06 88.5136 103.024 85.8188 102.195L81.2583 93.074 70.8938 93.074 66.3333 102.195C63.4313 103.024 60.7365 104.06 58.249 105.511L48.5063 102.195 41.251 109.45 44.3604 119.193C42.9094 121.68 41.8729 124.582 41.0438 127.277L31.9229 131.838 31.9229 142.202 41.0438 146.763C41.8729 149.665 42.9094 152.359 44.3604 154.847L41.251 164.59 48.5063 171.845 58.249 168.735C60.7365 170.186 63.4313 171.223 66.3333 172.052L70.8938 181.173 81.2583 181.173 85.8188 172.052C88.7208 171.223 91.4156 170.186 93.9031 168.735L103.646 172.052 110.901 164.59 107.792 155.054C109.243 152.567 110.279 149.872 111.108 146.97L120.229 142.409 120.229 132.045 111.108 127.484C110.279 124.582 109.243 121.888 107.792 119.4Z" stroke="#000000" stroke-width="3.63469" fill="#FFC000" transform="matrix(1 0 0 1.00502 3754 1611)"/></g></g></g><path d="M3703 244 3703 1159.71" stroke="#D9D9D9" stroke-width="10.3125" stroke-miterlimit="8" fill="none" fill-rule="evenodd"/></g></svg>