<svg width="1361" height="643" xmlns="http://www.w3.org/2000/svg" xmlns:xlink="http://www.w3.org/1999/xlink" overflow="hidden"><defs><clipPath id="clip0"><rect x="0" y="0" width="1361" height="643"/></clipPath></defs><g clip-path="url(#clip0)"><rect x="0" y="0" width="1361" height="643.343" fill="#FFFFFF"/><path d="M829.5 30.6025C829.5 23.9239 834.911 18.5098 841.586 18.5098L1330.41 18.5098C1337.09 18.5098 1342.5 23.9239 1342.5 30.6025L1342.5 613.741C1342.5 620.419 1337.09 625.833 1330.41 625.833L841.586 625.833C834.911 625.833 829.5 620.419 829.5 613.741Z" stroke="#D9D9D9" stroke-width="3.00073" stroke-miterlimit="8" fill="#FFFFFF" fill-rule="evenodd"/><text font-family="Calibri,Calibri_MSFontService,sans-serif" font-weight="700" font-size="21.5101" transform="matrix(1 0 0 1.00053 955.548 46)">Multi</text><text font-family="Calibri,Calibri_MSFontService,sans-serif" font-weight="700" font-size="21.5101" transform="matrix(1 0 0 1.00053 1004.06 46)">-</text><text font-family="Calibri,Calibri_MSFontService,sans-serif" font-weight="700" font-size="21.5101" transform="matrix(1 0 0 1.00053 1010.56 46)">level Analysis Indicator</text><path d="M303.5 30.6264C303.5 23.9346 308.922 18.5098 315.61 18.5098L805.39 18.5098C812.078 18.5098 817.5 23.9346 817.5 30.6264L817.5 613.717C817.5 620.409 812.078 625.833 805.39 625.833L315.61 625.833C308.922 625.833 303.5 620.409 303.5 613.717Z" stroke="#D9D9D9" stroke-width="3.00073" stroke-miterlimit="8" fill="#FFFFFF" fill-rule="evenodd"/><text font-family="Calibri,Calibri_MSFontService,sans-serif" font-weight="700" font-size="21.5101" transform="matrix(1 0 0 1.00053 470.115 46)">Composite Indicator</text><path d="M19.5 31.0176C19.5 24.1098 25.097 18.5098 32.0011 18.5098L276.999 18.5098C283.903 18.5098 289.5 24.1098 289.5 31.0176L289.5 613.326C289.5 620.234 283.903 625.833 276.999 625.833L32.0011 625.833C25.097 625.833 19.5 620.234 19.5 613.326Z" stroke="#D9D9D9" stroke-width="3.00073" stroke-miterlimit="8" fill="#FFFFFF" fill-rule="evenodd"/><text font-family="Calibri,Calibri_MSFontService,sans-serif" font-weight="700" font-size="21.5101" transform="matrix(1 0 0 1.00053 88.8611 46)">Basic Indicator</text><path d="M168.5 84.0156C168.5 79.8874 171.845 76.5408 175.971 76.5408L250.029 76.5408C254.155 76.5408 257.5 79.8874 257.5 84.0156L257.5 434.261C257.5 438.389 254.155 441.735 250.029 441.735L175.971 441.735C171.845 441.735 168.5 438.389 168.5 434.261Z" stroke="#D9D9D9" stroke-width="3.00073" stroke-miterlimit="8" fill="#FFFFFF" fill-rule="evenodd"/><path d="M31.5 347.685 277.229 347.685" stroke="#D9D9D9" stroke-width="3.00073" stroke-miterlimit="8" stroke-dasharray="3.00073 3.00073" fill="none" fill-rule="evenodd"/><path d="M31.5 154.582 277.229 154.582" stroke="#D9D9D9" stroke-width="3.00073" stroke-miterlimit="8" stroke-dasharray="3.00073 3.00073" fill="none" fill-rule="evenodd"/><path d="M31.5 250.634 277.229 250.634" stroke="#D9D9D9" stroke-width="3.00073" stroke-miterlimit="8" stroke-dasharray="3.00073 3.00073" fill="none" fill-rule="evenodd"/><g><g><g><path d="M48.8989 45.8804 9.05535 45.8804C7.72723 45.8804 6.64059 44.7938 6.64059 43.4657L6.64059 14.4886C6.64059 13.1604 7.72723 12.0738 9.05535 12.0738L20.4047 12.0738C20.8877 12.0738 21.3706 12.1945 21.7328 12.4964L28.3734 16.9033 48.8989 16.9033C50.227 16.9033 51.3136 17.99 51.3136 19.3181L51.3136 43.4657C51.3136 44.7938 50.227 45.8804 48.8989 45.8804Z" stroke="#000000" stroke-width="0.804918" fill="#4472C4" transform="matrix(1 0 0 1.00336 191.023 76.4819)"/></g></g></g><g><g><g><path d="M48.8989 45.8804 9.05535 45.8804C7.72723 45.8804 6.64059 44.7938 6.64059 43.4657L6.64059 14.4886C6.64059 13.1604 7.72723 12.0738 9.05535 12.0738L20.4047 12.0738C20.8877 12.0738 21.3706 12.1945 21.7328 12.4964L28.3734 16.9033 48.8989 16.9033C50.227 16.9033 51.3136 17.99 51.3136 19.3181L51.3136 43.4657C51.3136 44.7938 50.227 45.8804 48.8989 45.8804Z" stroke="#000000" stroke-width="0.804918" fill="#4472C4" transform="matrix(1 0 0 1.00335 185.023 83.4857)"/></g></g></g><g><g><g><path d="M48.8989 45.8804 9.05535 45.8804C7.72723 45.8804 6.64059 44.7938 6.64059 43.4657L6.64059 14.4886C6.64059 13.1604 7.72723 12.0738 9.05535 12.0738L20.4047 12.0738C20.8877 12.0738 21.3706 12.1945 21.7328 12.4964L28.3734 16.9033 48.8989 16.9033C50.227 16.9033 51.3136 17.99 51.3136 19.3181L51.3136 43.4657C51.3136 44.7938 50.227 45.8804 48.8989 45.8804Z" stroke="#000000" stroke-width="0.804918" fill="#4472C4" transform="matrix(1 0 0 1.00336 178.023 90.4894)"/></g></g></g><rect x="31" y="97.0517" width="136" height="36.0192" fill="#FFFFFF"/><text font-family="Calibri,Calibri_MSFontService,sans-serif" font-weight="400" font-size="21.5101" transform="matrix(1 0 0 1.00053 90.6002 122)">Dataset</text><g><g><g><path d="M49.5417 8.45834 8.45834 8.45834 26.5833 26.5833 26.5833 44.7084 26.5833 49.5417 31.4167 44.7084 31.4167 26.5833Z" stroke="#000000" stroke-width="1.05936" fill="#70AD47" transform="matrix(1 0 0 1.00053 185 181.097)"/></g></g></g><g><g><g><path d="M35.8271 22.5354C33.2896 22.5354 31.2958 20.4813 31.2958 18.0042 31.2958 15.5271 33.35 13.4729 35.8271 13.4729 38.3646 13.4729 40.3584 15.5271 40.3584 18.0042 40.3584 20.4813 38.3042 22.5354 35.8271 22.5354ZM46.0375 15.1646C45.7959 14.3188 45.4938 13.5333 45.0709 12.8083L46.0375 9.96876 43.8625 7.79375 41.0229 8.76042C40.2979 8.3375 39.5125 8.03542 38.6667 7.79375L37.3375 5.13542 34.3167 5.13542 32.9875 7.79375C32.1417 8.03542 31.3563 8.3375 30.6313 8.76042L27.7917 7.79375 25.6167 9.96876 26.5833 12.8083C26.1604 13.5333 25.8583 14.3188 25.6167 15.1646L22.9583 16.4938 22.9583 19.5146 25.6167 20.8438C25.8583 21.6896 26.1604 22.475 26.5833 23.2L25.6167 26.0396 27.7313 28.1542 30.5708 27.1875C31.2958 27.6104 32.0813 27.9125 32.9271 28.1542L34.2563 30.8125 37.2771 30.8125 38.6063 28.1542C39.4521 27.9125 40.2375 27.6104 40.9625 27.1875L43.8021 28.1542 45.9771 26.0396 45.0104 23.2C45.4334 22.475 45.7959 21.6292 46.0375 20.8438L48.6959 19.5146 48.6959 16.4938 46.0375 15.1646Z" stroke="#000000" stroke-width="1.05936" fill="#FFC000" transform="matrix(1 0 0 1.00053 185 278.148)"/><path d="M22.1729 44.5271C19.6354 44.5271 17.6417 42.4729 17.6417 39.9959 17.6417 37.4584 19.6958 35.4646 22.1729 35.4646 24.7104 35.4646 26.7042 37.5188 26.7042 39.9959 26.7042 42.4729 24.7104 44.5271 22.1729 44.5271L22.1729 44.5271ZM31.4167 34.8 32.3834 31.9604 30.2083 29.7854 27.3688 30.7521C26.6438 30.3292 25.7979 30.0271 25.0125 29.7854L23.6833 27.1271 20.6625 27.1271 19.3333 29.7854C18.4875 30.0271 17.7021 30.3292 16.9771 30.7521L14.1375 29.7854 12.0229 31.9 12.9292 34.7396C12.5063 35.4646 12.2042 36.3104 11.9625 37.0959L9.30417 38.425 9.30417 41.4459 11.9625 42.775C12.2042 43.6209 12.5063 44.4063 12.9292 45.1313L12.0229 47.9709 14.1375 50.0854 16.9771 49.1792C17.7021 49.6021 18.4875 49.9042 19.3333 50.1459L20.6625 52.8042 23.6833 52.8042 25.0125 50.1459C25.8583 49.9042 26.6438 49.6021 27.3688 49.1792L30.2083 50.1459 32.3229 47.9709 31.4167 45.1917C31.8396 44.4667 32.1417 43.6813 32.3834 42.8354L35.0417 41.5063 35.0417 38.4854 32.3834 37.1563C32.1417 36.3104 31.8396 35.525 31.4167 34.8Z" stroke="#000000" stroke-width="1.05936" fill="#FFC000" transform="matrix(1 0 0 1.00053 185 278.148)"/></g></g></g><rect x="31" y="192.102" width="136" height="36.0192" fill="#FFFFFF"/><text font-family="Calibri,Calibri_MSFontService,sans-serif" font-weight="400" font-size="21.5101" transform="matrix(1 0 0 1.00053 104.297 218)">Filters</text><rect x="31" y="289.154" width="136" height="36.0192" fill="#FFFFFF"/><text font-family="Calibri,Calibri_MSFontService,sans-serif" font-weight="400" font-size="21.5101" transform="matrix(1 0 0 1.00053 86.8927 314)">Analysis</text><path d="M222 146.578 222 161.586 229.5 161.586 214.5 176.594 199.5 161.586 207 161.586 207 146.578Z" stroke="#AE5A21" stroke-width="1.33437" stroke-miterlimit="8" fill="#ED7D31" fill-rule="evenodd"/><path d="M222 243.63 222 258.137 229.5 258.137 214.5 272.645 199.5 258.137 207 258.137 207 243.63Z" stroke="#AE5A21" stroke-width="1.33437" stroke-miterlimit="8" fill="#ED7D31" fill-rule="evenodd"/><path d="M222 340.682 222 355.189 229.5 355.189 214.5 369.697 199.5 355.189 207 355.189 207 340.682Z" stroke="#AE5A21" stroke-width="1.33437" stroke-miterlimit="8" fill="#ED7D31" fill-rule="evenodd"/><g><g><g><path d="M45.9167 13.2917 45.9167 35.0417 12.0833 35.0417 12.0833 13.2917ZM50.75 36.25 49.5417 36.25 49.5417 11.4792 50.75 11.4792C51.4174 11.4792 51.9584 10.9382 51.9584 10.2708 51.9584 9.60348 51.4174 9.0625 50.75 9.0625L30.2083 9.0625 30.2083 7.85417C30.2083 7.18681 29.6674 6.64584 29 6.64584 28.3327 6.64584 27.7917 7.18681 27.7917 7.85417L27.7917 9.0625 7.25 9.0625C6.58264 9.0625 6.04167 9.60348 6.04167 10.2708 6.04167 10.9382 6.58264 11.4792 7.25 11.4792L8.45834 11.4792 8.45834 36.25 7.25 36.25C6.58264 36.25 6.04167 36.791 6.04167 37.4584 6.04167 38.1257 6.58264 38.6667 7.25 38.6667L25.7013 38.6667 16.3971 47.9709C15.9249 48.448 15.929 49.2176 16.4062 49.6897 16.8833 50.1619 17.6529 50.1578 18.125 49.6807L27.7917 40.014 27.7917 50.75C27.7917 51.4174 28.3327 51.9584 29 51.9584 29.6674 51.9584 30.2083 51.4174 30.2083 50.75L30.2083 39.9959 39.875 49.6625C40.3472 50.1347 41.1127 50.1347 41.5848 49.6625 42.057 49.1904 42.057 48.4249 41.5848 47.9527L32.2988 38.6667 50.75 38.6667C51.4174 38.6667 51.9584 38.1257 51.9584 37.4584 51.9584 36.791 51.4174 36.25 50.75 36.25Z" fill="#002060" transform="matrix(1 0 0 1.00053 185 373.199)"/><path d="M33.8334 15.7083 38.6667 15.7083 38.6667 32.625 33.8334 32.625Z" fill="#002060" transform="matrix(1 0 0 1.00053 185 373.199)"/><path d="M26.5833 21.1458 31.4167 21.1458 31.4167 32.625 26.5833 32.625Z" fill="#002060" transform="matrix(1 0 0 1.00053 185 373.199)"/><path d="M19.3333 25.375 24.1667 25.375 24.1667 32.625 19.3333 32.625Z" fill="#002060" transform="matrix(1 0 0 1.00053 185 373.199)"/></g></g></g><rect x="31" y="384.205" width="136" height="36.0192" fill="#FFFFFF"/><text font-family="Calibri,Calibri_MSFontService,sans-serif" font-weight="400" font-size="21.5101" transform="matrix(1 0 0 1.00053 46.9095 409)">Visualization</text><path d="M343.5 352.688 805.91 352.688" stroke="#D9D9D9" stroke-width="3.00073" stroke-miterlimit="8" stroke-dasharray="3.00073 3.00073" fill="none" fill-rule="evenodd"/><path d="M692.5 78.0157C692.5 74.4382 695.399 71.5381 698.974 71.5381L786.026 71.5381C789.601 71.5381 792.5 74.4382 792.5 78.0157L792.5 332.203C792.5 335.78 789.601 338.68 786.026 338.68L698.974 338.68C695.399 338.68 692.5 335.78 692.5 332.203Z" stroke="#D9D9D9" stroke-width="3.00073" stroke-miterlimit="8" fill="#FFFFFF" fill-rule="evenodd"/><path d="M448.5 79.8758C448.5 75.2711 452.231 71.5381 456.833 71.5381L645.167 71.5381C649.769 71.5381 653.5 75.2711 653.5 79.8758L653.5 330.343C653.5 334.948 649.769 338.68 645.167 338.68L456.833 338.68C452.231 338.68 448.5 334.948 448.5 330.343Z" stroke="#D9D9D9" stroke-width="3.00073" stroke-miterlimit="8" fill="#FFFFFF" fill-rule="evenodd"/><g><g><g><path d="M48.8989 45.8804 9.05535 45.8804C7.72723 45.8804 6.64059 44.7938 6.64059 43.4657L6.64059 14.4886C6.64059 13.1604 7.72723 12.0738 9.05535 12.0738L20.4047 12.0738C20.8877 12.0738 21.3706 12.1945 21.7328 12.4964L28.3734 16.9033 48.8989 16.9033C50.227 16.9033 51.3136 17.99 51.3136 19.3181L51.3136 43.4657C51.3136 44.7938 50.227 45.8804 48.8989 45.8804Z" stroke="#000000" stroke-width="0.804918" fill="#4472C4" transform="matrix(1 0 0 1.00336 471.023 69.4782)"/></g></g></g><g><g><g><path d="M48.8989 45.8804 9.05535 45.8804C7.72723 45.8804 6.64059 44.7938 6.64059 43.4657L6.64059 14.4886C6.64059 13.1604 7.72723 12.0738 9.05535 12.0738L20.4047 12.0738C20.8877 12.0738 21.3706 12.1945 21.7328 12.4964L28.3734 16.9033 48.8989 16.9033C50.227 16.9033 51.3136 17.99 51.3136 19.3181L51.3136 43.4657C51.3136 44.7938 50.227 45.8804 48.8989 45.8804Z" stroke="#000000" stroke-width="0.804918" fill="#4472C4" transform="matrix(1 0 0 1.00336 465.023 76.4819)"/></g></g></g><g><g><g><path d="M49.0628 46.0342 9.0857 46.0342C7.75313 46.0342 6.66285 44.9439 6.66285 43.6114L6.66285 14.5371C6.66285 13.2046 7.75313 12.1143 9.0857 12.1143L20.4731 12.1143C20.9577 12.1143 21.4423 12.2354 21.8057 12.5383L28.4685 16.96 49.0628 16.96C50.3954 16.96 51.4856 18.0503 51.4856 19.3828L51.4856 43.6114C51.4856 44.9439 50.3954 46.0342 49.0628 46.0342Z" stroke="#000000" stroke-width="0.807616" fill="#4472C4" transform="matrix(1.01742 0 0 1 457.919 83.4857)"/></g></g></g><g><g><g><path d="M48.8989 45.8804 9.05535 45.8804C7.72723 45.8804 6.64059 44.7938 6.64059 43.4657L6.64059 14.4886C6.64059 13.1604 7.72723 12.0738 9.05535 12.0738L20.4047 12.0738C20.8877 12.0738 21.3706 12.1945 21.7328 12.4964L28.3734 16.9033 48.8989 16.9033C50.227 16.9033 51.3136 17.99 51.3136 19.3181L51.3136 43.4657C51.3136 44.7938 50.227 45.8804 48.8989 45.8804Z" stroke="#000000" stroke-width="0.804918" fill="#4472C4" transform="matrix(1 0 0 1.00336 571.023 69.4782)"/></g></g></g><g><g><g><path d="M49.0629 46.0344 9.08573 46.0344C7.75315 46.0344 6.66287 44.9441 6.66287 43.6115L6.66287 14.5372C6.66287 13.2046 7.75315 12.1143 9.08573 12.1143L20.4732 12.1143C20.9577 12.1143 21.4423 12.2354 21.8057 12.5383L28.4686 16.96 49.0629 16.96C50.3955 16.96 51.4858 18.0503 51.4858 19.3829L51.4858 43.6115C51.4858 44.9441 50.3955 46.0344 49.0629 46.0344Z" stroke="#000000" stroke-width="0.807618" fill="#4472C4" transform="matrix(1.01742 0 0 1 563.919 76.4819)"/></g></g></g><g><g><g><path d="M48.8989 45.8804 9.05535 45.8804C7.72723 45.8804 6.64059 44.7938 6.64059 43.4657L6.64059 14.4886C6.64059 13.1604 7.72723 12.0738 9.05535 12.0738L20.4047 12.0738C20.8877 12.0738 21.3706 12.1945 21.7328 12.4964L28.3734 16.9033 48.8989 16.9033C50.227 16.9033 51.3136 17.99 51.3136 19.3181L51.3136 43.4657C51.3136 44.7938 50.227 45.8804 48.8989 45.8804Z" stroke="#000000" stroke-width="0.804918" fill="#4472C4" transform="matrix(1 0 0 1.00335 558.023 83.4857)"/></g></g></g><g><g><g><path d="M49.0629 46.0344 9.08573 46.0344C7.75315 46.0344 6.66287 44.9441 6.66287 43.6115L6.66287 14.5372C6.66287 13.2046 7.75315 12.1143 9.08573 12.1143L20.4732 12.1143C20.9577 12.1143 21.4423 12.2354 21.8057 12.5383L28.4686 16.96 49.0629 16.96C50.3955 16.96 51.4858 18.0503 51.4858 19.3829L51.4858 43.6115C51.4858 44.9441 50.3955 46.0344 49.0629 46.0344Z" stroke="#000000" stroke-width="0.807618" fill="#4472C4" transform="matrix(1.01742 0 0 1 718.919 69.4782)"/></g></g></g><g><g><g><path d="M48.8989 45.8804 9.05535 45.8804C7.72723 45.8804 6.64059 44.7938 6.64059 43.4657L6.64059 14.4886C6.64059 13.1604 7.72723 12.0738 9.05535 12.0738L20.4047 12.0738C20.8877 12.0738 21.3706 12.1945 21.7328 12.4964L28.3734 16.9033 48.8989 16.9033C50.227 16.9033 51.3136 17.99 51.3136 19.3181L51.3136 43.4657C51.3136 44.7938 50.227 45.8804 48.8989 45.8804Z" stroke="#000000" stroke-width="0.804918" fill="#4472C4" transform="matrix(1 0 0 1.00336 713.023 76.4819)"/></g></g></g><g><g><g><path d="M48.8989 45.8804 9.05535 45.8804C7.72723 45.8804 6.64059 44.7938 6.64059 43.4657L6.64059 14.4886C6.64059 13.1604 7.72723 12.0738 9.05535 12.0738L20.4047 12.0738C20.8877 12.0738 21.3706 12.1945 21.7328 12.4964L28.3734 16.9033 48.8989 16.9033C50.227 16.9033 51.3136 17.99 51.3136 19.3181L51.3136 43.4657C51.3136 44.7938 50.227 45.8804 48.8989 45.8804Z" stroke="#000000" stroke-width="0.804918" fill="#4472C4" transform="matrix(1 0 0 1.00335 707.023 83.4857)"/></g></g></g><rect x="331" y="90.048" width="115" height="36.0192" fill="#FFFFFF"/><text font-family="Calibri,Calibri_MSFontService,sans-serif" font-weight="400" font-size="21.5101" transform="matrix(1 0 0 1.00053 369.926 115)">Dataset</text><path d="M343.5 154.582 805.91 154.582" stroke="#D9D9D9" stroke-width="3.00073" stroke-miterlimit="8" stroke-dasharray="3.00073 3.00073" fill="none" fill-rule="evenodd"/><g><g><g><path d="M49.5417 8.45834 8.45834 8.45834 26.5833 26.5833 26.5833 44.7084 26.5833 49.5417 31.4167 44.7084 31.4167 26.5833Z" stroke="#000000" stroke-width="1.05936" fill="#70AD47" transform="matrix(1 0 0 1.00053 465 181.097)"/></g></g></g><g><g><g><path d="M49.568 8.46283 8.46283 8.46283 26.5975 26.5975 26.5975 44.7321 26.5975 49.568 31.4334 44.7321 31.4334 26.5975Z" stroke="#000000" stroke-width="1.05992" fill="#70AD47" transform="matrix(1.0167 0 0 1 564 181.097)"/></g></g></g><g><g><g><path d="M49.5416 8.45832 8.45832 8.45832 26.5833 26.5833 26.5833 44.7083 26.5833 49.5416 31.4166 44.7083 31.4166 26.5833Z" stroke="#000000" stroke-width="1.05936" fill="#70AD47" transform="matrix(1 0 0 1.00053 713 181.097)"/></g></g></g><path d="M343.5 250.634 805.91 250.634" stroke="#D9D9D9" stroke-width="3.00073" stroke-miterlimit="8" stroke-dasharray="3.00073 3.00073" fill="none" fill-rule="evenodd"/><g><g><g><path d="M35.8271 22.5354C33.2896 22.5354 31.2958 20.4813 31.2958 18.0042 31.2958 15.5271 33.35 13.4729 35.8271 13.4729 38.3646 13.4729 40.3584 15.5271 40.3584 18.0042 40.3584 20.4813 38.3042 22.5354 35.8271 22.5354ZM46.0375 15.1646C45.7959 14.3188 45.4938 13.5333 45.0709 12.8083L46.0375 9.96876 43.8625 7.79375 41.0229 8.76042C40.2979 8.3375 39.5125 8.03542 38.6667 7.79375L37.3375 5.13542 34.3167 5.13542 32.9875 7.79375C32.1417 8.03542 31.3563 8.3375 30.6313 8.76042L27.7917 7.79375 25.6167 9.96876 26.5833 12.8083C26.1604 13.5333 25.8583 14.3188 25.6167 15.1646L22.9583 16.4938 22.9583 19.5146 25.6167 20.8438C25.8583 21.6896 26.1604 22.475 26.5833 23.2L25.6167 26.0396 27.7313 28.1542 30.5708 27.1875C31.2958 27.6104 32.0813 27.9125 32.9271 28.1542L34.2563 30.8125 37.2771 30.8125 38.6063 28.1542C39.4521 27.9125 40.2375 27.6104 40.9625 27.1875L43.8021 28.1542 45.9771 26.0396 45.0104 23.2C45.4334 22.475 45.7959 21.6292 46.0375 20.8438L48.6959 19.5146 48.6959 16.4938 46.0375 15.1646Z" stroke="#000000" stroke-width="1.05936" fill="#FFC000" transform="matrix(1 0 0 1.00053 465 278.148)"/><path d="M22.1729 44.5271C19.6354 44.5271 17.6417 42.4729 17.6417 39.9959 17.6417 37.4584 19.6958 35.4646 22.1729 35.4646 24.7104 35.4646 26.7042 37.5188 26.7042 39.9959 26.7042 42.4729 24.7104 44.5271 22.1729 44.5271L22.1729 44.5271ZM31.4167 34.8 32.3834 31.9604 30.2083 29.7854 27.3688 30.7521C26.6438 30.3292 25.7979 30.0271 25.0125 29.7854L23.6833 27.1271 20.6625 27.1271 19.3333 29.7854C18.4875 30.0271 17.7021 30.3292 16.9771 30.7521L14.1375 29.7854 12.0229 31.9 12.9292 34.7396C12.5063 35.4646 12.2042 36.3104 11.9625 37.0959L9.30417 38.425 9.30417 41.4459 11.9625 42.775C12.2042 43.6209 12.5063 44.4063 12.9292 45.1313L12.0229 47.9709 14.1375 50.0854 16.9771 49.1792C17.7021 49.6021 18.4875 49.9042 19.3333 50.1459L20.6625 52.8042 23.6833 52.8042 25.0125 50.1459C25.8583 49.9042 26.6438 49.6021 27.3688 49.1792L30.2083 50.1459 32.3229 47.9709 31.4167 45.1917C31.8396 44.4667 32.1417 43.6813 32.3834 42.8354L35.0417 41.5063 35.0417 38.4854 32.3834 37.1563C32.1417 36.3104 31.8396 35.525 31.4167 34.8Z" stroke="#000000" stroke-width="1.05936" fill="#FFC000" transform="matrix(1 0 0 1.00053 465 278.148)"/></g></g></g><g><g><g><path d="M35.8462 22.5474C33.3073 22.5474 31.3125 20.4922 31.3125 18.0138 31.3125 15.5354 33.3678 13.4801 35.8462 13.4801 38.3851 13.4801 40.3799 15.5354 40.3799 18.0138 40.3799 20.4922 38.3246 22.5474 35.8462 22.5474ZM46.0621 15.1727C45.8203 14.3264 45.518 13.5406 45.0949 12.8152L46.0621 9.97407 43.8859 7.79791 41.0448 8.76509C40.3194 8.34195 39.5336 8.03971 38.6873 7.79791L37.3574 5.13816 34.335 5.13816 33.0051 7.79791C32.1588 8.03971 31.373 8.34195 30.6476 8.76509L27.8065 7.79791 25.6303 9.97407 26.5975 12.8152C26.1744 13.5406 25.8721 14.3264 25.6303 15.1727L22.9706 16.5026 22.9706 19.525 25.6303 20.8549C25.8721 21.7012 26.1744 22.487 26.5975 23.2124L25.6303 26.0535 27.746 28.1692 30.5871 27.202C31.3125 27.6252 32.0984 27.9274 32.9447 28.1692L34.2745 30.8289 37.297 30.8289 38.6269 28.1692C39.4731 27.9274 40.259 27.6252 40.9844 27.202L43.8255 28.1692 46.0016 26.0535 45.0344 23.2124C45.4576 22.487 45.8203 21.6407 46.0621 20.8549L48.7218 19.525 48.7218 16.5026 46.0621 15.1727Z" stroke="#000000" stroke-width="1.05992" fill="#FFC000" transform="matrix(1.0167 0 0 1 564 278.148)"/><path d="M22.1847 44.5508C19.6459 44.5508 17.6511 42.4956 17.6511 40.0172 17.6511 37.4783 19.7063 35.4835 22.1847 35.4835 24.7236 35.4835 26.7184 37.5388 26.7184 40.0172 26.7184 42.4956 24.7236 44.5508 22.1847 44.5508L22.1847 44.5508ZM31.4334 34.8186 32.4006 31.9775 30.2245 29.8013 27.3834 30.7685C26.658 30.3454 25.8117 30.0431 25.0258 29.8013L23.696 27.1416 20.6735 27.1416 19.3437 29.8013C18.4974 30.0431 17.7115 30.3454 16.9861 30.7685L14.145 29.8013 12.0293 31.917 12.9361 34.7581C12.5129 35.4835 12.2107 36.3298 11.9689 37.1156L9.30913 38.4455 9.30913 41.4679 11.9689 42.7978C12.2107 43.6441 12.5129 44.4299 12.9361 45.1553L12.0293 47.9964 14.145 50.1121 16.9861 49.2054C17.7115 49.6286 18.4974 49.9308 19.3437 50.1726L20.6735 52.8323 23.696 52.8323 25.0258 50.1726C25.8721 49.9308 26.658 49.6286 27.3834 49.2054L30.2245 50.1726 32.3402 47.9964 31.4334 45.2158C31.8566 44.4904 32.1588 43.7046 32.4006 42.8583L35.0604 41.5284 35.0604 38.506 32.4006 37.1761C32.1588 36.3298 31.8566 35.544 31.4334 34.8186Z" stroke="#000000" stroke-width="1.05992" fill="#FFC000" transform="matrix(1.0167 0 0 1 564 278.148)"/></g></g></g><g><g><g><path d="M35.827 22.5354C33.2895 22.5354 31.2958 20.4812 31.2958 18.0041 31.2958 15.5271 33.35 13.4729 35.827 13.4729 38.3645 13.4729 40.3583 15.5271 40.3583 18.0041 40.3583 20.4812 38.3041 22.5354 35.827 22.5354ZM46.0374 15.1646C45.7958 14.3187 45.4937 13.5333 45.0708 12.8083L46.0374 9.96874 43.8624 7.79374 41.0229 8.76041C40.2979 8.33749 39.5125 8.03541 38.6666 7.79374L37.3375 5.13541 34.3166 5.13541 32.9875 7.79374C32.1416 8.03541 31.3562 8.33749 30.6312 8.76041L27.7916 7.79374 25.6166 9.96874 26.5833 12.8083C26.1604 13.5333 25.8583 14.3187 25.6166 15.1646L22.9583 16.4937 22.9583 19.5146 25.6166 20.8437C25.8583 21.6896 26.1604 22.475 26.5833 23.2L25.6166 26.0396 27.7312 28.1541 30.5708 27.1875C31.2958 27.6104 32.0812 27.9125 32.927 28.1541L34.2562 30.8125 37.277 30.8125 38.6062 28.1541C39.452 27.9125 40.2374 27.6104 40.9625 27.1875L43.802 28.1541 45.977 26.0396 45.0104 23.2C45.4333 22.475 45.7958 21.6291 46.0374 20.8437L48.6958 19.5146 48.6958 16.4937 46.0374 15.1646Z" stroke="#000000" stroke-width="1.05936" fill="#FFC000" transform="matrix(1 0 0 1.00053 713 278.148)"/><path d="M22.1729 44.527C19.6354 44.527 17.6416 42.4729 17.6416 39.9958 17.6416 37.4583 19.6958 35.4645 22.1729 35.4645 24.7104 35.4645 26.7041 37.5187 26.7041 39.9958 26.7041 42.4729 24.7104 44.527 22.1729 44.527L22.1729 44.527ZM31.4166 34.8 32.3833 31.9604 30.2083 29.7854 27.3687 30.752C26.6437 30.3291 25.7979 30.027 25.0125 29.7854L23.6833 27.1271 20.6625 27.1271 19.3333 29.7854C18.4875 30.027 17.7021 30.3291 16.9771 30.752L14.1375 29.7854 12.0229 31.9 12.9292 34.7395C12.5062 35.4645 12.2042 36.3104 11.9625 37.0958L9.30415 38.4249 9.30415 41.4458 11.9625 42.7749C12.2042 43.6208 12.5062 44.4062 12.9292 45.1312L12.0229 47.9708 14.1375 50.0854 16.9771 49.1791C17.7021 49.602 18.4875 49.9041 19.3333 50.1458L20.6625 52.8041 23.6833 52.8041 25.0125 50.1458C25.8583 49.9041 26.6437 49.602 27.3687 49.1791L30.2083 50.1458 32.3229 47.9708 31.4166 45.1916C31.8395 44.4666 32.1416 43.6812 32.3833 42.8354L35.0416 41.5062 35.0416 38.4854 32.3833 37.1562C32.1416 36.3104 31.8395 35.525 31.4166 34.8Z" stroke="#000000" stroke-width="1.05936" fill="#FFC000" transform="matrix(1 0 0 1.00053 713 278.148)"/></g></g></g><rect x="324" y="192.102" width="122" height="36.0192" fill="#FFFFFF"/><text font-family="Calibri,Calibri_MSFontService,sans-serif" font-weight="400" font-size="21.5101" transform="matrix(1 0 0 1.00053 383.663 218)">Filters</text><rect x="322" y="289.154" width="124" height="36.0192" fill="#FFFFFF"/><text font-family="Calibri,Calibri_MSFontService,sans-serif" font-weight="400" font-size="21.5101" transform="matrix(1 0 0 1.00053 366.116 314)">Analysis</text><path d="M502 146.578 502 161.586 509.5 161.586 494.5 176.594 479.5 161.586 487 161.586 487 146.578Z" stroke="#AE5A21" stroke-width="1.33437" stroke-miterlimit="8" fill="#ED7D31" fill-rule="evenodd"/><path d="M502 243.63 502 258.137 509.5 258.137 494.5 272.645 479.5 258.137 487 258.137 487 243.63Z" stroke="#AE5A21" stroke-width="1.33437" stroke-miterlimit="8" fill="#ED7D31" fill-rule="evenodd"/><path d="M502 344.684 502 359.692 509.5 359.692 494.5 374.7 479.5 359.692 487 359.692 487 344.684Z" stroke="#AE5A21" stroke-width="1.33437" stroke-miterlimit="8" fill="#ED7D31" fill-rule="evenodd"/><path d="M602 344.684 602 359.692 609.5 359.692 594.5 374.7 579.5 359.692 587 359.692 587 344.684Z" stroke="#AE5A21" stroke-width="1.33437" stroke-miterlimit="8" fill="#ED7D31" fill-rule="evenodd"/><path d="M750 344.684 750 359.692 757.5 359.692 742.5 374.7 727.5 359.692 735 359.692 735 344.684Z" stroke="#AE5A21" stroke-width="1.33437" stroke-miterlimit="8" fill="#ED7D31" fill-rule="evenodd"/><path d="M602 146.578 602 161.586 609.5 161.586 594.5 176.594 579.5 161.586 587 161.586 587 146.578Z" stroke="#AE5A21" stroke-width="1.33437" stroke-miterlimit="8" fill="#ED7D31" fill-rule="evenodd"/><path d="M602 243.63 602 258.137 609.5 258.137 594.5 272.645 579.5 258.137 587 258.137 587 243.63Z" stroke="#AE5A21" stroke-width="1.33437" stroke-miterlimit="8" fill="#ED7D31" fill-rule="evenodd"/><path d="M750 146.578 750 161.586 757.5 161.586 742.5 176.594 727.5 161.586 735 161.586 735 146.578Z" stroke="#AE5A21" stroke-width="1.33437" stroke-miterlimit="8" fill="#ED7D31" fill-rule="evenodd"/><path d="M750 243.63 750 258.137 757.5 258.137 742.5 272.645 727.5 258.137 735 258.137 735 243.63Z" stroke="#AE5A21" stroke-width="1.33437" stroke-miterlimit="8" fill="#ED7D31" fill-rule="evenodd"/><rect x="314" y="389.207" width="132" height="36.0192" fill="#FFFFFF"/><text font-family="Calibri,Calibri_MSFontService,sans-serif" font-weight="400" font-size="21.5101" transform="matrix(1 0 0 1.00053 358.071 414)">Combine</text><path d="M343.5 447.739 805.91 447.739" stroke="#D9D9D9" stroke-width="3.00073" stroke-miterlimit="8" stroke-dasharray="3.00073 3.00073" fill="none" fill-rule="evenodd"/><g><g><g><path d="M45.9166 13.2916 45.9166 35.0416 12.0833 35.0416 12.0833 13.2916ZM50.7499 36.25 49.5416 36.25 49.5416 11.4792 50.7499 11.4792C51.4173 11.4792 51.9583 10.9382 51.9583 10.2708 51.9583 9.60346 51.4173 9.06249 50.7499 9.06249L30.2083 9.06249 30.2083 7.85416C30.2083 7.1868 29.6673 6.64582 29 6.64582 28.3326 6.64582 27.7916 7.1868 27.7916 7.85416L27.7916 9.06249 7.24999 9.06249C6.58263 9.06249 6.04166 9.60346 6.04166 10.2708 6.04166 10.9382 6.58263 11.4792 7.24999 11.4792L8.45832 11.4792 8.45832 36.25 7.24999 36.25C6.58263 36.25 6.04166 36.7909 6.04166 37.4583 6.04166 38.1256 6.58263 38.6666 7.24999 38.6666L25.7012 38.6666 16.3971 47.9708C15.9249 48.4479 15.929 49.2175 16.4061 49.6896 16.8833 50.1618 17.6528 50.1577 18.125 49.6806L27.7916 40.0139 27.7916 50.7499C27.7916 51.4173 28.3326 51.9583 29 51.9583 29.6673 51.9583 30.2083 51.4173 30.2083 50.7499L30.2083 39.9958 39.875 49.6624C40.3471 50.1346 41.1126 50.1346 41.5847 49.6624 42.0569 49.1903 42.0569 48.4248 41.5847 47.9526L32.2987 38.6666 50.7499 38.6666C51.4173 38.6666 51.9583 38.1256 51.9583 37.4583 51.9583 36.7909 51.4173 36.25 50.7499 36.25Z" fill="#002060" transform="matrix(1 0 0 1.00053 566 469.25)"/><path d="M33.8333 15.7083 38.6666 15.7083 38.6666 32.625 33.8333 32.625Z" fill="#002060" transform="matrix(1 0 0 1.00053 566 469.25)"/><path d="M26.5833 21.1458 31.4166 21.1458 31.4166 32.625 26.5833 32.625Z" fill="#002060" transform="matrix(1 0 0 1.00053 566 469.25)"/><path d="M19.3333 25.375 24.1666 25.375 24.1666 32.625 19.3333 32.625Z" fill="#002060" transform="matrix(1 0 0 1.00053 566 469.25)"/></g></g></g><path d="M602 439.734 602 454.242 609.5 454.242 594.5 468.75 579.5 454.242 587 454.242 587 439.734Z" stroke="#AE5A21" stroke-width="1.33437" stroke-miterlimit="8" fill="#ED7D31" fill-rule="evenodd"/><rect x="314" y="480.256" width="132" height="36.0192" fill="#FFFFFF"/><text font-family="Calibri,Calibri_MSFontService,sans-serif" font-weight="400" font-size="21.5101" transform="matrix(1 0 0 1.00053 326.123 505)">Visualization</text><text font-family="Calibri,Calibri_MSFontService,sans-serif" font-weight="400" font-size="21.5101" transform="matrix(1 0 0 1.00053 513.647 145)">DS</text><text font-family="Calibri,Calibri_MSFontService,sans-serif" font-weight="400" font-size="14.34" transform="matrix(1 0 0 1.00053 536.653 149)">1</text><text font-family="Calibri,Calibri_MSFontService,sans-serif" font-weight="400" font-size="21.5101" transform="matrix(1 0 0 1.00053 612.155 145)">DS</text><text font-family="Calibri,Calibri_MSFontService,sans-serif" font-weight="400" font-size="14.34" transform="matrix(1 0 0 1.00053 635.161 149)">2</text><text font-family="Calibri,Calibri_MSFontService,sans-serif" font-weight="400" font-size="21.5101" transform="matrix(1 0 0 1.00053 760.336 145)">DS</text><text font-family="Calibri,Calibri_MSFontService,sans-serif" font-weight="400" font-size="14.34" transform="matrix(1 0 0 1.00053 783.341 149)">n</text><text font-family="Calibri,Calibri_MSFontService,sans-serif" font-weight="400" font-size="21.5101" transform="matrix(1 0 0 1.00053 516.786 243)">F</text><text font-family="Calibri,Calibri_MSFontService,sans-serif" font-weight="400" font-size="14.34" transform="matrix(1 0 0 1.00053 526.622 247)">1</text><text font-family="Calibri,Calibri_MSFontService,sans-serif" font-weight="400" font-size="21.5101" transform="matrix(1 0 0 1.00053 615.294 243)">F</text><text font-family="Calibri,Calibri_MSFontService,sans-serif" font-weight="400" font-size="14.34" transform="matrix(1 0 0 1.00053 625.13 247)">2</text><text font-family="Calibri,Calibri_MSFontService,sans-serif" font-weight="400" font-size="21.5101" transform="matrix(1 0 0 1.00053 763.458 243)">F</text><text font-family="Calibri,Calibri_MSFontService,sans-serif" font-weight="400" font-size="14.34" transform="matrix(1 0 0 1.00053 773.294 247)">n</text><text font-family="Calibri,Calibri_MSFontService,sans-serif" font-weight="400" font-size="21.5101" transform="matrix(1 0 0 1.00053 515.453 331)">A</text><text font-family="Calibri,Calibri_MSFontService,sans-serif" font-weight="400" font-size="14.34" transform="matrix(1 0 0 1.00053 527.956 335)">1</text><text font-family="Calibri,Calibri_MSFontService,sans-serif" font-weight="400" font-size="21.5101" transform="matrix(1 0 0 1.00053 613.961 331)">A</text><text font-family="Calibri,Calibri_MSFontService,sans-serif" font-weight="400" font-size="14.34" transform="matrix(1 0 0 1.00053 626.464 335)">1</text><text font-family="Calibri,Calibri_MSFontService,sans-serif" font-weight="400" font-size="21.5101" transform="matrix(1 0 0 1.00053 762.208 331)">A</text><text font-family="Calibri,Calibri_MSFontService,sans-serif" font-weight="400" font-size="14.34" transform="matrix(1 0 0 1.00053 774.711 335)">1</text><path d="M475.926 380.556 771.847 380.556 771.847 393.894 475.926 393.894Z" fill="#A5A5A5" fill-rule="evenodd"/><path d="M475.926 393.894 771.847 393.894 771.847 407.232 475.926 407.232Z" fill="#E1E1E1" fill-rule="evenodd"/><path d="M475.926 407.232 771.847 407.232 771.847 420.569 475.926 420.569Z" fill="#F0F0F0" fill-rule="evenodd"/><path d="M475.926 420.569 771.847 420.569 771.847 433.907 475.926 433.907Z" fill="#E1E1E1" fill-rule="evenodd"/><path d="M475.259 393.894 772.514 393.894" stroke="#FFFFFF" stroke-width="4.00098" stroke-linejoin="round" stroke-miterlimit="10" fill="none" fill-rule="evenodd"/><path d="M475.259 407.232 772.514 407.232" stroke="#FFFFFF" stroke-width="1.33366" stroke-linejoin="round" stroke-miterlimit="10" fill="none" fill-rule="evenodd"/><path d="M475.259 420.569 772.514 420.569" stroke="#FFFFFF" stroke-width="1.33366" stroke-linejoin="round" stroke-miterlimit="10" fill="none" fill-rule="evenodd"/><path d="M475.926 379.889 475.926 434.574" stroke="#FFFFFF" stroke-width="1.33366" stroke-linejoin="round" stroke-miterlimit="10" fill="none" fill-rule="evenodd"/><path d="M771.847 379.889 771.847 434.574" stroke="#FFFFFF" stroke-width="1.33366" stroke-linejoin="round" stroke-miterlimit="10" fill="none" fill-rule="evenodd"/><path d="M475.259 380.556 772.514 380.556" stroke="#FFFFFF" stroke-width="1.33366" stroke-linejoin="round" stroke-miterlimit="10" fill="none" fill-rule="evenodd"/><path d="M475.259 433.907 772.514 433.907" stroke="#FFFFFF" stroke-width="1.33366" stroke-linejoin="round" stroke-miterlimit="10" fill="none" fill-rule="evenodd"/><path d="M660.5 106.056C660.5 104.675 661.619 103.555 663 103.555 664.381 103.555 665.5 104.675 665.5 106.056 665.5 107.438 664.381 108.558 663 108.558 661.619 108.558 660.5 107.438 660.5 106.056Z" stroke="#000000" stroke-width="1.33366" stroke-miterlimit="8" fill-rule="evenodd"/><path d="M667.5 106.056C667.5 104.675 668.619 103.555 670 103.555 671.381 103.555 672.5 104.675 672.5 106.056 672.5 107.438 671.381 108.558 670 108.558 668.619 108.558 667.5 107.438 667.5 106.056Z" stroke="#000000" stroke-width="1.33366" stroke-miterlimit="8" fill-rule="evenodd"/><path d="M675.5 106.056C675.5 104.675 676.395 103.555 677.5 103.555 678.605 103.555 679.5 104.675 679.5 106.056 679.5 107.438 678.605 108.558 677.5 108.558 676.395 108.558 675.5 107.438 675.5 106.056Z" stroke="#000000" stroke-width="1.33366" stroke-miterlimit="8" fill-rule="evenodd"/><path d="M660.5 204.109C660.5 202.727 661.619 201.607 663 201.607 664.381 201.607 665.5 202.727 665.5 204.109 665.5 205.49 664.381 206.61 663 206.61 661.619 206.61 660.5 205.49 660.5 204.109Z" stroke="#000000" stroke-width="1.33366" stroke-miterlimit="8" fill-rule="evenodd"/><path d="M667.5 204.109C667.5 202.727 668.619 201.607 670 201.607 671.381 201.607 672.5 202.727 672.5 204.109 672.5 205.49 671.381 206.61 670 206.61 668.619 206.61 667.5 205.49 667.5 204.109Z" stroke="#000000" stroke-width="1.33366" stroke-miterlimit="8" fill-rule="evenodd"/><path d="M675.5 204.109C675.5 202.727 676.395 201.607 677.5 201.607 678.605 201.607 679.5 202.727 679.5 204.109 679.5 205.49 678.605 206.61 677.5 206.61 676.395 206.61 675.5 205.49 675.5 204.109Z" stroke="#000000" stroke-width="1.33366" stroke-miterlimit="8" fill-rule="evenodd"/><path d="M660.5 300.16C660.5 298.778 661.619 297.659 663 297.659 664.381 297.659 665.5 298.778 665.5 300.16 665.5 301.541 664.381 302.661 663 302.661 661.619 302.661 660.5 301.541 660.5 300.16Z" stroke="#000000" stroke-width="1.33366" stroke-miterlimit="8" fill-rule="evenodd"/><path d="M667.5 300.16C667.5 298.778 668.619 297.659 670 297.659 671.381 297.659 672.5 298.778 672.5 300.16 672.5 301.541 671.381 302.661 670 302.661 668.619 302.661 667.5 301.541 667.5 300.16Z" stroke="#000000" stroke-width="1.33366" stroke-miterlimit="8" fill-rule="evenodd"/><path d="M675.5 300.16C675.5 298.778 676.395 297.659 677.5 297.659 678.605 297.659 679.5 298.778 679.5 300.16 679.5 301.541 678.605 302.661 677.5 302.661 676.395 302.661 675.5 301.541 675.5 300.16Z" stroke="#000000" stroke-width="1.33366" stroke-miterlimit="8" fill-rule="evenodd"/><path d="M550.5 71.5381 550.5 338.132" stroke="#D9D9D9" stroke-width="3.00073" stroke-miterlimit="8" fill="none" fill-rule="evenodd"/><path d="M871.5 352.688 1333.91 352.688" stroke="#D9D9D9" stroke-width="3.00073" stroke-miterlimit="8" stroke-dasharray="3.00073 3.00073" fill="none" fill-rule="evenodd"/><path d="M1220.5 78.0157C1220.5 74.4382 1223.4 71.5381 1226.97 71.5381L1314.03 71.5381C1317.6 71.5381 1320.5 74.4382 1320.5 78.0157L1320.5 332.203C1320.5 335.78 1317.6 338.68 1314.03 338.68L1226.97 338.68C1223.4 338.68 1220.5 335.78 1220.5 332.203Z" stroke="#D9D9D9" stroke-width="3.00073" stroke-miterlimit="8" fill="#FFFFFF" fill-rule="evenodd"/><path d="M974.5 80.3094C974.5 75.4652 978.425 71.5381 983.267 71.5381L1172.73 71.5381C1177.58 71.5381 1181.5 75.4652 1181.5 80.3094L1181.5 329.909C1181.5 334.753 1177.58 338.68 1172.73 338.68L983.267 338.68C978.425 338.68 974.5 334.753 974.5 329.909Z" stroke="#D9D9D9" stroke-width="3.00073" stroke-miterlimit="8" fill="#FFFFFF" fill-rule="evenodd"/><g><g><g><path d="M48.8989 45.8804 9.05535 45.8804C7.72723 45.8804 6.64059 44.7938 6.64059 43.4657L6.64059 14.4886C6.64059 13.1604 7.72723 12.0738 9.05535 12.0738L20.4047 12.0738C20.8877 12.0738 21.3706 12.1945 21.7328 12.4964L28.3734 16.9033 48.8989 16.9033C50.227 16.9033 51.3136 17.99 51.3136 19.3181L51.3136 43.4657C51.3136 44.7938 50.227 45.8804 48.8989 45.8804Z" stroke="#000000" stroke-width="0.804918" fill="#4472C4" transform="matrix(1 0 0 1.00336 999.023 69.4782)"/></g></g></g><g><g><g><path d="M49.0629 46.0344 9.08573 46.0344C7.75315 46.0344 6.66287 44.9441 6.66287 43.6115L6.66287 14.5372C6.66287 13.2046 7.75315 12.1143 9.08573 12.1143L20.4732 12.1143C20.9577 12.1143 21.4423 12.2354 21.8057 12.5383L28.4686 16.96 49.0629 16.96C50.3955 16.96 51.4858 18.0503 51.4858 19.3829L51.4858 43.6115C51.4858 44.9441 50.3955 46.0344 49.0629 46.0344Z" stroke="#000000" stroke-width="0.807618" fill="#4472C4" transform="matrix(1.01742 0 0 1 991.919 76.4819)"/></g></g></g><g><g><g><path d="M48.8989 45.8804 9.05535 45.8804C7.72723 45.8804 6.64059 44.7938 6.64059 43.4657L6.64059 14.4886C6.64059 13.1604 7.72723 12.0738 9.05535 12.0738L20.4047 12.0738C20.8877 12.0738 21.3706 12.1945 21.7328 12.4964L28.3734 16.9033 48.8989 16.9033C50.227 16.9033 51.3136 17.99 51.3136 19.3181L51.3136 43.4657C51.3136 44.7938 50.227 45.8804 48.8989 45.8804Z" stroke="#000000" stroke-width="0.804918" fill="#4472C4" transform="matrix(1 0 0 1.00335 986.023 83.4857)"/></g></g></g><g><g><g><path d="M49.0629 46.0344 9.08573 46.0344C7.75315 46.0344 6.66287 44.9441 6.66287 43.6115L6.66287 14.5372C6.66287 13.2046 7.75315 12.1143 9.08573 12.1143L20.4732 12.1143C20.9577 12.1143 21.4423 12.2354 21.8057 12.5383L28.4686 16.96 49.0629 16.96C50.3955 16.96 51.4858 18.0503 51.4858 19.3829L51.4858 43.6115C51.4858 44.9441 50.3955 46.0344 49.0629 46.0344Z" stroke="#000000" stroke-width="0.807618" fill="#4472C4" transform="matrix(1.01742 0 0 1 1097.92 69.4782)"/></g></g></g><g><g><g><path d="M48.8989 45.8804 9.05535 45.8804C7.72723 45.8804 6.64059 44.7938 6.64059 43.4657L6.64059 14.4886C6.64059 13.1604 7.72723 12.0738 9.05535 12.0738L20.4047 12.0738C20.8877 12.0738 21.3706 12.1945 21.7328 12.4964L28.3734 16.9033 48.8989 16.9033C50.227 16.9033 51.3136 17.99 51.3136 19.3181L51.3136 43.4657C51.3136 44.7938 50.227 45.8804 48.8989 45.8804Z" stroke="#000000" stroke-width="0.804918" fill="#4472C4" transform="matrix(1 0 0 1.00336 1092.02 76.4819)"/></g></g></g><g><g><g><path d="M48.8989 45.8804 9.05535 45.8804C7.72723 45.8804 6.64059 44.7938 6.64059 43.4657L6.64059 14.4886C6.64059 13.1604 7.72723 12.0738 9.05535 12.0738L20.4047 12.0738C20.8877 12.0738 21.3706 12.1945 21.7328 12.4964L28.3734 16.9033 48.8989 16.9033C50.227 16.9033 51.3136 17.99 51.3136 19.3181L51.3136 43.4657C51.3136 44.7938 50.227 45.8804 48.8989 45.8804Z" stroke="#000000" stroke-width="0.804918" fill="#4472C4" transform="matrix(1 0 0 1.00335 1086.02 83.4857)"/></g></g></g><g><g><g><path d="M48.8989 45.8804 9.05535 45.8804C7.72723 45.8804 6.64059 44.7938 6.64059 43.4657L6.64059 14.4886C6.64059 13.1604 7.72723 12.0738 9.05535 12.0738L20.4047 12.0738C20.8877 12.0738 21.3706 12.1945 21.7328 12.4964L28.3734 16.9033 48.8989 16.9033C50.227 16.9033 51.3136 17.99 51.3136 19.3181L51.3136 43.4657C51.3136 44.7938 50.227 45.8804 48.8989 45.8804Z" stroke="#000000" stroke-width="0.804918" fill="#4472C4" transform="matrix(1 0 0 1.00336 1247.02 69.4782)"/></g></g></g><g><g><g><path d="M48.8989 45.8804 9.05535 45.8804C7.72723 45.8804 6.64059 44.7938 6.64059 43.4657L6.64059 14.4886C6.64059 13.1604 7.72723 12.0738 9.05535 12.0738L20.4047 12.0738C20.8877 12.0738 21.3706 12.1945 21.7328 12.4964L28.3734 16.9033 48.8989 16.9033C50.227 16.9033 51.3136 17.99 51.3136 19.3181L51.3136 43.4657C51.3136 44.7938 50.227 45.8804 48.8989 45.8804Z" stroke="#000000" stroke-width="0.804918" fill="#4472C4" transform="matrix(1 0 0 1.00336 1241.02 76.4819)"/></g></g></g><g><g><g><path d="M48.8989 45.8804 9.05535 45.8804C7.72723 45.8804 6.64059 44.7938 6.64059 43.4657L6.64059 14.4886C6.64059 13.1604 7.72723 12.0738 9.05535 12.0738L20.4047 12.0738C20.8877 12.0738 21.3706 12.1945 21.7328 12.4964L28.3734 16.9033 48.8989 16.9033C50.227 16.9033 51.3136 17.99 51.3136 19.3181L51.3136 43.4657C51.3136 44.7938 50.227 45.8804 48.8989 45.8804Z" stroke="#000000" stroke-width="0.804918" fill="#4472C4" transform="matrix(1 0 0 1.00335 1235.02 83.4857)"/></g></g></g><rect x="837" y="90.048" width="136" height="36.0192" fill="#FFFFFF"/><text font-family="Calibri,Calibri_MSFontService,sans-serif" font-weight="400" font-size="21.5101" transform="matrix(1 0 0 1.00053 896.75 115)">Dataset</text><path d="M871.5 154.582 1333.91 154.582" stroke="#D9D9D9" stroke-width="3.00073" stroke-miterlimit="8" stroke-dasharray="3.00073 3.00073" fill="none" fill-rule="evenodd"/><g><g><g><path d="M49.568 8.46283 8.46283 8.46283 26.5975 26.5975 26.5975 44.7321 26.5975 49.568 31.4334 44.7321 31.4334 26.5975Z" stroke="#000000" stroke-width="1.05992" fill="#70AD47" transform="matrix(1.0167 0 0 1 992 181.097)"/></g></g></g><g><g><g><path d="M49.5416 8.45832 8.45832 8.45832 26.5833 26.5833 26.5833 44.7083 26.5833 49.5416 31.4166 44.7083 31.4166 26.5833Z" stroke="#000000" stroke-width="1.05936" fill="#70AD47" transform="matrix(1 0 0 1.00053 1092 181.097)"/></g></g></g><g><g><g><path d="M49.5417 8.45834 8.45834 8.45834 26.5833 26.5833 26.5833 44.7084 26.5833 49.5417 31.4167 44.7084 31.4167 26.5833Z" stroke="#000000" stroke-width="1.05936" fill="#70AD47" transform="matrix(1 0 0 1.00053 1241 181.097)"/></g></g></g><path d="M871.5 250.634 1333.91 250.634" stroke="#D9D9D9" stroke-width="3.00073" stroke-miterlimit="8" stroke-dasharray="3.00073 3.00073" fill="none" fill-rule="evenodd"/><g><g><g><path d="M35.8462 22.5474C33.3073 22.5474 31.3125 20.4922 31.3125 18.0138 31.3125 15.5354 33.3678 13.4801 35.8462 13.4801 38.3851 13.4801 40.3799 15.5354 40.3799 18.0138 40.3799 20.4922 38.3246 22.5474 35.8462 22.5474ZM46.0621 15.1727C45.8203 14.3264 45.518 13.5406 45.0949 12.8152L46.0621 9.97407 43.8859 7.79791 41.0448 8.76509C40.3194 8.34195 39.5336 8.03971 38.6873 7.79791L37.3574 5.13816 34.335 5.13816 33.0051 7.79791C32.1588 8.03971 31.373 8.34195 30.6476 8.76509L27.8065 7.79791 25.6303 9.97407 26.5975 12.8152C26.1744 13.5406 25.8721 14.3264 25.6303 15.1727L22.9706 16.5026 22.9706 19.525 25.6303 20.8549C25.8721 21.7012 26.1744 22.487 26.5975 23.2124L25.6303 26.0535 27.746 28.1692 30.5871 27.202C31.3125 27.6252 32.0984 27.9274 32.9447 28.1692L34.2745 30.8289 37.297 30.8289 38.6269 28.1692C39.4731 27.9274 40.259 27.6252 40.9844 27.202L43.8255 28.1692 46.0016 26.0535 45.0344 23.2124C45.4576 22.487 45.8203 21.6407 46.0621 20.8549L48.7218 19.525 48.7218 16.5026 46.0621 15.1727Z" stroke="#000000" stroke-width="1.05992" fill="#FFC000" transform="matrix(1.0167 0 0 1 992 278.148)"/><path d="M22.1847 44.5508C19.6459 44.5508 17.6511 42.4956 17.6511 40.0172 17.6511 37.4783 19.7063 35.4835 22.1847 35.4835 24.7236 35.4835 26.7184 37.5388 26.7184 40.0172 26.7184 42.4956 24.7236 44.5508 22.1847 44.5508L22.1847 44.5508ZM31.4334 34.8186 32.4006 31.9775 30.2245 29.8013 27.3834 30.7685C26.658 30.3454 25.8117 30.0431 25.0258 29.8013L23.696 27.1416 20.6735 27.1416 19.3437 29.8013C18.4974 30.0431 17.7115 30.3454 16.9861 30.7685L14.145 29.8013 12.0293 31.917 12.9361 34.7581C12.5129 35.4835 12.2107 36.3298 11.9689 37.1156L9.30913 38.4455 9.30913 41.4679 11.9689 42.7978C12.2107 43.6441 12.5129 44.4299 12.9361 45.1553L12.0293 47.9964 14.145 50.1121 16.9861 49.2054C17.7115 49.6286 18.4974 49.9308 19.3437 50.1726L20.6735 52.8323 23.696 52.8323 25.0258 50.1726C25.8721 49.9308 26.658 49.6286 27.3834 49.2054L30.2245 50.1726 32.3402 47.9964 31.4334 45.2158C31.8566 44.4904 32.1588 43.7046 32.4006 42.8583L35.0604 41.5284 35.0604 38.506 32.4006 37.1761C32.1588 36.3298 31.8566 35.544 31.4334 34.8186Z" stroke="#000000" stroke-width="1.05992" fill="#FFC000" transform="matrix(1.0167 0 0 1 992 278.148)"/></g></g></g><g><g><g><path d="M35.827 22.5354C33.2895 22.5354 31.2958 20.4812 31.2958 18.0041 31.2958 15.5271 33.35 13.4729 35.827 13.4729 38.3645 13.4729 40.3583 15.5271 40.3583 18.0041 40.3583 20.4812 38.3041 22.5354 35.827 22.5354ZM46.0374 15.1646C45.7958 14.3187 45.4937 13.5333 45.0708 12.8083L46.0374 9.96874 43.8624 7.79374 41.0229 8.76041C40.2979 8.33749 39.5125 8.03541 38.6666 7.79374L37.3375 5.13541 34.3166 5.13541 32.9875 7.79374C32.1416 8.03541 31.3562 8.33749 30.6312 8.76041L27.7916 7.79374 25.6166 9.96874 26.5833 12.8083C26.1604 13.5333 25.8583 14.3187 25.6166 15.1646L22.9583 16.4937 22.9583 19.5146 25.6166 20.8437C25.8583 21.6896 26.1604 22.475 26.5833 23.2L25.6166 26.0396 27.7312 28.1541 30.5708 27.1875C31.2958 27.6104 32.0812 27.9125 32.927 28.1541L34.2562 30.8125 37.277 30.8125 38.6062 28.1541C39.452 27.9125 40.2374 27.6104 40.9625 27.1875L43.802 28.1541 45.977 26.0396 45.0104 23.2C45.4333 22.475 45.7958 21.6291 46.0374 20.8437L48.6958 19.5146 48.6958 16.4937 46.0374 15.1646Z" stroke="#000000" stroke-width="1.05936" fill="#FFC000" transform="matrix(1 0 0 1.00053 1092 278.148)"/><path d="M22.1729 44.527C19.6354 44.527 17.6416 42.4729 17.6416 39.9958 17.6416 37.4583 19.6958 35.4645 22.1729 35.4645 24.7104 35.4645 26.7041 37.5187 26.7041 39.9958 26.7041 42.4729 24.7104 44.527 22.1729 44.527L22.1729 44.527ZM31.4166 34.8 32.3833 31.9604 30.2083 29.7854 27.3687 30.752C26.6437 30.3291 25.7979 30.027 25.0125 29.7854L23.6833 27.1271 20.6625 27.1271 19.3333 29.7854C18.4875 30.027 17.7021 30.3291 16.9771 30.752L14.1375 29.7854 12.0229 31.9 12.9292 34.7395C12.5062 35.4645 12.2042 36.3104 11.9625 37.0958L9.30415 38.4249 9.30415 41.4458 11.9625 42.7749C12.2042 43.6208 12.5062 44.4062 12.9292 45.1312L12.0229 47.9708 14.1375 50.0854 16.9771 49.1791C17.7021 49.602 18.4875 49.9041 19.3333 50.1458L20.6625 52.8041 23.6833 52.8041 25.0125 50.1458C25.8583 49.9041 26.6437 49.602 27.3687 49.1791L30.2083 50.1458 32.3229 47.9708 31.4166 45.1916C31.8395 44.4666 32.1416 43.6812 32.3833 42.8354L35.0416 41.5062 35.0416 38.4854 32.3833 37.1562C32.1416 36.3104 31.8395 35.525 31.4166 34.8Z" stroke="#000000" stroke-width="1.05936" fill="#FFC000" transform="matrix(1 0 0 1.00053 1092 278.148)"/></g></g></g><g><g><g><path d="M35.8271 22.5354C33.2896 22.5354 31.2958 20.4813 31.2958 18.0042 31.2958 15.5271 33.35 13.4729 35.8271 13.4729 38.3646 13.4729 40.3584 15.5271 40.3584 18.0042 40.3584 20.4813 38.3042 22.5354 35.8271 22.5354ZM46.0375 15.1646C45.7959 14.3188 45.4938 13.5333 45.0709 12.8083L46.0375 9.96876 43.8625 7.79375 41.0229 8.76042C40.2979 8.3375 39.5125 8.03542 38.6667 7.79375L37.3375 5.13542 34.3167 5.13542 32.9875 7.79375C32.1417 8.03542 31.3563 8.3375 30.6313 8.76042L27.7917 7.79375 25.6167 9.96876 26.5833 12.8083C26.1604 13.5333 25.8583 14.3188 25.6167 15.1646L22.9583 16.4938 22.9583 19.5146 25.6167 20.8438C25.8583 21.6896 26.1604 22.475 26.5833 23.2L25.6167 26.0396 27.7313 28.1542 30.5708 27.1875C31.2958 27.6104 32.0813 27.9125 32.9271 28.1542L34.2563 30.8125 37.2771 30.8125 38.6063 28.1542C39.4521 27.9125 40.2375 27.6104 40.9625 27.1875L43.8021 28.1542 45.9771 26.0396 45.0104 23.2C45.4334 22.475 45.7959 21.6292 46.0375 20.8438L48.6959 19.5146 48.6959 16.4938 46.0375 15.1646Z" stroke="#000000" stroke-width="1.05936" fill="#FFC000" transform="matrix(1 0 0 1.00053 1241 278.148)"/><path d="M22.1729 44.5271C19.6354 44.5271 17.6417 42.4729 17.6417 39.9959 17.6417 37.4584 19.6958 35.4646 22.1729 35.4646 24.7104 35.4646 26.7042 37.5188 26.7042 39.9959 26.7042 42.4729 24.7104 44.5271 22.1729 44.5271L22.1729 44.5271ZM31.4167 34.8 32.3834 31.9604 30.2083 29.7854 27.3688 30.7521C26.6438 30.3292 25.7979 30.0271 25.0125 29.7854L23.6833 27.1271 20.6625 27.1271 19.3333 29.7854C18.4875 30.0271 17.7021 30.3292 16.9771 30.7521L14.1375 29.7854 12.0229 31.9 12.9292 34.7396C12.5063 35.4646 12.2042 36.3104 11.9625 37.0959L9.30417 38.425 9.30417 41.4459 11.9625 42.775C12.2042 43.6209 12.5063 44.4063 12.9292 45.1313L12.0229 47.9709 14.1375 50.0854 16.9771 49.1792C17.7021 49.6021 18.4875 49.9042 19.3333 50.1459L20.6625 52.8042 23.6833 52.8042 25.0125 50.1459C25.8583 49.9042 26.6438 49.6021 27.3688 49.1792L30.2083 50.1459 32.3229 47.9709 31.4167 45.1917C31.8396 44.4667 32.1417 43.6813 32.3834 42.8354L35.0417 41.5063 35.0417 38.4854 32.3834 37.1563C32.1417 36.3104 31.8396 35.525 31.4167 34.8Z" stroke="#000000" stroke-width="1.05936" fill="#FFC000" transform="matrix(1 0 0 1.00053 1241 278.148)"/></g></g></g><rect x="837" y="192.102" width="136" height="36.0192" fill="#FFFFFF"/><text font-family="Calibri,Calibri_MSFontService,sans-serif" font-weight="400" font-size="21.5101" transform="matrix(1 0 0 1.00053 910.446 218)">Filters</text><rect x="837" y="289.154" width="136" height="36.0192" fill="#FFFFFF"/><text font-family="Calibri,Calibri_MSFontService,sans-serif" font-weight="400" font-size="21.5101" transform="matrix(1 0 0 1.00053 893.042 314)">Analysis</text><path d="M1030 146.578 1030 161.586 1037.5 161.586 1022.5 176.594 1007.5 161.586 1015 161.586 1015 146.578Z" stroke="#AE5A21" stroke-width="1.33437" stroke-miterlimit="8" fill="#ED7D31" fill-rule="evenodd"/><path d="M1030 243.63 1030 258.137 1037.5 258.137 1022.5 272.645 1007.5 258.137 1015 258.137 1015 243.63Z" stroke="#AE5A21" stroke-width="1.33437" stroke-miterlimit="8" fill="#ED7D31" fill-rule="evenodd"/><path d="M1030 344.684 1030 359.692 1037.5 359.692 1022.5 374.7 1007.5 359.692 1015 359.692 1015 344.684Z" stroke="#AE5A21" stroke-width="1.33437" stroke-miterlimit="8" fill="#ED7D31" fill-rule="evenodd"/><path d="M1129 344.684 1129 359.692 1136.5 359.692 1121.5 374.7 1106.5 359.692 1114 359.692 1114 344.684Z" stroke="#AE5A21" stroke-width="1.33437" stroke-miterlimit="8" fill="#ED7D31" fill-rule="evenodd"/><path d="M1278 344.684 1278 359.692 1285.5 359.692 1270.5 374.7 1255.5 359.692 1263 359.692 1263 344.684Z" stroke="#AE5A21" stroke-width="1.33437" stroke-miterlimit="8" fill="#ED7D31" fill-rule="evenodd"/><path d="M1129 146.578 1129 161.586 1136.5 161.586 1121.5 176.594 1106.5 161.586 1114 161.586 1114 146.578Z" stroke="#AE5A21" stroke-width="1.33437" stroke-miterlimit="8" fill="#ED7D31" fill-rule="evenodd"/><path d="M1129 243.63 1129 258.137 1136.5 258.137 1121.5 272.645 1106.5 258.137 1114 258.137 1114 243.63Z" stroke="#AE5A21" stroke-width="1.33437" stroke-miterlimit="8" fill="#ED7D31" fill-rule="evenodd"/><path d="M1278 146.578 1278 161.586 1285.5 161.586 1270.5 176.594 1255.5 161.586 1263 161.586 1263 146.578Z" stroke="#AE5A21" stroke-width="1.33437" stroke-miterlimit="8" fill="#ED7D31" fill-rule="evenodd"/><path d="M1278 243.63 1278 258.137 1285.5 258.137 1270.5 272.645 1255.5 258.137 1263 258.137 1263 243.63Z" stroke="#AE5A21" stroke-width="1.33437" stroke-miterlimit="8" fill="#ED7D31" fill-rule="evenodd"/><rect x="837" y="389.207" width="136" height="36.0192" fill="#FFFFFF"/><text font-family="Calibri,Calibri_MSFontService,sans-serif" font-weight="400" font-size="21.5101" transform="matrix(1 0 0 1.00053 906.486 414)">Merge</text><path d="M871.5 447.739 1333.91 447.739" stroke="#D9D9D9" stroke-width="3.00073" stroke-miterlimit="8" stroke-dasharray="3.00073 3.00073" fill="none" fill-rule="evenodd"/><path d="M1129 439.734 1129 454.242 1136.5 454.242 1121.5 468.75 1106.5 454.242 1114 454.242 1114 439.734Z" stroke="#AE5A21" stroke-width="1.33437" stroke-miterlimit="8" fill="#ED7D31" fill-rule="evenodd"/><rect x="837" y="467.249" width="136" height="62.033" fill="#FFFFFF"/><text font-family="Calibri,Calibri_MSFontService,sans-serif" font-weight="400" font-size="21.5101" transform="matrix(1 0 0 1.00053 899.857 492)">Second</text><text font-family="Calibri,Calibri_MSFontService,sans-serif" font-weight="400" font-size="21.5101" transform="matrix(1 0 0 1.00053 893.042 518)">Analysis</text><text font-family="Calibri,Calibri_MSFontService,sans-serif" font-weight="400" font-size="21.5101" transform="matrix(1 0 0 1.00053 1041.42 145)">DS</text><text font-family="Calibri,Calibri_MSFontService,sans-serif" font-weight="400" font-size="14.34" transform="matrix(1 0 0 1.00053 1064.42 149)">1</text><text font-family="Calibri,Calibri_MSFontService,sans-serif" font-weight="400" font-size="21.5101" transform="matrix(1 0 0 1.00053 1139.92 145)">DS</text><text font-family="Calibri,Calibri_MSFontService,sans-serif" font-weight="400" font-size="14.34" transform="matrix(1 0 0 1.00053 1162.93 149)">2</text><text font-family="Calibri,Calibri_MSFontService,sans-serif" font-weight="400" font-size="21.5101" transform="matrix(1 0 0 1.00053 1288.11 145)">DS</text><text font-family="Calibri,Calibri_MSFontService,sans-serif" font-weight="400" font-size="14.34" transform="matrix(1 0 0 1.00053 1311.11 149)">n</text><text font-family="Calibri,Calibri_MSFontService,sans-serif" font-weight="400" font-size="21.5101" transform="matrix(1 0 0 1.00053 1044.56 243)">F</text><text font-family="Calibri,Calibri_MSFontService,sans-serif" font-weight="400" font-size="14.34" transform="matrix(1 0 0 1.00053 1054.39 247)">1</text><text font-family="Calibri,Calibri_MSFontService,sans-serif" font-weight="400" font-size="21.5101" transform="matrix(1 0 0 1.00053 1143.06 243)">F</text><text font-family="Calibri,Calibri_MSFontService,sans-serif" font-weight="400" font-size="14.34" transform="matrix(1 0 0 1.00053 1152.9 247)">2</text><text font-family="Calibri,Calibri_MSFontService,sans-serif" font-weight="400" font-size="21.5101" transform="matrix(1 0 0 1.00053 1291.23 243)">F</text><text font-family="Calibri,Calibri_MSFontService,sans-serif" font-weight="400" font-size="14.34" transform="matrix(1 0 0 1.00053 1301.06 247)">n</text><text font-family="Calibri,Calibri_MSFontService,sans-serif" font-weight="400" font-size="21.5101" transform="matrix(1 0 0 1.00053 1043.22 331)">A</text><text font-family="Calibri,Calibri_MSFontService,sans-serif" font-weight="400" font-size="14.34" transform="matrix(1 0 0 1.00053 1055.73 335)">1</text><text font-family="Calibri,Calibri_MSFontService,sans-serif" font-weight="400" font-size="21.5101" transform="matrix(1 0 0 1.00053 1141.73 331)">A</text><text font-family="Calibri,Calibri_MSFontService,sans-serif" font-weight="400" font-size="14.34" transform="matrix(1 0 0 1.00053 1154.23 335)">2</text><text font-family="Calibri,Calibri_MSFontService,sans-serif" font-weight="400" font-size="21.5101" transform="matrix(1 0 0 1.00053 1289.89 331)">A</text><text font-family="Calibri,Calibri_MSFontService,sans-serif" font-weight="400" font-size="14.34" transform="matrix(1 0 0 1.00053 1302.4 335)">n</text><path d="M1003.7 380.556 1077.68 380.556 1077.68 393.894 1003.7 393.894Z" fill="#A5A5A5" fill-rule="evenodd"/><path d="M1077.68 380.556 1151.66 380.556 1151.66 393.894 1077.68 393.894Z" fill="#A5A5A5" fill-rule="evenodd"/><path d="M1151.66 380.556 1225.64 380.556 1225.64 393.894 1151.66 393.894Z" fill="#A5A5A5" fill-rule="evenodd"/><path d="M1225.64 380.556 1299.62 380.556 1299.62 393.894 1225.64 393.894Z" fill="#A5A5A5" fill-rule="evenodd"/><path d="M1003.7 393.894 1077.68 393.894 1077.68 407.232 1003.7 407.232Z" fill="#E1E1E1" fill-rule="evenodd"/><path d="M1077.68 393.894 1151.66 393.894 1151.66 407.232 1077.68 407.232Z" fill="#E1E1E1" fill-rule="evenodd"/><path d="M1151.66 393.894 1225.64 393.894 1225.64 407.232 1151.66 407.232Z" fill="#E1E1E1" fill-rule="evenodd"/><path d="M1225.64 393.894 1299.62 393.894 1299.62 407.232 1225.64 407.232Z" fill="#E1E1E1" fill-rule="evenodd"/><path d="M1003.7 407.232 1077.68 407.232 1077.68 420.569 1003.7 420.569Z" fill="#F0F0F0" fill-rule="evenodd"/><path d="M1077.68 407.232 1151.66 407.232 1151.66 420.569 1077.68 420.569Z" fill="#F0F0F0" fill-rule="evenodd"/><path d="M1151.66 407.232 1225.64 407.232 1225.64 420.569 1151.66 420.569Z" fill="#F0F0F0" fill-rule="evenodd"/><path d="M1225.64 407.232 1299.62 407.232 1299.62 420.569 1225.64 420.569Z" fill="#F0F0F0" fill-rule="evenodd"/><path d="M1003.7 420.569 1077.68 420.569 1077.68 433.907 1003.7 433.907Z" fill="#E1E1E1" fill-rule="evenodd"/><path d="M1077.68 420.569 1151.66 420.569 1151.66 433.907 1077.68 433.907Z" fill="#E1E1E1" fill-rule="evenodd"/><path d="M1151.66 420.569 1225.64 420.569 1225.64 433.907 1151.66 433.907Z" fill="#E1E1E1" fill-rule="evenodd"/><path d="M1225.64 420.569 1299.62 420.569 1299.62 433.907 1225.64 433.907Z" fill="#E1E1E1" fill-rule="evenodd"/><path d="M1077.68 379.889 1077.68 434.574" stroke="#FFFFFF" stroke-width="1.33366" stroke-linejoin="round" stroke-miterlimit="10" fill="none" fill-rule="evenodd"/><path d="M1151.66 379.889 1151.66 434.574" stroke="#FFFFFF" stroke-width="1.33366" stroke-linejoin="round" stroke-miterlimit="10" fill="none" fill-rule="evenodd"/><path d="M1225.64 379.889 1225.64 434.574" stroke="#FFFFFF" stroke-width="1.33366" stroke-linejoin="round" stroke-miterlimit="10" fill="none" fill-rule="evenodd"/><path d="M1003.03 393.894 1300.28 393.894" stroke="#FFFFFF" stroke-width="4.00098" stroke-linejoin="round" stroke-miterlimit="10" fill="none" fill-rule="evenodd"/><path d="M1003.03 407.232 1300.28 407.232" stroke="#FFFFFF" stroke-width="1.33366" stroke-linejoin="round" stroke-miterlimit="10" fill="none" fill-rule="evenodd"/><path d="M1003.03 420.569 1300.28 420.569" stroke="#FFFFFF" stroke-width="1.33366" stroke-linejoin="round" stroke-miterlimit="10" fill="none" fill-rule="evenodd"/><path d="M1003.7 379.889 1003.7 434.574" stroke="#FFFFFF" stroke-width="1.33366" stroke-linejoin="round" stroke-miterlimit="10" fill="none" fill-rule="evenodd"/><path d="M1299.62 379.889 1299.62 434.574" stroke="#FFFFFF" stroke-width="1.33366" stroke-linejoin="round" stroke-miterlimit="10" fill="none" fill-rule="evenodd"/><path d="M1003.03 380.556 1300.28 380.556" stroke="#FFFFFF" stroke-width="1.33366" stroke-linejoin="round" stroke-miterlimit="10" fill="none" fill-rule="evenodd"/><path d="M1003.03 433.907 1300.28 433.907" stroke="#FFFFFF" stroke-width="1.33366" stroke-linejoin="round" stroke-miterlimit="10" fill="none" fill-rule="evenodd"/><path d="M1192.5 106.056C1192.5 104.675 1193.4 103.555 1194.5 103.555 1195.6 103.555 1196.5 104.675 1196.5 106.056 1196.5 107.438 1195.6 108.558 1194.5 108.558 1193.4 108.558 1192.5 107.438 1192.5 106.056Z" stroke="#000000" stroke-width="1.33366" stroke-miterlimit="8" fill-rule="evenodd"/><path d="M1199.5 106.056C1199.5 104.675 1200.4 103.555 1201.5 103.555 1202.6 103.555 1203.5 104.675 1203.5 106.056 1203.5 107.438 1202.6 108.558 1201.5 108.558 1200.4 108.558 1199.5 107.438 1199.5 106.056Z" stroke="#000000" stroke-width="1.33366" stroke-miterlimit="8" fill-rule="evenodd"/><path d="M1206.5 106.056C1206.5 104.675 1207.62 103.555 1209 103.555 1210.38 103.555 1211.5 104.675 1211.5 106.056 1211.5 107.438 1210.38 108.558 1209 108.558 1207.62 108.558 1206.5 107.438 1206.5 106.056Z" stroke="#000000" stroke-width="1.33366" stroke-miterlimit="8" fill-rule="evenodd"/><path d="M1192.5 204.109C1192.5 202.727 1193.4 201.607 1194.5 201.607 1195.6 201.607 1196.5 202.727 1196.5 204.109 1196.5 205.49 1195.6 206.61 1194.5 206.61 1193.4 206.61 1192.5 205.49 1192.5 204.109Z" stroke="#000000" stroke-width="1.33366" stroke-miterlimit="8" fill-rule="evenodd"/><path d="M1199.5 204.109C1199.5 202.727 1200.4 201.607 1201.5 201.607 1202.6 201.607 1203.5 202.727 1203.5 204.109 1203.5 205.49 1202.6 206.61 1201.5 206.61 1200.4 206.61 1199.5 205.49 1199.5 204.109Z" stroke="#000000" stroke-width="1.33366" stroke-miterlimit="8" fill-rule="evenodd"/><path d="M1206.5 204.109C1206.5 202.727 1207.62 201.607 1209 201.607 1210.38 201.607 1211.5 202.727 1211.5 204.109 1211.5 205.49 1210.38 206.61 1209 206.61 1207.62 206.61 1206.5 205.49 1206.5 204.109Z" stroke="#000000" stroke-width="1.33366" stroke-miterlimit="8" fill-rule="evenodd"/><path d="M1192.5 300.16C1192.5 298.778 1193.4 297.659 1194.5 297.659 1195.6 297.659 1196.5 298.778 1196.5 300.16 1196.5 301.541 1195.6 302.661 1194.5 302.661 1193.4 302.661 1192.5 301.541 1192.5 300.16Z" stroke="#000000" stroke-width="1.33366" stroke-miterlimit="8" fill-rule="evenodd"/><path d="M1199.5 300.16C1199.5 298.778 1200.4 297.659 1201.5 297.659 1202.6 297.659 1203.5 298.778 1203.5 300.16 1203.5 301.541 1202.6 302.661 1201.5 302.661 1200.4 302.661 1199.5 301.541 1199.5 300.16Z" stroke="#000000" stroke-width="1.33366" stroke-miterlimit="8" fill-rule="evenodd"/><path d="M1206.5 300.16C1206.5 298.778 1207.62 297.659 1209 297.659 1210.38 297.659 1211.5 298.778 1211.5 300.16 1211.5 301.541 1210.38 302.661 1209 302.661 1207.62 302.661 1206.5 301.541 1206.5 300.16Z" stroke="#000000" stroke-width="1.33366" stroke-miterlimit="8" fill-rule="evenodd"/><path d="M871.5 539.788 1333.91 539.788" stroke="#D9D9D9" stroke-width="3.00073" stroke-miterlimit="8" stroke-dasharray="3.00073 3.00073" fill="none" fill-rule="evenodd"/><g><g><g><path d="M45.9166 13.2916 45.9166 35.0416 12.0833 35.0416 12.0833 13.2916ZM50.7499 36.25 49.5416 36.25 49.5416 11.4792 50.7499 11.4792C51.4173 11.4792 51.9583 10.9382 51.9583 10.2708 51.9583 9.60346 51.4173 9.06249 50.7499 9.06249L30.2083 9.06249 30.2083 7.85416C30.2083 7.1868 29.6673 6.64582 29 6.64582 28.3326 6.64582 27.7916 7.1868 27.7916 7.85416L27.7916 9.06249 7.24999 9.06249C6.58263 9.06249 6.04166 9.60346 6.04166 10.2708 6.04166 10.9382 6.58263 11.4792 7.24999 11.4792L8.45832 11.4792 8.45832 36.25 7.24999 36.25C6.58263 36.25 6.04166 36.7909 6.04166 37.4583 6.04166 38.1256 6.58263 38.6666 7.24999 38.6666L25.7012 38.6666 16.3971 47.9708C15.9249 48.4479 15.929 49.2175 16.4061 49.6896 16.8833 50.1618 17.6528 50.1577 18.125 49.6806L27.7916 40.0139 27.7916 50.7499C27.7916 51.4173 28.3326 51.9583 29 51.9583 29.6673 51.9583 30.2083 51.4173 30.2083 50.7499L30.2083 39.9958 39.875 49.6624C40.3471 50.1346 41.1126 50.1346 41.5847 49.6624 42.0569 49.1903 42.0569 48.4248 41.5847 47.9526L32.2987 38.6666 50.7499 38.6666C51.4173 38.6666 51.9583 38.1256 51.9583 37.4583 51.9583 36.7909 51.4173 36.25 50.7499 36.25Z" fill="#002060" transform="matrix(1 0 0 1.00053 1092 562.3)"/><path d="M33.8333 15.7083 38.6666 15.7083 38.6666 32.625 33.8333 32.625Z" fill="#002060" transform="matrix(1 0 0 1.00053 1092 562.3)"/><path d="M26.5833 21.1458 31.4166 21.1458 31.4166 32.625 26.5833 32.625Z" fill="#002060" transform="matrix(1 0 0 1.00053 1092 562.3)"/><path d="M19.3333 25.375 24.1666 25.375 24.1666 32.625 19.3333 32.625Z" fill="#002060" transform="matrix(1 0 0 1.00053 1092 562.3)"/></g></g></g><path d="M1129 530.783 1129 545.291 1136.5 545.291 1121.5 559.798 1106.5 545.291 1114 545.291 1114 530.783Z" stroke="#AE5A21" stroke-width="1.33437" stroke-miterlimit="8" fill="#ED7D31" fill-rule="evenodd"/><rect x="837" y="571.304" width="136" height="36.0192" fill="#FFFFFF"/><text font-family="Calibri,Calibri_MSFontService,sans-serif" font-weight="400" font-size="21.5101" transform="matrix(1 0 0 1.00053 853.059 596)">Visualization</text><g><g><g><path d="M35.827 22.5354C33.2895 22.5354 31.2958 20.4812 31.2958 18.0041 31.2958 15.5271 33.35 13.4729 35.827 13.4729 38.3645 13.4729 40.3583 15.5271 40.3583 18.0041 40.3583 20.4812 38.3041 22.5354 35.827 22.5354ZM46.0374 15.1646C45.7958 14.3187 45.4937 13.5333 45.0708 12.8083L46.0374 9.96874 43.8624 7.79374 41.0229 8.76041C40.2979 8.33749 39.5125 8.03541 38.6666 7.79374L37.3375 5.13541 34.3166 5.13541 32.9875 7.79374C32.1416 8.03541 31.3562 8.33749 30.6312 8.76041L27.7916 7.79374 25.6166 9.96874 26.5833 12.8083C26.1604 13.5333 25.8583 14.3187 25.6166 15.1646L22.9583 16.4937 22.9583 19.5146 25.6166 20.8437C25.8583 21.6896 26.1604 22.475 26.5833 23.2L25.6166 26.0396 27.7312 28.1541 30.5708 27.1875C31.2958 27.6104 32.0812 27.9125 32.927 28.1541L34.2562 30.8125 37.277 30.8125 38.6062 28.1541C39.452 27.9125 40.2374 27.6104 40.9625 27.1875L43.802 28.1541 45.977 26.0396 45.0104 23.2C45.4333 22.475 45.7958 21.6291 46.0374 20.8437L48.6958 19.5146 48.6958 16.4937 46.0374 15.1646Z" stroke="#000000" stroke-width="1.05936" fill="#FFC000" transform="matrix(1 0 0 1.00053 1092 469.25)"/><path d="M22.1729 44.527C19.6354 44.527 17.6416 42.4729 17.6416 39.9958 17.6416 37.4583 19.6958 35.4645 22.1729 35.4645 24.7104 35.4645 26.7041 37.5187 26.7041 39.9958 26.7041 42.4729 24.7104 44.527 22.1729 44.527L22.1729 44.527ZM31.4166 34.8 32.3833 31.9604 30.2083 29.7854 27.3687 30.752C26.6437 30.3291 25.7979 30.027 25.0125 29.7854L23.6833 27.1271 20.6625 27.1271 19.3333 29.7854C18.4875 30.027 17.7021 30.3291 16.9771 30.752L14.1375 29.7854 12.0229 31.9 12.9292 34.7395C12.5062 35.4645 12.2042 36.3104 11.9625 37.0958L9.30415 38.4249 9.30415 41.4458 11.9625 42.7749C12.2042 43.6208 12.5062 44.4062 12.9292 45.1312L12.0229 47.9708 14.1375 50.0854 16.9771 49.1791C17.7021 49.602 18.4875 49.9041 19.3333 50.1458L20.6625 52.8041 23.6833 52.8041 25.0125 50.1458C25.8583 49.9041 26.6437 49.602 27.3687 49.1791L30.2083 50.1458 32.3229 47.9708 31.4166 45.1916C31.8395 44.4666 32.1416 43.6812 32.3833 42.8354L35.0416 41.5062 35.0416 38.4854 32.3833 37.1562C32.1416 36.3104 31.8395 35.525 31.4166 34.8Z" stroke="#000000" stroke-width="1.05936" fill="#FFC000" transform="matrix(1 0 0 1.00053 1092 469.25)"/></g></g></g><path d="M1078.5 71.5381 1078.5 338.133" stroke="#D9D9D9" stroke-width="3.00073" stroke-miterlimit="8" fill="none" fill-rule="evenodd"/></g></svg>