<svg width="907" height="373" viewBox="0 0 907 373" fill="none" xmlns="http://www.w3.org/2000/svg">
<path d="M186.158 333.2C186.158 334.027 186.118 334.853 186.038 335.68C185.985 336.48 185.918 337.293 185.838 338.12H185.918C186.185 337.747 186.451 337.373 186.718 337C187.011 336.627 187.305 336.253 187.598 335.88C187.891 335.507 188.198 335.147 188.518 334.8L194.638 328.16H201.358L192.678 337.64L201.878 350H194.998L188.718 341.16L186.158 343.2V350H180.198V319.6H186.158V333.2ZM217.403 327.76C219.749 327.76 221.629 328.4 223.043 329.68C224.456 330.933 225.163 332.96 225.163 335.76V350H219.203V337.24C219.203 335.667 218.923 334.493 218.363 333.72C217.803 332.92 216.909 332.52 215.683 332.52C213.869 332.52 212.629 333.147 211.963 334.4C211.296 335.627 210.963 337.4 210.963 339.72V350H205.003V328.16H209.563L210.363 330.96H210.683C211.163 330.213 211.749 329.613 212.443 329.16C213.136 328.68 213.909 328.333 214.763 328.12C215.616 327.88 216.496 327.76 217.403 327.76ZM251.132 339.04C251.132 340.853 250.879 342.467 250.372 343.88C249.892 345.293 249.185 346.493 248.252 347.48C247.345 348.44 246.239 349.173 244.932 349.68C243.625 350.16 242.145 350.4 240.492 350.4C238.972 350.4 237.559 350.16 236.252 349.68C234.972 349.173 233.865 348.44 232.932 347.48C231.999 346.493 231.265 345.293 230.732 343.88C230.225 342.467 229.972 340.853 229.972 339.04C229.972 336.613 230.399 334.573 231.252 332.92C232.105 331.24 233.332 329.96 234.932 329.08C236.532 328.2 238.425 327.76 240.612 327.76C242.665 327.76 244.479 328.2 246.052 329.08C247.625 329.96 248.865 331.24 249.772 332.92C250.679 334.573 251.132 336.613 251.132 339.04ZM236.052 339.04C236.052 340.48 236.199 341.693 236.492 342.68C236.812 343.64 237.305 344.373 237.972 344.88C238.639 345.36 239.505 345.6 240.572 345.6C241.639 345.6 242.492 345.36 243.132 344.88C243.799 344.373 244.279 343.64 244.572 342.68C244.892 341.693 245.052 340.48 245.052 339.04C245.052 337.6 244.892 336.4 244.572 335.44C244.279 334.48 243.799 333.76 243.132 333.28C242.465 332.8 241.599 332.56 240.532 332.56C238.959 332.56 237.812 333.107 237.092 334.2C236.399 335.267 236.052 336.88 236.052 339.04ZM271.556 342.36C271.45 341.907 271.29 341.24 271.076 340.36C270.89 339.453 270.676 338.493 270.436 337.48C270.196 336.44 269.97 335.493 269.756 334.64C269.543 333.76 269.396 333.12 269.316 332.72H269.156C269.076 333.12 268.93 333.76 268.716 334.64C268.53 335.493 268.316 336.44 268.076 337.48C267.836 338.493 267.61 339.453 267.396 340.36C267.183 341.267 267.023 341.96 266.916 342.44L265.156 350H258.756L252.556 328.16H258.476L260.996 337.84C261.183 338.507 261.343 339.307 261.476 340.24C261.636 341.173 261.783 342.08 261.916 342.96C262.05 343.813 262.143 344.493 262.196 345H262.356C262.383 344.627 262.436 344.133 262.516 343.52C262.596 342.88 262.69 342.227 262.796 341.56C262.93 340.893 263.036 340.293 263.116 339.76C263.223 339.2 263.303 338.827 263.356 338.64L266.036 328.16H272.596L275.156 338.64C275.263 339.013 275.383 339.613 275.516 340.44C275.676 341.267 275.81 342.107 275.916 342.96C276.05 343.813 276.116 344.493 276.116 345H276.276C276.33 344.547 276.423 343.893 276.556 343.04C276.69 342.16 276.836 341.24 276.996 340.28C277.183 339.32 277.37 338.507 277.556 337.84L280.156 328.16H285.996L279.716 350H273.236L271.556 342.36ZM295.494 350H289.534V319.6H295.494V350ZM310.722 327.76C312.748 327.76 314.482 328.147 315.922 328.92C317.388 329.693 318.522 330.813 319.322 332.28C320.122 333.747 320.522 335.547 320.522 337.68V340.56H306.442C306.495 342.24 306.988 343.56 307.922 344.52C308.882 345.48 310.202 345.96 311.882 345.96C313.295 345.96 314.575 345.827 315.722 345.56C316.868 345.267 318.055 344.827 319.282 344.24V348.84C318.215 349.373 317.082 349.76 315.882 350C314.708 350.267 313.282 350.4 311.602 350.4C309.415 350.4 307.482 350 305.802 349.2C304.122 348.373 302.802 347.133 301.842 345.48C300.882 343.827 300.402 341.747 300.402 339.24C300.402 336.68 300.828 334.56 301.682 332.88C302.562 331.173 303.775 329.893 305.322 329.04C306.868 328.187 308.668 327.76 310.722 327.76ZM310.762 332C309.615 332 308.655 332.373 307.882 333.12C307.135 333.867 306.695 335.027 306.562 336.6H314.922C314.922 335.72 314.762 334.933 314.442 334.24C314.148 333.547 313.695 333 313.082 332.6C312.468 332.2 311.695 332 310.762 332ZM332.274 350.4C329.848 350.4 327.861 349.453 326.314 347.56C324.794 345.64 324.034 342.827 324.034 339.12C324.034 335.387 324.808 332.56 326.354 330.64C327.901 328.72 329.928 327.76 332.434 327.76C333.474 327.76 334.394 327.907 335.194 328.2C335.994 328.467 336.674 328.84 337.234 329.32C337.821 329.8 338.314 330.347 338.714 330.96H338.914C338.834 330.533 338.741 329.92 338.634 329.12C338.528 328.293 338.474 327.453 338.474 326.6V319.6H344.434V350H339.874L338.714 347.16H338.474C338.101 347.747 337.621 348.293 337.034 348.8C336.474 349.28 335.808 349.667 335.034 349.96C334.261 350.253 333.341 350.4 332.274 350.4ZM334.354 345.64C336.008 345.64 337.168 345.16 337.834 344.2C338.501 343.213 338.848 341.747 338.874 339.8V339.16C338.874 337.027 338.541 335.4 337.874 334.28C337.234 333.16 336.034 332.6 334.274 332.6C332.968 332.6 331.941 333.173 331.194 334.32C330.448 335.44 330.074 337.067 330.074 339.2C330.074 341.333 330.448 342.947 331.194 344.04C331.941 345.107 332.994 345.64 334.354 345.64ZM357.747 327.76C359.08 327.76 360.28 328.027 361.347 328.56C362.414 329.093 363.32 329.893 364.067 330.96H364.227L364.707 328.16H369.747V350.04C369.747 352.12 369.334 353.867 368.507 355.28C367.707 356.693 366.494 357.76 364.867 358.48C363.24 359.227 361.227 359.6 358.827 359.6C357.28 359.6 355.84 359.507 354.507 359.32C353.2 359.133 351.92 358.8 350.667 358.32V353.56C351.574 353.933 352.48 354.24 353.387 354.48C354.32 354.747 355.267 354.933 356.227 355.04C357.214 355.173 358.2 355.24 359.187 355.24C360.734 355.24 361.88 354.827 362.627 354C363.4 353.173 363.787 351.933 363.787 350.28V349.84C363.787 349.387 363.8 348.92 363.827 348.44C363.88 347.96 363.92 347.533 363.947 347.16H363.787C363.04 348.307 362.147 349.133 361.107 349.64C360.067 350.147 358.894 350.4 357.587 350.4C355 350.4 352.974 349.413 351.507 347.44C350.067 345.44 349.347 342.667 349.347 339.12C349.347 336.72 349.68 334.68 350.347 333C351.014 331.293 351.974 330 353.227 329.12C354.507 328.213 356.014 327.76 357.747 327.76ZM359.627 332.6C358.694 332.6 357.907 332.853 357.267 333.36C356.654 333.84 356.187 334.573 355.867 335.56C355.574 336.52 355.427 337.733 355.427 339.2C355.427 341.387 355.774 343.027 356.467 344.12C357.16 345.187 358.24 345.72 359.707 345.72C360.48 345.72 361.147 345.627 361.707 345.44C362.267 345.227 362.72 344.893 363.067 344.44C363.44 343.96 363.72 343.347 363.907 342.6C364.094 341.853 364.187 340.947 364.187 339.88V339.16C364.187 337.587 364.027 336.32 363.707 335.36C363.387 334.4 362.894 333.707 362.227 333.28C361.56 332.827 360.694 332.6 359.627 332.6ZM384.979 327.76C387.006 327.76 388.739 328.147 390.179 328.92C391.646 329.693 392.779 330.813 393.579 332.28C394.379 333.747 394.779 335.547 394.779 337.68V340.56H380.699C380.753 342.24 381.246 343.56 382.179 344.52C383.139 345.48 384.459 345.96 386.139 345.96C387.553 345.96 388.833 345.827 389.979 345.56C391.126 345.267 392.313 344.827 393.539 344.24V348.84C392.473 349.373 391.339 349.76 390.139 350C388.966 350.267 387.539 350.4 385.859 350.4C383.673 350.4 381.739 350 380.059 349.2C378.379 348.373 377.059 347.133 376.099 345.48C375.139 343.827 374.659 341.747 374.659 339.24C374.659 336.68 375.086 334.56 375.939 332.88C376.819 331.173 378.033 329.893 379.579 329.04C381.126 328.187 382.926 327.76 384.979 327.76ZM385.019 332C383.873 332 382.913 332.373 382.139 333.12C381.393 333.867 380.953 335.027 380.819 336.6H389.179C389.179 335.72 389.019 334.933 388.699 334.24C388.406 333.547 387.953 333 387.339 332.6C386.726 332.2 385.953 332 385.019 332ZM397.938 347.285C397.938 346.868 398.016 346.478 398.172 346.113C398.328 345.736 398.543 345.417 398.816 345.156C399.09 344.883 399.409 344.668 399.773 344.512C400.151 344.342 400.555 344.258 400.984 344.258C401.388 344.258 401.779 344.342 402.156 344.512C402.534 344.668 402.853 344.883 403.113 345.156C403.387 345.417 403.602 345.736 403.758 346.113C403.914 346.478 403.992 346.868 403.992 347.285C403.992 347.715 403.914 348.112 403.758 348.477C403.602 348.841 403.387 349.16 403.113 349.434C402.853 349.694 402.534 349.896 402.156 350.039C401.779 350.195 401.388 350.273 400.984 350.273C400.555 350.273 400.151 350.195 399.773 350.039C399.409 349.896 399.09 349.694 398.816 349.434C398.543 349.16 398.328 348.841 398.172 348.477C398.016 348.112 397.938 347.715 397.938 347.285ZM424.947 350H418.987V319.6H424.947V350ZM440.175 327.76C442.201 327.76 443.935 328.147 445.375 328.92C446.841 329.693 447.975 330.813 448.775 332.28C449.575 333.747 449.975 335.547 449.975 337.68V340.56H435.895C435.948 342.24 436.441 343.56 437.375 344.52C438.335 345.48 439.655 345.96 441.335 345.96C442.748 345.96 444.028 345.827 445.175 345.56C446.321 345.267 447.508 344.827 448.735 344.24V348.84C447.668 349.373 446.535 349.76 445.335 350C444.161 350.267 442.735 350.4 441.055 350.4C438.868 350.4 436.935 350 435.255 349.2C433.575 348.373 432.255 347.133 431.295 345.48C430.335 343.827 429.855 341.747 429.855 339.24C429.855 336.68 430.281 334.56 431.135 332.88C432.015 331.173 433.228 329.893 434.775 329.04C436.321 328.187 438.121 327.76 440.175 327.76ZM440.215 332C439.068 332 438.108 332.373 437.335 333.12C436.588 333.867 436.148 335.027 436.015 336.6H444.375C444.375 335.72 444.215 334.933 443.895 334.24C443.601 333.547 443.148 333 442.535 332.6C441.921 332.2 441.148 332 440.215 332ZM463.768 327.72C466.701 327.72 468.941 328.36 470.488 329.64C472.061 330.893 472.848 332.827 472.848 335.44V350H468.688L467.528 347.04H467.368C466.754 347.813 466.114 348.453 465.448 348.96C464.808 349.467 464.061 349.827 463.208 350.04C462.381 350.28 461.354 350.4 460.128 350.4C458.848 350.4 457.688 350.16 456.648 349.68C455.634 349.173 454.834 348.413 454.248 347.4C453.661 346.36 453.368 345.053 453.368 343.48C453.368 341.16 454.181 339.453 455.808 338.36C457.434 337.24 459.874 336.627 463.128 336.52L466.928 336.4V335.44C466.928 334.293 466.621 333.453 466.008 332.92C465.421 332.387 464.594 332.12 463.528 332.12C462.461 332.12 461.421 332.28 460.408 332.6C459.394 332.893 458.381 333.267 457.368 333.72L455.408 329.68C456.581 329.067 457.874 328.587 459.288 328.24C460.728 327.893 462.221 327.72 463.768 327.72ZM464.608 339.96C462.688 340.013 461.354 340.36 460.608 341C459.861 341.64 459.488 342.48 459.488 343.52C459.488 344.427 459.754 345.08 460.288 345.48C460.821 345.853 461.514 346.04 462.368 346.04C463.648 346.04 464.728 345.667 465.608 344.92C466.488 344.147 466.928 343.067 466.928 341.68V339.88L464.608 339.96ZM491.148 327.76C491.441 327.76 491.788 327.773 492.188 327.8C492.588 327.827 492.908 327.867 493.148 327.92L492.708 333.52C492.521 333.467 492.241 333.427 491.868 333.4C491.521 333.347 491.215 333.32 490.948 333.32C490.175 333.32 489.428 333.427 488.708 333.64C487.988 333.827 487.335 334.133 486.748 334.56C486.188 334.987 485.735 335.56 485.388 336.28C485.068 336.973 484.908 337.84 484.908 338.88V350H478.948V328.16H483.468L484.348 331.84H484.628C485.055 331.093 485.588 330.413 486.228 329.8C486.868 329.187 487.601 328.693 488.428 328.32C489.281 327.947 490.188 327.76 491.148 327.76ZM509.512 327.76C511.859 327.76 513.739 328.4 515.152 329.68C516.566 330.933 517.272 332.96 517.272 335.76V350H511.312V337.24C511.312 335.667 511.032 334.493 510.472 333.72C509.912 332.92 509.019 332.52 507.792 332.52C505.979 332.52 504.739 333.147 504.072 334.4C503.406 335.627 503.072 337.4 503.072 339.72V350H497.112V328.16H501.672L502.472 330.96H502.792C503.272 330.213 503.859 329.613 504.552 329.16C505.246 328.68 506.019 328.333 506.872 328.12C507.726 327.88 508.606 327.76 509.512 327.76ZM529.361 328.16V350H523.401V328.16H529.361ZM526.401 319.6C527.281 319.6 528.041 319.813 528.681 320.24C529.321 320.64 529.641 321.4 529.641 322.52C529.641 323.613 529.321 324.373 528.681 324.8C528.041 325.227 527.281 325.44 526.401 325.44C525.495 325.44 524.721 325.227 524.081 324.8C523.468 324.373 523.161 323.613 523.161 322.52C523.161 321.4 523.468 320.64 524.081 320.24C524.721 319.813 525.495 319.6 526.401 319.6ZM547.989 327.76C550.335 327.76 552.215 328.4 553.629 329.68C555.042 330.933 555.749 332.96 555.749 335.76V350H549.789V337.24C549.789 335.667 549.509 334.493 548.949 333.72C548.389 332.92 547.495 332.52 546.269 332.52C544.455 332.52 543.215 333.147 542.549 334.4C541.882 335.627 541.549 337.4 541.549 339.72V350H535.589V328.16H540.149L540.949 330.96H541.269C541.749 330.213 542.335 329.613 543.029 329.16C543.722 328.68 544.495 328.333 545.349 328.12C546.202 327.88 547.082 327.76 547.989 327.76ZM568.958 327.76C570.291 327.76 571.491 328.027 572.558 328.56C573.624 329.093 574.531 329.893 575.278 330.96H575.438L575.918 328.16H580.958V350.04C580.958 352.12 580.544 353.867 579.718 355.28C578.918 356.693 577.704 357.76 576.078 358.48C574.451 359.227 572.438 359.6 570.038 359.6C568.491 359.6 567.051 359.507 565.718 359.32C564.411 359.133 563.131 358.8 561.878 358.32V353.56C562.784 353.933 563.691 354.24 564.598 354.48C565.531 354.747 566.478 354.933 567.438 355.04C568.424 355.173 569.411 355.24 570.398 355.24C571.944 355.24 573.091 354.827 573.838 354C574.611 353.173 574.998 351.933 574.998 350.28V349.84C574.998 349.387 575.011 348.92 575.038 348.44C575.091 347.96 575.131 347.533 575.158 347.16H574.998C574.251 348.307 573.358 349.133 572.318 349.64C571.278 350.147 570.104 350.4 568.798 350.4C566.211 350.4 564.184 349.413 562.718 347.44C561.278 345.44 560.558 342.667 560.558 339.12C560.558 336.72 560.891 334.68 561.558 333C562.224 331.293 563.184 330 564.438 329.12C565.718 328.213 567.224 327.76 568.958 327.76ZM570.838 332.6C569.904 332.6 569.118 332.853 568.478 333.36C567.864 333.84 567.398 334.573 567.078 335.56C566.784 336.52 566.638 337.733 566.638 339.2C566.638 341.387 566.984 343.027 567.678 344.12C568.371 345.187 569.451 345.72 570.918 345.72C571.691 345.72 572.358 345.627 572.918 345.44C573.478 345.227 573.931 344.893 574.278 344.44C574.651 343.96 574.931 343.347 575.118 342.6C575.304 341.853 575.398 340.947 575.398 339.88V339.16C575.398 337.587 575.238 336.32 574.918 335.36C574.598 334.4 574.104 333.707 573.438 333.28C572.771 332.827 571.904 332.6 570.838 332.6ZM585.516 347.285C585.516 346.868 585.594 346.478 585.75 346.113C585.906 345.736 586.121 345.417 586.395 345.156C586.668 344.883 586.987 344.668 587.352 344.512C587.729 344.342 588.133 344.258 588.562 344.258C588.966 344.258 589.357 344.342 589.734 344.512C590.112 344.668 590.431 344.883 590.691 345.156C590.965 345.417 591.18 345.736 591.336 346.113C591.492 346.478 591.57 346.868 591.57 347.285C591.57 347.715 591.492 348.112 591.336 348.477C591.18 348.841 590.965 349.16 590.691 349.434C590.431 349.694 590.112 349.896 589.734 350.039C589.357 350.195 588.966 350.273 588.562 350.273C588.133 350.273 587.729 350.195 587.352 350.039C586.987 349.896 586.668 349.694 586.395 349.434C586.121 349.16 585.906 348.841 585.75 348.477C585.594 348.112 585.516 347.715 585.516 347.285ZM615.525 327.72C618.459 327.72 620.699 328.36 622.245 329.64C623.819 330.893 624.605 332.827 624.605 335.44V350H620.445L619.285 347.04H619.125C618.512 347.813 617.872 348.453 617.205 348.96C616.565 349.467 615.819 349.827 614.965 350.04C614.139 350.28 613.112 350.4 611.885 350.4C610.605 350.4 609.445 350.16 608.405 349.68C607.392 349.173 606.592 348.413 606.005 347.4C605.419 346.36 605.125 345.053 605.125 343.48C605.125 341.16 605.939 339.453 607.565 338.36C609.192 337.24 611.632 336.627 614.885 336.52L618.685 336.4V335.44C618.685 334.293 618.379 333.453 617.765 332.92C617.179 332.387 616.352 332.12 615.285 332.12C614.219 332.12 613.179 332.28 612.165 332.6C611.152 332.893 610.139 333.267 609.125 333.72L607.165 329.68C608.339 329.067 609.632 328.587 611.045 328.24C612.485 327.893 613.979 327.72 615.525 327.72ZM616.365 339.96C614.445 340.013 613.112 340.36 612.365 341C611.619 341.64 611.245 342.48 611.245 343.52C611.245 344.427 611.512 345.08 612.045 345.48C612.579 345.853 613.272 346.04 614.125 346.04C615.405 346.04 616.485 345.667 617.365 344.92C618.245 344.147 618.685 343.067 618.685 341.68V339.88L616.365 339.96ZM643.106 327.76C645.453 327.76 647.333 328.4 648.746 329.68C650.159 330.933 650.866 332.96 650.866 335.76V350H644.906V337.24C644.906 335.667 644.626 334.493 644.066 333.72C643.506 332.92 642.613 332.52 641.386 332.52C639.573 332.52 638.333 333.147 637.666 334.4C636.999 335.627 636.666 337.4 636.666 339.72V350H630.706V328.16H635.266L636.066 330.96H636.386C636.866 330.213 637.453 329.613 638.146 329.16C638.839 328.68 639.613 328.333 640.466 328.12C641.319 327.88 642.199 327.76 643.106 327.76ZM665.955 327.72C668.888 327.72 671.128 328.36 672.675 329.64C674.248 330.893 675.035 332.827 675.035 335.44V350H670.875L669.715 347.04H669.555C668.942 347.813 668.302 348.453 667.635 348.96C666.995 349.467 666.248 349.827 665.395 350.04C664.568 350.28 663.542 350.4 662.315 350.4C661.035 350.4 659.875 350.16 658.835 349.68C657.822 349.173 657.022 348.413 656.435 347.4C655.848 346.36 655.555 345.053 655.555 343.48C655.555 341.16 656.368 339.453 657.995 338.36C659.622 337.24 662.062 336.627 665.315 336.52L669.115 336.4V335.44C669.115 334.293 668.808 333.453 668.195 332.92C667.608 332.387 666.782 332.12 665.715 332.12C664.648 332.12 663.608 332.28 662.595 332.6C661.582 332.893 660.568 333.267 659.555 333.72L657.595 329.68C658.768 329.067 660.062 328.587 661.475 328.24C662.915 327.893 664.408 327.72 665.955 327.72ZM666.795 339.96C664.875 340.013 663.542 340.36 662.795 341C662.048 341.64 661.675 342.48 661.675 343.52C661.675 344.427 661.942 345.08 662.475 345.48C663.008 345.853 663.702 346.04 664.555 346.04C665.835 346.04 666.915 345.667 667.795 344.92C668.675 344.147 669.115 343.067 669.115 341.68V339.88L666.795 339.96ZM687.096 350H681.136V319.6H687.096V350ZM690.203 328.16H696.723L700.843 340.44C700.976 340.84 701.083 341.24 701.163 341.64C701.27 342.04 701.35 342.453 701.403 342.88C701.483 343.307 701.536 343.76 701.563 344.24H701.683C701.763 343.547 701.87 342.893 702.003 342.28C702.163 341.64 702.336 341.027 702.523 340.44L706.563 328.16H712.963L703.723 352.8C703.163 354.293 702.43 355.547 701.523 356.56C700.643 357.573 699.616 358.333 698.443 358.84C697.27 359.347 695.99 359.6 694.603 359.6C693.936 359.6 693.35 359.56 692.843 359.48C692.363 359.427 691.936 359.36 691.563 359.28V354.56C691.856 354.613 692.203 354.667 692.603 354.72C693.03 354.773 693.47 354.8 693.923 354.8C694.75 354.8 695.456 354.627 696.043 354.28C696.656 353.933 697.163 353.453 697.563 352.84C697.963 352.253 698.283 351.613 698.523 350.92L698.883 349.84L690.203 328.16ZM725.297 345.64C725.963 345.64 726.603 345.573 727.217 345.44C727.83 345.307 728.443 345.147 729.057 344.96V349.4C728.417 349.667 727.617 349.893 726.657 350.08C725.723 350.293 724.697 350.4 723.577 350.4C722.27 350.4 721.097 350.187 720.057 349.76C719.043 349.333 718.23 348.6 717.617 347.56C717.03 346.493 716.737 345.027 716.737 343.16V332.64H713.897V330.12L717.177 328.12L718.897 323.52H722.697V328.16H728.817V332.64H722.697V343.16C722.697 343.987 722.937 344.613 723.417 345.04C723.897 345.44 724.523 345.64 725.297 345.64ZM739.4 328.16V350H733.44V328.16H739.4ZM736.44 319.6C737.32 319.6 738.08 319.813 738.72 320.24C739.36 320.64 739.68 321.4 739.68 322.52C739.68 323.613 739.36 324.373 738.72 324.8C738.08 325.227 737.32 325.44 736.44 325.44C735.534 325.44 734.76 325.227 734.12 324.8C733.507 324.373 733.2 323.613 733.2 322.52C733.2 321.4 733.507 320.64 734.12 320.24C734.76 319.813 735.534 319.6 736.44 319.6ZM754.508 350.4C752.348 350.4 750.508 350.013 748.988 349.24C747.468 348.44 746.308 347.213 745.508 345.56C744.708 343.907 744.308 341.787 744.308 339.2C744.308 336.533 744.761 334.36 745.668 332.68C746.574 331 747.828 329.76 749.428 328.96C751.054 328.16 752.921 327.76 755.028 327.76C756.521 327.76 757.814 327.907 758.908 328.2C760.028 328.493 761.001 328.84 761.828 329.24L760.068 333.84C759.134 333.467 758.254 333.16 757.428 332.92C756.628 332.68 755.828 332.56 755.028 332.56C753.988 332.56 753.121 332.813 752.428 333.32C751.734 333.8 751.214 334.533 750.868 335.52C750.548 336.48 750.388 337.693 750.388 339.16C750.388 340.6 750.561 341.8 750.908 342.76C751.281 343.693 751.814 344.4 752.508 344.88C753.201 345.333 754.041 345.56 755.028 345.56C756.281 345.56 757.388 345.4 758.348 345.08C759.308 344.733 760.241 344.267 761.148 343.68V348.76C760.241 349.347 759.281 349.76 758.268 350C757.281 350.267 756.028 350.4 754.508 350.4ZM781.415 343.52C781.415 344.987 781.068 346.24 780.375 347.28C779.681 348.293 778.641 349.067 777.255 349.6C775.868 350.133 774.148 350.4 772.095 350.4C770.575 350.4 769.268 350.293 768.175 350.08C767.081 349.893 765.988 349.573 764.895 349.12V344.2C766.068 344.733 767.335 345.173 768.695 345.52C770.055 345.867 771.255 346.04 772.295 346.04C773.468 346.04 774.295 345.867 774.775 345.52C775.281 345.173 775.535 344.72 775.535 344.16C775.535 343.787 775.428 343.453 775.215 343.16C775.028 342.867 774.601 342.533 773.935 342.16C773.268 341.787 772.228 341.307 770.815 340.72C769.455 340.133 768.335 339.56 767.455 339C766.575 338.413 765.921 337.72 765.495 336.92C765.068 336.093 764.855 335.067 764.855 333.84C764.855 331.813 765.641 330.293 767.215 329.28C768.788 328.267 770.881 327.76 773.495 327.76C774.855 327.76 776.148 327.893 777.375 328.16C778.601 328.427 779.868 328.867 781.175 329.48L779.375 333.76C778.655 333.44 777.961 333.16 777.295 332.92C776.628 332.68 775.975 332.493 775.335 332.36C774.721 332.227 774.081 332.16 773.415 332.16C772.535 332.16 771.868 332.28 771.415 332.52C770.988 332.76 770.775 333.12 770.775 333.6C770.775 333.947 770.881 334.267 771.095 334.56C771.335 334.827 771.775 335.12 772.415 335.44C773.081 335.76 774.055 336.187 775.335 336.72C776.588 337.227 777.668 337.76 778.575 338.32C779.481 338.853 780.175 339.533 780.655 340.36C781.161 341.16 781.415 342.213 781.415 343.52ZM784.383 347.285C784.383 346.868 784.461 346.478 784.617 346.113C784.773 345.736 784.988 345.417 785.262 345.156C785.535 344.883 785.854 344.668 786.219 344.512C786.596 344.342 787 344.258 787.43 344.258C787.833 344.258 788.224 344.342 788.602 344.512C788.979 344.668 789.298 344.883 789.559 345.156C789.832 345.417 790.047 345.736 790.203 346.113C790.359 346.478 790.438 346.868 790.438 347.285C790.438 347.715 790.359 348.112 790.203 348.477C790.047 348.841 789.832 349.16 789.559 349.434C789.298 349.694 788.979 349.896 788.602 350.039C788.224 350.195 787.833 350.273 787.43 350.273C787 350.273 786.596 350.195 786.219 350.039C785.854 349.896 785.535 349.694 785.262 349.434C784.988 349.16 784.773 348.841 784.617 348.477C784.461 348.112 784.383 347.715 784.383 347.285Z" fill="#1976D2"/>
<line x1="309.244" y1="121.308" x2="341.922" y2="70.9878" stroke="#00B0F0" stroke-width="10"/>
<line x1="247.807" y1="217.597" x2="280.485" y2="167.277" stroke="#00B0F0" stroke-width="10"/>
<line x1="39.7647" y1="217.343" x2="71.7647" y2="166.343" stroke="#00B0F0" stroke-width="10"/>
<line x1="130.756" y1="219.643" x2="97.7555" y2="166.643" stroke="#00B0F0" stroke-width="10"/>
<line x1="89.403" y1="297.527" x2="117.403" y2="268.527" stroke="#626262" stroke-width="10"/>
<line x1="208" y1="247" x2="168" y2="247" stroke="#00B0F0" stroke-width="10"/>
<path d="M310.4 268.28C303.488 268.28 297.6 267.043 292.736 264.568C287.872 262.008 284.16 258.083 281.6 252.792C279.04 247.501 277.76 240.717 277.76 232.44C277.76 223.907 279.211 216.952 282.112 211.576C285.013 206.2 289.024 202.232 294.144 199.672C299.349 197.112 305.323 195.832 312.064 195.832C316.843 195.832 320.981 196.301 324.48 197.24C328.064 198.179 331.179 199.288 333.824 200.568L328.192 215.288C325.205 214.093 322.389 213.112 319.744 212.344C317.184 211.576 314.624 211.192 312.064 211.192C308.736 211.192 305.963 212.003 303.744 213.624C301.525 215.16 299.861 217.507 298.752 220.664C297.728 223.736 297.216 227.619 297.216 232.312C297.216 236.92 297.771 240.76 298.88 243.832C300.075 246.819 301.781 249.08 304 250.616C306.219 252.067 308.907 252.792 312.064 252.792C316.075 252.792 319.616 252.28 322.688 251.256C325.76 250.147 328.747 248.653 331.648 246.776V263.032C328.747 264.909 325.675 266.232 322.432 267C319.275 267.853 315.264 268.28 310.4 268.28ZM403.542 231.928C403.542 237.731 402.731 242.893 401.11 247.416C399.574 251.939 397.313 255.779 394.326 258.936C391.425 262.008 387.883 264.355 383.702 265.976C379.521 267.512 374.785 268.28 369.494 268.28C364.63 268.28 360.107 267.512 355.926 265.976C351.83 264.355 348.289 262.008 345.302 258.936C342.315 255.779 339.969 251.939 338.262 247.416C336.641 242.893 335.83 237.731 335.83 231.928C335.83 224.163 337.195 217.635 339.926 212.344C342.657 206.968 346.582 202.872 351.702 200.056C356.822 197.24 362.881 195.832 369.878 195.832C376.449 195.832 382.251 197.24 387.286 200.056C392.321 202.872 396.289 206.968 399.19 212.344C402.091 217.635 403.542 224.163 403.542 231.928ZM355.286 231.928C355.286 236.536 355.755 240.419 356.694 243.576C357.718 246.648 359.297 248.995 361.43 250.616C363.563 252.152 366.337 252.92 369.75 252.92C373.163 252.92 375.894 252.152 377.942 250.616C380.075 248.995 381.611 246.648 382.55 243.576C383.574 240.419 384.086 236.536 384.086 231.928C384.086 227.32 383.574 223.48 382.55 220.408C381.611 217.336 380.075 215.032 377.942 213.496C375.809 211.96 373.035 211.192 369.622 211.192C364.587 211.192 360.918 212.941 358.614 216.44C356.395 219.853 355.286 225.016 355.286 231.928ZM493.672 195.832C501.608 195.832 507.581 197.88 511.592 201.976C515.688 205.987 517.736 212.472 517.736 221.432V267H498.664V226.168C498.664 221.133 497.811 217.379 496.104 214.904C494.397 212.344 491.752 211.064 488.168 211.064C483.133 211.064 479.549 212.856 477.416 216.44C475.283 220.024 474.216 225.187 474.216 231.928V267H455.144V226.168C455.144 222.84 454.76 220.067 453.992 217.848C453.224 215.629 452.072 213.965 450.536 212.856C449 211.661 447.037 211.064 444.648 211.064C441.149 211.064 438.376 211.96 436.328 213.752C434.28 215.544 432.829 218.147 431.976 221.56C431.123 224.973 430.696 229.155 430.696 234.104V267H411.624V197.112H426.216L428.776 206.072H429.8C431.251 203.683 433.043 201.763 435.176 200.312C437.309 198.776 439.656 197.667 442.216 196.984C444.861 196.216 447.507 195.832 450.152 195.832C455.272 195.832 459.624 196.685 463.208 198.392C466.792 200.013 469.523 202.573 471.4 206.072H473.064C475.197 202.488 478.141 199.885 481.896 198.264C485.736 196.643 489.661 195.832 493.672 195.832ZM568.606 195.832C576.457 195.832 582.814 198.904 587.678 205.048C592.542 211.107 594.974 220.067 594.974 231.928C594.974 239.864 593.822 246.563 591.518 252.024C589.214 257.4 586.057 261.453 582.046 264.184C578.035 266.915 573.385 268.28 568.094 268.28C564.766 268.28 561.865 267.853 559.39 267C557.001 266.147 554.953 265.037 553.246 263.672C551.539 262.307 550.046 260.856 548.766 259.32H547.742C548.083 260.941 548.339 262.648 548.51 264.44C548.681 266.147 548.766 267.853 548.766 269.56V297.72H529.694V197.112H545.182L547.87 206.2H548.766C550.046 204.323 551.582 202.616 553.374 201.08C555.166 199.459 557.299 198.179 559.774 197.24C562.334 196.301 565.278 195.832 568.606 195.832ZM562.462 211.064C559.134 211.064 556.489 211.747 554.526 213.112C552.563 214.477 551.113 216.568 550.174 219.384C549.321 222.115 548.851 225.571 548.766 229.752V231.8C548.766 236.323 549.193 240.163 550.046 243.32C550.899 246.392 552.35 248.739 554.398 250.36C556.446 251.981 559.219 252.792 562.718 252.792C565.619 252.792 568.009 251.981 569.886 250.36C571.763 248.739 573.171 246.349 574.11 243.192C575.049 240.035 575.518 236.195 575.518 231.672C575.518 224.845 574.451 219.725 572.318 216.312C570.27 212.813 566.985 211.064 562.462 211.064ZM667.142 197.112V267H652.55L649.99 258.04H648.966C647.515 260.429 645.638 262.392 643.334 263.928C641.115 265.379 638.641 266.445 635.91 267.128C633.179 267.896 630.363 268.28 627.462 268.28C622.513 268.28 618.161 267.384 614.406 265.592C610.651 263.8 607.75 261.027 605.702 257.272C603.654 253.517 602.63 248.653 602.63 242.68V197.112H621.702V237.944C621.702 242.893 622.598 246.648 624.39 249.208C626.182 251.768 629.041 253.048 632.966 253.048C636.891 253.048 639.921 252.152 642.054 250.36C644.273 248.568 645.809 245.965 646.662 242.552C647.601 239.139 648.07 234.957 648.07 230.008V197.112H667.142ZM708.899 253.048C711.032 253.048 713.08 252.835 715.043 252.408C717.006 251.981 718.968 251.469 720.931 250.872V265.08C718.883 265.933 716.323 266.659 713.251 267.256C710.264 267.939 706.979 268.28 703.395 268.28C699.214 268.28 695.459 267.597 692.131 266.232C688.888 264.867 686.286 262.52 684.323 259.192C682.446 255.779 681.507 251.085 681.507 245.112V211.448H672.419V203.384L682.915 196.984L688.419 182.264H700.579V197.112H720.163V211.448H700.579V245.112C700.579 247.757 701.347 249.763 702.883 251.128C704.419 252.408 706.424 253.048 708.899 253.048ZM746.351 197.112V267H727.279V197.112H746.351ZM736.879 169.72C739.695 169.72 742.127 170.403 744.175 171.768C746.223 173.048 747.247 175.48 747.247 179.064C747.247 182.563 746.223 184.995 744.175 186.36C742.127 187.725 739.695 188.408 736.879 188.408C733.978 188.408 731.503 187.725 729.455 186.36C727.492 184.995 726.511 182.563 726.511 179.064C726.511 175.48 727.492 173.048 729.455 171.768C731.503 170.403 733.978 169.72 736.879 169.72ZM798.279 195.832C805.788 195.832 811.804 197.88 816.327 201.976C820.85 205.987 823.111 212.472 823.111 221.432V267H804.039V226.168C804.039 221.133 803.143 217.379 801.351 214.904C799.559 212.344 796.7 211.064 792.775 211.064C786.972 211.064 783.004 213.069 780.871 217.08C778.738 221.005 777.671 226.68 777.671 234.104V267H758.599V197.112H773.191L775.751 206.072H776.775C778.311 203.683 780.188 201.763 782.407 200.312C784.626 198.776 787.1 197.667 789.831 196.984C792.562 196.216 795.378 195.832 798.279 195.832ZM857.7 195.832C861.967 195.832 865.807 196.685 869.22 198.392C872.633 200.099 875.535 202.659 877.924 206.072H878.436L879.972 197.112H896.1V267.128C896.1 273.784 894.777 279.373 892.132 283.896C889.572 288.419 885.689 291.832 880.484 294.136C875.279 296.525 868.836 297.72 861.156 297.72C856.207 297.72 851.599 297.421 847.332 296.824C843.151 296.227 839.055 295.16 835.044 293.624V278.392C837.945 279.587 840.847 280.568 843.748 281.336C846.735 282.189 849.764 282.787 852.836 283.128C855.993 283.555 859.151 283.768 862.308 283.768C867.257 283.768 870.927 282.445 873.316 279.8C875.791 277.155 877.028 273.187 877.028 267.896V266.488C877.028 265.037 877.071 263.544 877.156 262.008C877.327 260.472 877.455 259.107 877.54 257.912H877.028C874.639 261.581 871.78 264.227 868.452 265.848C865.124 267.469 861.369 268.28 857.188 268.28C848.911 268.28 842.425 265.123 837.732 258.808C833.124 252.408 830.82 243.533 830.82 232.184C830.82 224.504 831.887 217.976 834.02 212.6C836.153 207.139 839.225 203 843.236 200.184C847.332 197.283 852.153 195.832 857.7 195.832ZM863.716 211.32C860.729 211.32 858.212 212.131 856.164 213.752C854.201 215.288 852.708 217.635 851.684 220.792C850.745 223.864 850.276 227.747 850.276 232.44C850.276 239.437 851.385 244.685 853.604 248.184C855.823 251.597 859.279 253.304 863.972 253.304C866.447 253.304 868.58 253.005 870.372 252.408C872.164 251.725 873.615 250.659 874.724 249.208C875.919 247.672 876.815 245.709 877.412 243.32C878.009 240.931 878.308 238.029 878.308 234.616V232.312C878.308 227.277 877.796 223.224 876.772 220.152C875.748 217.08 874.169 214.861 872.036 213.496C869.903 212.045 867.129 211.32 863.716 211.32Z" fill="#626262"/>
<path d="M404.752 135.264C404.752 139.957 403.643 143.968 401.424 147.296C399.205 150.539 395.877 153.013 391.44 154.72C387.003 156.427 381.499 157.28 374.928 157.28C370.064 157.28 365.883 156.939 362.384 156.256C358.885 155.659 355.387 154.635 351.888 153.184V137.44C355.643 139.147 359.696 140.555 364.048 141.664C368.4 142.773 372.24 143.328 375.568 143.328C379.323 143.328 381.968 142.773 383.504 141.664C385.125 140.555 385.936 139.104 385.936 137.312C385.936 136.117 385.595 135.051 384.912 134.112C384.315 133.173 382.949 132.107 380.816 130.912C378.683 129.717 375.355 128.181 370.832 126.304C366.48 124.427 362.896 122.592 360.08 120.8C357.264 118.923 355.173 116.704 353.808 114.144C352.443 111.499 351.76 108.213 351.76 104.288C351.76 97.8027 354.277 92.9387 359.312 89.696C364.347 86.4533 371.045 84.832 379.408 84.832C383.76 84.832 387.899 85.2587 391.824 86.112C395.749 86.9653 399.803 88.3733 403.984 90.336L398.224 104.032C395.92 103.008 393.701 102.112 391.568 101.344C389.435 100.576 387.344 99.9787 385.296 99.552C383.333 99.1253 381.285 98.912 379.152 98.912C376.336 98.912 374.203 99.296 372.752 100.064C371.387 100.832 370.704 101.984 370.704 103.52C370.704 104.629 371.045 105.653 371.728 106.592C372.496 107.445 373.904 108.384 375.952 109.408C378.085 110.432 381.2 111.797 385.296 113.504C389.307 115.125 392.763 116.832 395.664 118.624C398.565 120.331 400.784 122.507 402.32 125.152C403.941 127.712 404.752 131.083 404.752 135.264ZM475.417 120.928C475.417 126.731 474.606 131.893 472.985 136.416C471.449 140.939 469.188 144.779 466.201 147.936C463.3 151.008 459.758 153.355 455.577 154.976C451.396 156.512 446.66 157.28 441.369 157.28C436.505 157.28 431.982 156.512 427.801 154.976C423.705 153.355 420.164 151.008 417.177 147.936C414.19 144.779 411.844 140.939 410.137 136.416C408.516 131.893 407.705 126.731 407.705 120.928C407.705 113.163 409.07 106.635 411.801 101.344C414.532 95.968 418.457 91.872 423.577 89.056C428.697 86.24 434.756 84.832 441.753 84.832C448.324 84.832 454.126 86.24 459.161 89.056C464.196 91.872 468.164 95.968 471.065 101.344C473.966 106.635 475.417 113.163 475.417 120.928ZM427.161 120.928C427.161 125.536 427.63 129.419 428.569 132.576C429.593 135.648 431.172 137.995 433.305 139.616C435.438 141.152 438.212 141.92 441.625 141.92C445.038 141.92 447.769 141.152 449.817 139.616C451.95 137.995 453.486 135.648 454.425 132.576C455.449 129.419 455.961 125.536 455.961 120.928C455.961 116.32 455.449 112.48 454.425 109.408C453.486 106.336 451.95 104.032 449.817 102.496C447.684 100.96 444.91 100.192 441.497 100.192C436.462 100.192 432.793 101.941 430.489 105.44C428.27 108.853 427.161 114.016 427.161 120.928Z" fill="#00B0F0"/>
<path d="M496.4 157.28C489.488 157.28 483.6 156.043 478.736 153.568C473.872 151.008 470.16 147.083 467.6 141.792C465.04 136.501 463.76 129.717 463.76 121.44C463.76 112.907 465.211 105.952 468.112 100.576C471.013 95.2 475.024 91.232 480.144 88.672C485.349 86.112 491.323 84.832 498.064 84.832C502.843 84.832 506.981 85.3013 510.48 86.24C514.064 87.1787 517.179 88.288 519.824 89.568L514.192 104.288C511.205 103.093 508.389 102.112 505.744 101.344C503.184 100.576 500.624 100.192 498.064 100.192C494.736 100.192 491.963 101.003 489.744 102.624C487.525 104.16 485.861 106.507 484.752 109.664C483.728 112.736 483.216 116.619 483.216 121.312C483.216 125.92 483.771 129.76 484.88 132.832C486.075 135.819 487.781 138.08 490 139.616C492.219 141.067 494.907 141.792 498.064 141.792C502.075 141.792 505.616 141.28 508.688 140.256C511.76 139.147 514.747 137.653 517.648 135.776V152.032C514.747 153.909 511.675 155.232 508.432 156C505.275 156.853 501.264 157.28 496.4 157.28ZM545.126 86.112V156H526.054V86.112H545.126ZM535.654 58.72C538.47 58.72 540.902 59.4027 542.95 60.768C544.998 62.048 546.022 64.48 546.022 68.064C546.022 71.5627 544.998 73.9947 542.95 75.36C540.902 76.7253 538.47 77.408 535.654 77.408C532.753 77.408 530.278 76.7253 528.23 75.36C526.267 73.9947 525.286 71.5627 525.286 68.064C525.286 64.48 526.267 62.048 528.23 60.768C530.278 59.4027 532.753 58.72 535.654 58.72ZM586.046 84.704C595.433 84.704 602.601 86.752 607.55 90.848C612.585 94.8587 615.102 101.045 615.102 109.408V156H601.79L598.078 146.528H597.566C595.603 149.003 593.555 151.051 591.422 152.672C589.374 154.293 586.985 155.445 584.254 156.128C581.609 156.896 578.323 157.28 574.398 157.28C570.302 157.28 566.59 156.512 563.262 154.976C560.019 153.355 557.459 150.923 555.582 147.68C553.705 144.352 552.766 140.171 552.766 135.136C552.766 127.712 555.369 122.251 560.574 118.752C565.779 115.168 573.587 113.205 583.998 112.864L596.158 112.48V109.408C596.158 105.739 595.177 103.051 593.214 101.344C591.337 99.6373 588.691 98.784 585.278 98.784C581.865 98.784 578.537 99.296 575.294 100.32C572.051 101.259 568.809 102.453 565.566 103.904L559.294 90.976C563.049 89.0133 567.187 87.4773 571.71 86.368C576.318 85.2587 581.097 84.704 586.046 84.704ZM588.734 123.872C582.59 124.043 578.323 125.152 575.934 127.2C573.545 129.248 572.35 131.936 572.35 135.264C572.35 138.165 573.203 140.256 574.91 141.536C576.617 142.731 578.835 143.328 581.566 143.328C585.662 143.328 589.118 142.133 591.934 139.744C594.75 137.269 596.158 133.813 596.158 129.376V123.616L588.734 123.872ZM646.016 156H626.944V58.72H646.016V156Z" fill="#00B0F0"/>
<circle cx="145" cy="242" r="24" stroke="#00B0F0" stroke-width="12"/>
<circle cx="145" cy="242" r="39" stroke="#626262" stroke-width="8"/>
<circle cx="30" cy="242" r="24" stroke="#00B0F0" stroke-width="12"/>
<circle cx="84" cy="145" r="24" stroke="#00B0F0" stroke-width="12"/>
<circle cx="235" cy="242" r="24" stroke="#00B0F0" stroke-width="12"/>
<circle cx="293" cy="145" r="24" stroke="#00B0F0" stroke-width="12"/>
<circle cx="353" cy="48" r="24" stroke="#00B0F0" stroke-width="12"/>
<path d="M331 248L345 239.5L349 253L331 262.5V248Z" fill="#626262"/>
<path d="M345 239.5L331 248V262.5M345 239.5L331 262.5M345 239.5L349 253L331 262.5" stroke="#626262" stroke-width="1.5"/>
</svg>
