<svg width="2467" height="843" viewBox="0 0 2467 843" fill="none" xmlns="http://www.w3.org/2000/svg">
<g clip-path="url(#clip0_812_96)">
<g filter="url(#filter0_d_812_96)">
<path d="M310.14 368.168L273.093 332.181L204.449 263.478H203.36L87.8637 380.162V381.253C98.2553 391.567 109.096 401.413 119.462 411.787C122.516 414.844 127.771 422.466 132.537 422.466C137.857 422.466 144.344 413.056 147.791 409.606L187.016 370.348C190.614 366.747 199.835 353.807 205.539 355.307C214.363 357.624 225.291 373.759 231.688 380.162L283.988 432.507C291.805 440.331 300.049 451.789 310.14 456.498C325.408 434.803 349.126 416.389 367.886 397.611L482.293 283.107C490.596 274.797 501.684 258.424 512.802 254.321C518.414 252.251 526.497 253.664 532.414 253.664C537 253.664 546.663 251.805 549.657 256.191C555.383 264.579 554.889 284.096 555.338 294.012C556.83 326.881 553.453 358.549 542.948 389.977C498.847 521.904 348.504 591.696 219.704 541.764C192.243 531.119 166.389 515.339 144.522 495.571C30.8687 392.829 36.1345 206.499 159.776 113.506C212.822 73.6084 284.441 52.521 350.453 66.2261C376.633 71.6611 399.356 83.9143 424.545 91.1774L402.753 127.164L520.428 117.35L507.411 79.1817L481.204 6.11749H479.025L459.412 38.8328C432.405 27.5198 407.64 14.7466 378.783 7.92164C302.179 -10.1957 217.399 3.19301 149.97 43.6845C121.842 60.5748 96.6466 81.7242 75.0997 106.444C-19.7062 215.214 -24.0651 376.786 58.1406 493.575C77.535 521.13 102.849 545.434 130.357 564.763C280.254 670.086 498.475 619.977 583.343 455.408C601.613 419.981 612.669 381.582 616.497 341.995C620.997 295.45 618.954 237.173 595.827 194.936C592.695 189.214 581.52 191.505 575.998 191.505H517.16C508.125 191.505 492.642 188.537 484.472 192.626C470.049 199.843 456.64 219.361 445.248 230.762L359.17 316.912L326.482 349.628C320.817 355.299 313.559 360.83 310.14 368.168Z" fill="#F57C00"/>
</g>
<g filter="url(#filter1_d_812_96)">
<path d="M951.992 337.419C951.992 378.493 942.664 411.303 924.005 435.85C905.347 460.231 880.307 472.423 848.883 472.423C819.75 472.423 796.427 462.85 778.915 443.704V569.626H719.258V201.926H774.251L776.704 228.926C794.218 207.653 818.032 197.016 848.145 197.016C880.551 197.016 905.92 209.126 924.252 233.345C942.746 257.399 951.992 290.864 951.992 333.738V337.419ZM892.581 332.265C892.581 305.756 887.262 284.728 876.625 269.182C866.15 253.635 851.091 245.864 831.451 245.864C807.066 245.864 789.552 255.926 778.915 276.054V393.876C789.716 414.494 807.393 424.804 831.942 424.804C850.929 424.804 865.739 417.195 876.378 401.976C887.18 386.594 892.581 363.357 892.581 332.265ZM1121.76 472.423C1083.96 472.423 1053.27 460.56 1029.7 436.83C1006.3 412.94 994.595 381.193 994.595 341.593V334.229C994.595 307.72 999.67 284.072 1009.82 263.291C1020.13 242.345 1034.53 226.062 1053.02 214.445C1071.52 202.826 1092.14 197.016 1114.89 197.016C1151.06 197.016 1178.97 208.553 1198.61 231.627C1218.41 254.699 1228.31 287.345 1228.31 329.565V353.62H1054.74C1056.54 375.548 1063.83 392.894 1076.59 405.658C1089.52 418.421 1105.73 424.804 1125.2 424.804C1152.53 424.804 1174.79 413.758 1191.98 391.666L1224.14 422.349C1213.5 438.223 1199.26 450.578 1181.42 459.413C1163.75 468.087 1143.86 472.423 1121.76 472.423ZM1114.64 244.882C1098.28 244.882 1085.02 250.609 1074.87 262.064C1064.89 273.519 1058.51 289.473 1055.73 309.928H1169.39V305.509C1168.08 285.545 1162.76 270.491 1153.43 260.345C1144.1 250.036 1131.17 244.882 1114.64 244.882ZM1332.29 201.926L1334.01 232.607C1353.65 208.88 1379.42 197.016 1411.34 197.016C1466.66 197.016 1494.81 228.681 1495.79 292.01V467.514H1436.14V295.445C1436.14 278.591 1432.45 266.154 1425.09 258.136C1417.89 249.954 1406.02 245.864 1389.49 245.864C1365.43 245.864 1347.51 256.745 1335.73 278.509V467.514H1276.07V201.926H1332.29ZM1626.78 417.93H1789.04V467.514H1564.66V110.124H1626.78V417.93ZM2043.77 384.303H1905.3L1876.33 467.514H1811.77L1946.8 110.124H2002.53L2137.79 467.514H2072.98L2043.77 384.303ZM1922.73 334.229H2026.34L1974.54 185.97L1922.73 334.229ZM2242.76 334.72V467.514H2180.65V110.124H2317.39C2357.33 110.124 2388.98 120.515 2412.4 141.297C2435.96 162.079 2447.74 189.571 2447.74 223.772C2447.74 258.79 2436.21 286.036 2413.13 305.509C2390.22 324.982 2358.06 334.72 2316.65 334.72H2242.76ZM2242.76 284.892H2317.39C2339.48 284.892 2356.34 279.736 2367.95 269.427C2379.58 258.954 2385.38 243.9 2385.38 224.263C2385.38 204.954 2379.5 189.571 2367.72 178.116C2355.93 166.497 2339.73 160.525 2319.1 160.197H2242.76V284.892Z" fill="#1976D2"/>
</g>
</g>
<path d="M156.875 764.375V768.688C156.875 775.604 155.938 781.812 154.062 787.312C152.188 792.812 149.542 797.5 146.125 801.375C142.708 805.208 138.625 808.146 133.875 810.188C129.167 812.229 123.938 813.25 118.188 813.25C112.479 813.25 107.25 812.229 102.5 810.188C97.7917 808.146 93.7083 805.208 90.25 801.375C86.7917 797.5 84.1042 792.812 82.1875 787.312C80.3125 781.812 79.375 775.604 79.375 768.688V764.375C79.375 757.417 80.3125 751.208 82.1875 745.75C84.0625 740.25 86.7083 735.562 90.125 731.688C93.5833 727.812 97.6667 724.854 102.375 722.812C107.125 720.771 112.354 719.75 118.062 719.75C123.812 719.75 129.042 720.771 133.75 722.812C138.5 724.854 142.583 727.812 146 731.688C149.458 735.562 152.125 740.25 154 745.75C155.917 751.208 156.875 757.417 156.875 764.375ZM137.938 768.688V764.25C137.938 759.417 137.5 755.167 136.625 751.5C135.75 747.833 134.458 744.75 132.75 742.25C131.042 739.75 128.958 737.875 126.5 736.625C124.042 735.333 121.229 734.688 118.062 734.688C114.896 734.688 112.083 735.333 109.625 736.625C107.208 737.875 105.146 739.75 103.438 742.25C101.771 744.75 100.5 747.833 99.625 751.5C98.75 755.167 98.3125 759.417 98.3125 764.25V768.688C98.3125 773.479 98.75 777.729 99.625 781.438C100.5 785.104 101.792 788.208 103.5 790.75C105.208 793.25 107.292 795.146 109.75 796.438C112.208 797.729 115.021 798.375 118.188 798.375C121.354 798.375 124.167 797.729 126.625 796.438C129.083 795.146 131.146 793.25 132.812 790.75C134.479 788.208 135.75 785.104 136.625 781.438C137.5 777.729 137.938 773.479 137.938 768.688ZM205.812 779.562H182.625V764.938H205.812C209.396 764.938 212.312 764.354 214.562 763.188C216.812 761.979 218.458 760.312 219.5 758.188C220.542 756.062 221.062 753.667 221.062 751C221.062 748.292 220.542 745.771 219.5 743.438C218.458 741.104 216.812 739.229 214.562 737.812C212.312 736.396 209.396 735.688 205.812 735.688H189.125V812H170.375V721H205.812C212.938 721 219.042 722.292 224.125 724.875C229.25 727.417 233.167 730.938 235.875 735.438C238.583 739.938 239.938 745.083 239.938 750.875C239.938 756.75 238.583 761.833 235.875 766.125C233.167 770.417 229.25 773.729 224.125 776.062C219.042 778.396 212.938 779.562 205.812 779.562ZM313.938 797.375V812H265.5V797.375H313.938ZM271.625 721V812H252.875V721H271.625ZM307.625 758.062V772.312H265.5V758.062H307.625ZM313.875 721V735.688H265.5V721H313.875ZM398.938 721V812H380.188L343.625 751V812H324.875V721H343.625L380.25 782.062V721H398.938ZM505.625 797.375V812H459.812V797.375H505.625ZM465.875 721V812H447.125V721H465.875ZM577.438 797.375V812H529V797.375H577.438ZM535.125 721V812H516.375V721H535.125ZM571.125 758.062V772.312H529V758.062H571.125ZM577.375 721V735.688H529V721H577.375ZM625.375 736.562L600.625 812H580.688L614.5 721H627.188L625.375 736.562ZM645.938 812L621.125 736.562L619.125 721H631.938L665.938 812H645.938ZM644.812 778.125V792.812H596.75V778.125H644.812ZM674.375 721H708.312C715.271 721 721.25 722.042 726.25 724.125C731.292 726.208 735.167 729.292 737.875 733.375C740.583 737.458 741.938 742.479 741.938 748.438C741.938 753.312 741.104 757.5 739.438 761C737.812 764.458 735.5 767.354 732.5 769.688C729.542 771.979 726.062 773.812 722.062 775.188L716.125 778.312H686.625L686.5 763.688H708.438C711.729 763.688 714.458 763.104 716.625 761.938C718.792 760.771 720.417 759.146 721.5 757.062C722.625 754.979 723.188 752.562 723.188 749.812C723.188 746.896 722.646 744.375 721.562 742.25C720.479 740.125 718.833 738.5 716.625 737.375C714.417 736.25 711.646 735.688 708.312 735.688H693.125V812H674.375V721ZM725.25 812L704.5 771.438L724.312 771.312L745.312 811.125V812H725.25ZM830.438 721V812H811.688L775.125 751V812H756.375V721H775.125L811.75 782.062V721H830.438ZM866.688 721V812H848V721H866.688ZM958.312 721V812H939.562L903 751V812H884.25V721H903L939.625 782.062V721H958.312ZM1046.75 764.438V800.5C1045.33 802.208 1043.15 804.062 1040.19 806.062C1037.23 808.021 1033.42 809.708 1028.75 811.125C1024.08 812.542 1018.44 813.25 1011.81 813.25C1005.94 813.25 1000.58 812.292 995.75 810.375C990.917 808.417 986.75 805.562 983.25 801.812C979.792 798.062 977.125 793.479 975.25 788.062C973.375 782.604 972.438 776.375 972.438 769.375V763.688C972.438 756.688 973.333 750.458 975.125 745C976.958 739.542 979.562 734.938 982.938 731.188C986.312 727.438 990.333 724.583 995 722.625C999.667 720.667 1004.85 719.688 1010.56 719.688C1018.48 719.688 1024.98 720.979 1030.06 723.562C1035.15 726.104 1039.02 729.646 1041.69 734.188C1044.4 738.688 1046.06 743.854 1046.69 749.688H1028.5C1028.04 746.604 1027.17 743.917 1025.88 741.625C1024.58 739.333 1022.73 737.542 1020.31 736.25C1017.94 734.958 1014.85 734.312 1011.06 734.312C1007.94 734.312 1005.15 734.958 1002.69 736.25C1000.27 737.5 998.229 739.354 996.562 741.812C994.896 744.271 993.625 747.312 992.75 750.938C991.875 754.562 991.438 758.771 991.438 763.562V769.375C991.438 774.125 991.896 778.333 992.812 782C993.729 785.625 995.083 788.688 996.875 791.188C998.708 793.646 1000.96 795.5 1003.62 796.75C1006.29 798 1009.4 798.625 1012.94 798.625C1015.9 798.625 1018.35 798.375 1020.31 797.875C1022.31 797.375 1023.92 796.771 1025.12 796.062C1026.38 795.312 1027.33 794.604 1028 793.938V777.812H1010.88V764.438H1046.75ZM1130.75 736.562L1106 812H1086.06L1119.88 721H1132.56L1130.75 736.562ZM1151.31 812L1126.5 736.562L1124.5 721H1137.31L1171.31 812H1151.31ZM1150.19 778.125V792.812H1102.12V778.125H1150.19ZM1253.81 721V812H1235.06L1198.5 751V812H1179.75V721H1198.5L1235.12 782.062V721H1253.81ZM1308.25 736.562L1283.5 812H1263.56L1297.38 721H1310.06L1308.25 736.562ZM1328.81 812L1304 736.562L1302 721H1314.81L1348.81 812H1328.81ZM1327.69 778.125V792.812H1279.62V778.125H1327.69ZM1415.75 797.375V812H1369.94V797.375H1415.75ZM1376 721V812H1357.25V721H1376ZM1422.25 721L1441.25 762.5L1460.25 721H1480.69L1450.75 778.875V812H1431.75V778.875L1401.75 721H1422.25ZM1530.81 721V812H1512.12V721H1530.81ZM1558.81 721V735.688H1484.56V721H1558.81ZM1589.44 721V812H1570.75V721H1589.44ZM1659.75 781.812H1678.44C1678.06 787.938 1676.38 793.375 1673.38 798.125C1670.42 802.875 1666.27 806.583 1660.94 809.25C1655.65 811.917 1649.27 813.25 1641.81 813.25C1635.98 813.25 1630.75 812.25 1626.12 810.25C1621.5 808.208 1617.54 805.292 1614.25 801.5C1611 797.708 1608.52 793.125 1606.81 787.75C1605.1 782.375 1604.25 776.354 1604.25 769.688V763.375C1604.25 756.708 1605.12 750.688 1606.88 745.312C1608.67 739.896 1611.21 735.292 1614.5 731.5C1617.83 727.708 1621.81 724.792 1626.44 722.75C1631.06 720.708 1636.23 719.688 1641.94 719.688C1649.52 719.688 1655.92 721.062 1661.12 723.812C1666.38 726.562 1670.44 730.354 1673.31 735.188C1676.23 740.021 1677.98 745.521 1678.56 751.688H1659.81C1659.6 748.021 1658.88 744.917 1657.62 742.375C1656.38 739.792 1654.48 737.854 1651.94 736.562C1649.44 735.229 1646.1 734.562 1641.94 734.562C1638.81 734.562 1636.08 735.146 1633.75 736.312C1631.42 737.479 1629.46 739.25 1627.88 741.625C1626.29 744 1625.1 747 1624.31 750.625C1623.56 754.208 1623.19 758.417 1623.19 763.25V769.688C1623.19 774.396 1623.54 778.542 1624.25 782.125C1624.96 785.667 1626.04 788.667 1627.5 791.125C1629 793.542 1630.92 795.375 1633.25 796.625C1635.62 797.833 1638.48 798.438 1641.81 798.438C1645.73 798.438 1648.96 797.812 1651.5 796.562C1654.04 795.312 1655.98 793.458 1657.31 791C1658.69 788.542 1659.5 785.479 1659.75 781.812ZM1738.12 788.188C1738.12 786.562 1737.88 785.104 1737.38 783.812C1736.92 782.479 1736.04 781.271 1734.75 780.188C1733.46 779.062 1731.65 777.958 1729.31 776.875C1726.98 775.792 1723.96 774.667 1720.25 773.5C1716.12 772.167 1712.21 770.667 1708.5 769C1704.83 767.333 1701.58 765.396 1698.75 763.188C1695.96 760.938 1693.75 758.333 1692.12 755.375C1690.54 752.417 1689.75 748.979 1689.75 745.062C1689.75 741.271 1690.58 737.833 1692.25 734.75C1693.92 731.625 1696.25 728.958 1699.25 726.75C1702.25 724.5 1705.79 722.771 1709.88 721.562C1714 720.354 1718.52 719.75 1723.44 719.75C1730.15 719.75 1736 720.958 1741 723.375C1746 725.792 1749.88 729.104 1752.62 733.312C1755.42 737.521 1756.81 742.333 1756.81 747.75H1738.19C1738.19 745.083 1737.62 742.75 1736.5 740.75C1735.42 738.708 1733.75 737.104 1731.5 735.938C1729.29 734.771 1726.5 734.188 1723.12 734.188C1719.88 734.188 1717.17 734.688 1715 735.688C1712.83 736.646 1711.21 737.958 1710.12 739.625C1709.04 741.25 1708.5 743.083 1708.5 745.125C1708.5 746.667 1708.88 748.062 1709.62 749.312C1710.42 750.562 1711.58 751.729 1713.12 752.812C1714.67 753.896 1716.56 754.917 1718.81 755.875C1721.06 756.833 1723.67 757.771 1726.62 758.688C1731.58 760.188 1735.94 761.875 1739.69 763.75C1743.48 765.625 1746.65 767.729 1749.19 770.062C1751.73 772.396 1753.65 775.042 1754.94 778C1756.23 780.958 1756.88 784.312 1756.88 788.062C1756.88 792.021 1756.1 795.562 1754.56 798.688C1753.02 801.812 1750.79 804.458 1747.88 806.625C1744.96 808.792 1741.48 810.438 1737.44 811.562C1733.4 812.688 1728.88 813.25 1723.88 813.25C1719.38 813.25 1714.94 812.667 1710.56 811.5C1706.19 810.292 1702.21 808.479 1698.62 806.062C1695.08 803.646 1692.25 800.562 1690.12 796.812C1688 793.062 1686.94 788.625 1686.94 783.5H1705.75C1705.75 786.333 1706.19 788.729 1707.06 790.688C1707.94 792.646 1709.17 794.229 1710.75 795.438C1712.38 796.646 1714.29 797.521 1716.5 798.062C1718.75 798.604 1721.21 798.875 1723.88 798.875C1727.12 798.875 1729.79 798.417 1731.88 797.5C1734 796.583 1735.56 795.312 1736.56 793.688C1737.6 792.062 1738.12 790.229 1738.12 788.188ZM1836.94 779.562H1813.75V764.938H1836.94C1840.52 764.938 1843.44 764.354 1845.69 763.188C1847.94 761.979 1849.58 760.312 1850.62 758.188C1851.67 756.062 1852.19 753.667 1852.19 751C1852.19 748.292 1851.67 745.771 1850.62 743.438C1849.58 741.104 1847.94 739.229 1845.69 737.812C1843.44 736.396 1840.52 735.688 1836.94 735.688H1820.25V812H1801.5V721H1836.94C1844.06 721 1850.17 722.292 1855.25 724.875C1860.38 727.417 1864.29 730.938 1867 735.438C1869.71 739.938 1871.06 745.083 1871.06 750.875C1871.06 756.75 1869.71 761.833 1867 766.125C1864.29 770.417 1860.38 773.729 1855.25 776.062C1850.17 778.396 1844.06 779.562 1836.94 779.562ZM1942.5 797.375V812H1896.69V797.375H1942.5ZM1902.75 721V812H1884V721H1902.75ZM1991.5 736.562L1966.75 812H1946.81L1980.62 721H1993.31L1991.5 736.562ZM2012.06 812L1987.25 736.562L1985.25 721H1998.06L2032.06 812H2012.06ZM2010.94 778.125V792.812H1962.88V778.125H2010.94ZM2073.44 721V812H2054.75V721H2073.44ZM2101.44 721V735.688H2027.19V721H2101.44ZM2130.88 721V812H2112.12V721H2130.88ZM2167.12 759.875V774.5H2125.75V759.875H2167.12ZM2171.5 721V735.688H2125.75V721H2171.5ZM2257.12 764.375V768.688C2257.12 775.604 2256.19 781.812 2254.31 787.312C2252.44 792.812 2249.79 797.5 2246.38 801.375C2242.96 805.208 2238.88 808.146 2234.12 810.188C2229.42 812.229 2224.19 813.25 2218.44 813.25C2212.73 813.25 2207.5 812.229 2202.75 810.188C2198.04 808.146 2193.96 805.208 2190.5 801.375C2187.04 797.5 2184.35 792.812 2182.44 787.312C2180.56 781.812 2179.62 775.604 2179.62 768.688V764.375C2179.62 757.417 2180.56 751.208 2182.44 745.75C2184.31 740.25 2186.96 735.562 2190.38 731.688C2193.83 727.812 2197.92 724.854 2202.62 722.812C2207.38 720.771 2212.6 719.75 2218.31 719.75C2224.06 719.75 2229.29 720.771 2234 722.812C2238.75 724.854 2242.83 727.812 2246.25 731.688C2249.71 735.562 2252.38 740.25 2254.25 745.75C2256.17 751.208 2257.12 757.417 2257.12 764.375ZM2238.19 768.688V764.25C2238.19 759.417 2237.75 755.167 2236.88 751.5C2236 747.833 2234.71 744.75 2233 742.25C2231.29 739.75 2229.21 737.875 2226.75 736.625C2224.29 735.333 2221.48 734.688 2218.31 734.688C2215.15 734.688 2212.33 735.333 2209.88 736.625C2207.46 737.875 2205.4 739.75 2203.69 742.25C2202.02 744.75 2200.75 747.833 2199.88 751.5C2199 755.167 2198.56 759.417 2198.56 764.25V768.688C2198.56 773.479 2199 777.729 2199.88 781.438C2200.75 785.104 2202.04 788.208 2203.75 790.75C2205.46 793.25 2207.54 795.146 2210 796.438C2212.46 797.729 2215.27 798.375 2218.44 798.375C2221.6 798.375 2224.42 797.729 2226.88 796.438C2229.33 795.146 2231.4 793.25 2233.06 790.75C2234.73 788.208 2236 785.104 2236.88 781.438C2237.75 777.729 2238.19 773.479 2238.19 768.688ZM2270.62 721H2304.56C2311.52 721 2317.5 722.042 2322.5 724.125C2327.54 726.208 2331.42 729.292 2334.12 733.375C2336.83 737.458 2338.19 742.479 2338.19 748.438C2338.19 753.312 2337.35 757.5 2335.69 761C2334.06 764.458 2331.75 767.354 2328.75 769.688C2325.79 771.979 2322.31 773.812 2318.31 775.188L2312.38 778.312H2282.88L2282.75 763.688H2304.69C2307.98 763.688 2310.71 763.104 2312.88 761.938C2315.04 760.771 2316.67 759.146 2317.75 757.062C2318.88 754.979 2319.44 752.562 2319.44 749.812C2319.44 746.896 2318.9 744.375 2317.81 742.25C2316.73 740.125 2315.08 738.5 2312.88 737.375C2310.67 736.25 2307.9 735.688 2304.56 735.688H2289.38V812H2270.62V721ZM2321.5 812L2300.75 771.438L2320.56 771.312L2341.56 811.125V812H2321.5ZM2361.19 721H2377.06L2400.44 787.812L2423.81 721H2439.69L2406.81 812H2394.06L2361.19 721ZM2352.62 721H2368.44L2371.31 786.125V812H2352.62V721ZM2432.44 721H2448.31V812H2429.56V786.125L2432.44 721Z" fill="#5F5F5F"/>
<defs>
<filter id="filter0_d_812_96" x="-10" y="-6" width="638.426" height="640" filterUnits="userSpaceOnUse" color-interpolation-filters="sRGB">
<feFlood flood-opacity="0" result="BackgroundImageFix"/>
<feColorMatrix in="SourceAlpha" type="matrix" values="0 0 0 0 0 0 0 0 0 0 0 0 0 0 0 0 0 0 127 0" result="hardAlpha"/>
<feOffset dy="4"/>
<feGaussianBlur stdDeviation="5"/>
<feComposite in2="hardAlpha" operator="out"/>
<feColorMatrix type="matrix" values="0 0 0 0 0 0 0 0 0 0 0 0 0 0 0 0 0 0 0.25 0"/>
<feBlend mode="normal" in2="BackgroundImageFix" result="effect1_dropShadow_812_96"/>
<feBlend mode="normal" in="SourceGraphic" in2="effect1_dropShadow_812_96" result="shape"/>
</filter>
<filter id="filter1_d_812_96" x="709.258" y="104.124" width="1748.48" height="479.502" filterUnits="userSpaceOnUse" color-interpolation-filters="sRGB">
<feFlood flood-opacity="0" result="BackgroundImageFix"/>
<feColorMatrix in="SourceAlpha" type="matrix" values="0 0 0 0 0 0 0 0 0 0 0 0 0 0 0 0 0 0 127 0" result="hardAlpha"/>
<feOffset dy="4"/>
<feGaussianBlur stdDeviation="5"/>
<feComposite in2="hardAlpha" operator="out"/>
<feColorMatrix type="matrix" values="0 0 0 0 0 0 0 0 0 0 0 0 0 0 0 0 0 0 0.25 0"/>
<feBlend mode="normal" in2="BackgroundImageFix" result="effect1_dropShadow_812_96"/>
<feBlend mode="normal" in="SourceGraphic" in2="effect1_dropShadow_812_96" result="shape"/>
</filter>
<clipPath id="clip0_812_96">
<rect width="2467" height="620" fill="white"/>
</clipPath>
</defs>
</svg>
