<svg width="843" height="957" viewBox="0 0 843 957" fill="none" xmlns="http://www.w3.org/2000/svg">
<path d="M378.881 420L378 421H378.881V420Z" fill="#F4A027"/>
<path d="M378 420V421H378.881V420H378Z" fill="#F4A027"/>
<path d="M378 420V421H378.881V420H378Z" fill="#F4A027"/>
<path d="M378 420V421H378.881V420H378Z" fill="#F4A027"/>
<path d="M378 420V421H378.881L378 420Z" fill="#F4A027"/>
<path d="M378 420V421H378.881V420H378Z" fill="#F4A027"/>
<path d="M378 420V421H378.881V420H378Z" fill="#F4A027"/>
<path d="M378 420L378.881 421V420H378Z" fill="#F4A027"/>
<path d="M378 420V421H378.881V420H378Z" fill="#F4A027"/>
<path d="M377 420V421H378.762V420H377Z" fill="#F4A027"/>
<path d="M378 420V421L378.881 420H378Z" fill="#F4A027"/>
<path d="M378.881 420L378 421L378.881 422V420Z" fill="#F4A027"/>
<path d="M378 420V421H378.881V420H378Z" fill="#F4A027"/>
<path d="M378 420V421H378.881V420H378Z" fill="#F4A027"/>
<path d="M377 420V421H377.881L378.762 420H377Z" fill="#F4A027"/>
<path d="M378 420V421H378.881V420H378Z" fill="#F4A027"/>
<path d="M377.881 420L377 421H378.762L377.881 420Z" fill="#F4A027"/>
<path d="M378 420V421H378.881V420H378Z" fill="#F4A027"/>
<path d="M378 420V421H378.881V420H378Z" fill="#F4A027"/>
<path d="M378 420V421H378.881V420H378Z" fill="#F4A027"/>
<path d="M378.881 420L378 421V422H378.881V420Z" fill="#F4A027"/>
<path d="M378 420V421H378.881V420H378Z" fill="#F4A027"/>
<path d="M378 420V421H378.881V420H378Z" fill="#F4A027"/>
<path d="M378 420V421H378.881V420H378Z" fill="#F4A027"/>
<path d="M378.881 420L378 421L378.881 422V420Z" fill="#F4A027"/>
<path d="M378 420V421H378.881V420H378Z" fill="#F4A027"/>
<path d="M377 420V421H378.762V420H377Z" fill="#F4A027"/>
<path d="M377.881 420L377 421L377.881 422L378.762 421L377.881 420Z" fill="#F4A027"/>
<path d="M378 420V421H378.881V420H378Z" fill="#F4A027"/>
<path d="M378 420V421H378.881V420H378Z" fill="#F4A027"/>
<path d="M377 420V421H377.881L378.762 420H377Z" fill="#F4A027"/>
<path d="M378.881 420L378 421V422H378.881V420Z" fill="#F4A027"/>
<path d="M377.881 420L377 421H378.762L377.881 420Z" fill="#F4A027"/>
<path d="M378 420V421H378.881V420H378Z" fill="#F4A027"/>
<path d="M378 420V421H378.881V420H378Z" fill="#F4A027"/>
<path d="M378.881 420L378 421V422H378.881V420Z" fill="#F4A027"/>
<path d="M378 420V421H378.881V420H378Z" fill="#F4A027"/>
<path d="M378 420V421H378.881V420H378Z" fill="#F4A027"/>
<path d="M378 420V421H378.881V420H378Z" fill="#F4A027"/>
<path d="M378.881 420L378 421L378.881 422V420Z" fill="#F4A027"/>
<path d="M378 420V421H378.881V420H378Z" fill="#F4A027"/>
<path d="M377 420V421H377.881L378.762 420H377Z" fill="#F4A027"/>
<path d="M377.881 420L377 421H378.762L377.881 420Z" fill="#F4A027"/>
<path d="M378 420V421H378.881V420H378Z" fill="#F4A027"/>
<path d="M378 420V421H378.881V420H378Z" fill="#F4A027"/>
<path d="M378 420V421H378.881V420H378Z" fill="#F4A027"/>
<path d="M378.881 420L378 421V422H378.881V420Z" fill="#F4A027"/>
<path d="M378 420V421H378.881L378 420Z" fill="#F4A027"/>
<path d="M378 420V421H378.881V420H378Z" fill="#F4A027"/>
<path d="M378 420V421H378.881V420H378Z" fill="#F4A027"/>
<path d="M378 420L378.881 421V420H378Z" fill="#F4A027"/>
<path d="M378 420V421H378.881V420H378Z" fill="#F4A027"/>
<path d="M378 420V421H378.881V420H378Z" fill="#F4A027"/>
<path d="M377 420V421H378.762V420H377Z" fill="#F4A027"/>
<path d="M377.881 420L377 421V422H378.762V421L377.881 420Z" fill="#F4A027"/>
<path d="M378 420V422L378.881 421V420H378Z" fill="#F4A027"/>
<path d="M378 420V421H378.881V420H378Z" fill="#F4A027"/>
<path d="M377 420V421H378.762V420H377Z" fill="#F4A027"/>
<path d="M378 420V421H378.881V420H378Z" fill="#F4A027"/>
<path d="M378 420V421H378.881V420H378Z" fill="#F4A027"/>
<path d="M378 420V421H378.881V420H378Z" fill="#F4A027"/>
<path d="M378.881 420L378 421L378.881 422V420Z" fill="#F4A027"/>
<path d="M377.881 420L377 421H378.762L377.881 420Z" fill="#F4A027"/>
<path d="M378 420V421H378.881V420H378Z" fill="#F4A027"/>
<path d="M378 420V421H378.881V420H378Z" fill="#F4A027"/>
<path d="M378 420V421L378.881 420H378Z" fill="#F4A027"/>
<path d="M378 420L378.881 421V420H378Z" fill="#F4A027"/>
<path d="M377 420V421L377.881 422L378.762 421L377.881 420H377Z" fill="#F4A027"/>
<path d="M378 420V421H378.881L378 420Z" fill="#F4A027"/>
<path d="M378 420V421H378.881V420H378Z" fill="#F4A027"/>
<path d="M378.881 420L378 421H378.881V420Z" fill="#F4A027"/>
<path d="M377 420V421H378.762V420H377Z" fill="#F4A027"/>
<path d="M378 420V421H378.881V420H378Z" fill="#F4A027"/>
<path d="M378 420V421H378.881V420H378Z" fill="#F4A027"/>
<path d="M377 420V421L377.881 422L378.762 421L377.881 420H377Z" fill="#F4A027"/>
<path d="M378.881 420L378 421H378.881V420Z" fill="#F4A027"/>
<path d="M378 420V421H378.881V420H378Z" fill="#F4A027"/>
<path d="M378 420V421H378.881V420H378Z" fill="#F4A027"/>
<path d="M378 420V421L378.881 420H378Z" fill="#F4A027"/>
<path d="M378 420V421H378.881V420H378Z" fill="#F4A027"/>
<path d="M378.881 420L378 421H378.881V420Z" fill="#F4A027"/>
<path d="M378 420V421H378.881V420H378Z" fill="#F4A027"/>
<path d="M378 420V421L378.881 420H378Z" fill="#F4A027"/>
<path d="M378.881 420L378 421H378.881V420Z" fill="#F4A027"/>
<path d="M378.881 420L378 421H378.881V420Z" fill="#F4A027"/>
<path d="M377.881 420L377 421H378.762V420H377.881Z" fill="#F4A027"/>
<path d="M378 420V421L378.881 420H378Z" fill="#F4A027"/>
<path d="M378 420V421H378.881V420H378Z" fill="#F4A027"/>
<path d="M377 420V421L377.881 422L378.762 421L377.881 420H377Z" fill="#F4A027"/>
<path d="M378 420V421H378.881V420H378Z" fill="#F4A027"/>
<path d="M378 420V421H378.881V420H378Z" fill="#F4A027"/>
<path d="M377 420V421H378.762V420H377Z" fill="#F4A027"/>
<path d="M378 420V421H378.881V420H378Z" fill="#F4A027"/>
<path d="M377 420V421L377.881 422L378.762 421L377.881 420H377Z" fill="#F4A027"/>
<path d="M378.881 420L378 421H378.881V420Z" fill="#F4A027"/>
<path d="M378 420V421H378.881V420H378Z" fill="#F4A027"/>
<path d="M378 420V421L378.881 420H378Z" fill="#F4A027"/>
<path d="M378 420V421H378.881V420H378Z" fill="#F4A027"/>
<path d="M378.881 420L378 421H378.881V420Z" fill="#F4A027"/>
<path d="M377.881 420L377 421H378.762V420H377.881Z" fill="#F4A027"/>
<path d="M378 420V421L378.881 420H378Z" fill="#F4A027"/>
<path d="M378 420L378.881 421V420H378Z" fill="#F4A027"/>
<path d="M378 420V421L378.881 422V420H378Z" fill="#F4A027"/>
<path d="M378 420V421H378.881L378 420Z" fill="#F4A027"/>
<path d="M378.881 420L378 421H378.881V420Z" fill="#F4A027"/>
<path d="M377 420V421H378.762V420H377Z" fill="#F4A027"/>
<path d="M378 420V421L378.881 420H378Z" fill="#F4A027"/>
<path d="M378 420V421H378.881V420H378Z" fill="#F4A027"/>
<path d="M377 420V421L377.881 422L378.762 421L377.881 420H377Z" fill="#F4A027"/>
<path d="M378 420V421H378.881V420H378Z" fill="#F4A027"/>
<path d="M378 420V421H378.881V420H378Z" fill="#F4A027"/>
<path d="M378 420V421H378.881V420H378Z" fill="#F4A027"/>
<path d="M378.881 420L378 421H378.881V420Z" fill="#F4A027"/>
<path d="M378 420V421H378.881V420H378Z" fill="#F4A027"/>
<path d="M378 420V421L378.881 420H378Z" fill="#F4A027"/>
<path d="M378 420V421L378.881 420H378Z" fill="#F4A027"/>
<path d="M378.881 420L378 421H378.881V420Z" fill="#F4A027"/>
<path d="M377.881 420L377 421H378.762V420H377.881Z" fill="#F4A027"/>
<path d="M378 420V421L378.881 420H378Z" fill="#F4A027"/>
<path d="M378 420L378.881 421V420H378Z" fill="#F4A027"/>
<path d="M378 420V421L378.881 422V420H378Z" fill="#F4A027"/>
<path d="M378 420V421H378.881L378 420Z" fill="#F4A027"/>
<path d="M378 420V421H378.881V420H378Z" fill="#F4A027"/>
<path d="M377 420V421H378.762V420H377Z" fill="#F4A027"/>
<path d="M378 420V421H378.881V420H378Z" fill="#F4A027"/>
<path d="M378 420V421H378.881V420H378Z" fill="#F4A027"/>
<path d="M377 420V421L377.881 422L378.762 421L377.881 420H377Z" fill="#F4A027"/>
<path d="M378.881 420L378 421H378.881V420Z" fill="#F4A027"/>
<path d="M378 420V421H378.881V420H378Z" fill="#F4A027"/>
<path d="M409 120V122L408 123H399V125L398 126H396L395 127H393V128L391 130H387V132L386 133H381L382 134L379 137H377L376 136V138L375 139H374L373 140H370V142L369 143H364L365 144L363 146H359V148L358 149H357L356 150H354L353 149V151L351 153H347L348 154L346 156H342V157L340 159H337L336 160V161L335 162H334L333 163H330V164L328 166H324L325 167L323 169H319V171L318 172H314V174L313 175H311L310 176H308V177L306 179H302V181L301 182H296L297 183L294 186H292L291 185V187L290 188H289L288 189H285V191L284 192H279L280 193L278 195H274V197L273 198H272L271 199H268V200L266 202H262L263 203L261 205H257V206L255 208H252V209L250 211H249L248 212H245L246 213L245 214H244L243 215H239L240 216L238 218H235V219L233 221H232L231 222H230L229 221V223L228 224H226L225 225H223V226L221 228H217V230L216 231H212V233L211 234H210L209 235H207L206 234V236L204 238H200V240L199 241H194L195 242L193 244H190L189 245V246L188 247H187L186 248H183V249L181 251H177L178 252L176 254H172V255L170 257H167L166 258V259L165 260H164L163 261H160L161 262L160 263H159L158 264H156L155 265V266L154 267H149L150 268L148 270H147L146 271H145L144 270V272L143 273H142L141 274H138V275L136 277H133V278L131 280H128V282L127 283H125L124 284V285L123 286H122L121 287V288L120 289H119L118 290V292L117 293H115V296L113 298L112 297V302L110 304L109 303V308L108 309V310L107 311H105V325L104 326V327L103 328L102 327V326V631L103 630L105 632V647L106 646H107L108 647V649L109 650V654H110L112 656V660H113L115 662V663L116 664L115 665H117L118 666V668H120L122 670V672H124L125 673V675H128L129 676V678H132L134 680V681H137L139 683V684H140L141 685H144L145 686V688H149L151 690V691H154L156 693V694H160L162 696V697L163 698H166L167 699V701H172L173 702V704H176L177 705H178L179 706V707L180 708H183L184 709V711L185 710L186 711H189L190 712V714H194L196 716V717H199L200 718H201L202 719V720L203 721H206L207 722V724H212L213 725V727H216L218 729V730H222L224 732V733H225L226 734H229L230 735V737H234L235 738V740H239L241 742V743H245L247 745V746L248 747H251L252 748V750H256L258 752V753H261L265 757H268L269 758V760L270 759L271 760H274L275 761V763H279L281 765V766H284L288 770H291L292 771V773H297L298 774V776H301L303 778V779H307L309 781V782H310L311 783H313L314 784V786H319L320 787V789H324L326 791V792H329L330 793H331L332 794V795H333L334 796H336L337 797V799H341L343 801V802H346L350 806H353L354 807V809L355 808L356 809H359L360 810V812H364L366 814V815H369L371 817V818H372L373 819H376L377 820V822H381L383 824V825H386L388 827V828H392L394 830V832H399L401 834L400 835H410L412 837L411 838H434H433L432 837L433 836H435L436 835H445V833L446 832H452L451 831V830L452 829H454L455 828H457V827L459 825H463V823L464 822H468V820L469 819H471L472 818H473L474 819V817L475 816H477L478 815H480V813L481 812H485V811L487 809H491V807L492 806H493L494 805H496L497 806V804L498 803H499L500 802H502V801L504 799H508V797L509 796H510L511 795H512L513 796H514V794L515 793H516L517 792H520L519 791L521 789H525V788L527 786H531L530 785L532 783H533L534 782H535L536 783V781L537 780H539L540 779H542V778L544 776H547V775L549 773H553V771L554 770H556L557 769H558L559 770V768L560 767H561L562 766H565V764L566 763H570V762L572 760H576V758L577 757H578L579 756H582V755L584 753H587V752L589 750H593V748L594 747H595L596 746H597L598 747H599V745L600 744H601L602 743H604V742L606 740H610V739L612 737H615V736L617 734H618L619 733H620L621 734V732L622 731H624L625 730H627V729L629 727H632V726L634 724H638V722L639 721H641L642 720H643L644 721V719L645 718H646L647 717H650V715L651 714H655V713L657 711H661V709L662 708H663L664 707H667V705L668 704H672V703L674 701H678V699L679 698H680L681 697H682L683 698V696L684 695H686L687 694H689V693L691 691H695V690L697 688H700V687L702 685H703L704 684H705L706 685V683L707 682H709L710 681H712V679L713 678H716V677L718 675H719L720 674H721V673L729 665V663L730 662H732V659L734 657L735 658V653L736 652V651L737 650L738 651V646L739 645V641L741 639L742 640V316L741 317H740L739 316V313L738 312V307H737L735 305V300H733L732 299V296L731 295H730L729 294V293L725 289V287H723L722 286V285L721 284H720L716 280H714L713 279V277H709L707 275V274H704L703 273H702L701 272V271L700 270H697L696 269V267H691L690 266V264H686L684 262L685 261H681L679 259V258H678L677 257H675L673 255L674 254H669L667 252L668 251H664L662 249V248H661L660 247H657L656 246V245L657 244H656L655 245L654 244H652L651 243V241H646L645 240V238H641L639 236V235H638L637 234H635L634 233V231H629L628 230V228H624L622 226V225H619L617 223V222H616L615 221H612L611 220V218H607L605 216V215H602L601 214H600L599 213V212L598 211H595L594 210V209H593L592 208H590L588 206L589 205H584L582 203L583 202H579L577 200V199H576L575 198H573L571 196L572 195H567L566 194V192H562L560 190V189H557L556 188H555L554 187V186L553 185H550L549 184V182H544L543 181V179H539L537 177V176H534L532 174V173H531L530 172H527L526 171V169H522L520 167L521 166H517L515 164V163H514L513 162H510L509 161V160L510 159L509 160H508L507 159H505L503 157L504 156H499L497 154L498 153H494L492 151V150H491L490 149H488L486 147L487 146H482L481 145V143H477L475 141V140H472L471 139H470L469 138V137L468 136H465L464 135V133H459L458 132V130H454L452 128L453 127H449L448 126H447L446 125V123H437L436 122V121L437 120H409Z" fill="#949494"/>
<path d="M381 371L380 372H374L373 373H372L371 374H367L366 375H365L363 377H361L360 378H359L358 379H357L355 381H354L352 383H351L349 385H348L347 386V387L346 388H345L334 399V400L333 401H332L331 402V403L329 405V407L330 408L331 407H332V406L334 404H335L338 401H339L340 400H341L342 399H343L344 398H347L348 397H350L351 396H355L356 395H363L364 396H369L370 397H373L374 398H376L379 401V403L378 404H362L361 405H360V407L361 408H362L363 409V410L366 413V416L367 417V419L368 420V434L367 435V436L366 437V440L365 441V442L363 444V446L362 447V448L360 450V451L359 452V453L357 455V456L356 457V458L353 461V462L352 463V464L350 466V467L349 468V469L347 471V472L346 473V474L344 476V477L343 478V479L342 480V482L340 484V486L339 487V489L338 490V491L337 492V494L336 495V501L335 502V503L334 504V514L335 515V518L336 519V521L337 522V524L338 525V526L339 527V528L340 529V530L343 533V534L347 538V539L353 545H354L358 549H359L361 551H362L365 554H366L368 556H369L371 558H373L376 561H378L380 563H381L385 567V570L383 572V573L382 574V577L383 578V579L387 583H388L390 585H392L393 586H395L396 585H467L468 586H471V582L470 581H469L466 578H465L464 577H462L461 576H458L457 575H455L454 574H444L442 572V571L443 570V569L445 567V566L447 564V563L448 562V561L449 560V558L450 557V555L451 554V551L452 550V543L451 542V539L450 538V537L449 536V535L448 534V532L447 531V530L445 528V525L448 522H452L453 523H457L458 524H464L465 523H467L468 522H471L472 521H473L475 519H476L477 518H478L481 515H482L485 512H487L491 508H492L493 507H494L495 508H496L498 510H500L501 511H506L507 510V507L506 506V505L504 503V502L500 498H490L489 499H483L482 500H477L476 501H464L462 499V495L464 493V492L467 489V488L470 485H471L472 484H473L474 483H489L490 482H495L496 481H499L500 480H504L505 479H507L508 478H509L511 476H513L514 475V474L516 472V466L515 465V464L514 463V460L512 458V457L510 455V454L508 452V451L500 443H499L496 440H495L494 439H493L491 437H490L489 436H487L486 435H485L484 434H483L482 433H479L478 432H476L475 431H474L473 430H470L468 428V422L469 421V420L470 419V417L471 416V414L472 413V411L474 409V407L475 406V405L474 404H473L472 405H471L469 407H468L467 408V409L464 412V413L462 415V416L461 417V418L460 419V420L458 422V424L457 425V426L456 427V428L455 429V430L454 431V433L453 434V436L452 437V438L451 439V442L450 443V444L449 445V446L448 447V449L447 450V453L446 454V456L445 457V459L444 460V463L443 464V465L437 471H436L434 473H433L431 475H430L428 477H427L425 479H423L420 482H418L417 483H416L414 485H412L411 486H410L409 487L408 486V485L409 484V481L412 478V477L414 475V474L415 473V472L416 471V469L418 467V466L419 465V463L420 462V461L421 460V459L422 458V457L423 456V453L425 451V449L426 448V445L427 444V443L428 442V439L429 438V434L430 433V431L431 430V427L432 426V420L433 419L432 418V405L431 404V402L429 400V398L428 397V396L425 393V392L417 384H416L415 383V382L414 381H413L412 380H411L409 378H408L407 377H406L405 376H404L403 375H402L401 374H397L396 373H395L394 372H389L388 371H381Z" fill="white"/>
</svg>
