<svg width="588" height="957" viewBox="0 0 588 957" fill="none" xmlns="http://www.w3.org/2000/svg">
<path d="M292.105 114.999L311.639 151.688C316.03 158.459 320.788 164.451 326.392 170.032C342.821 186.257 358.136 203.573 372.23 221.863C405.328 265.322 427.652 313.585 443.595 365.782C453.156 397.667 458.348 430.376 458.737 463.451C460.338 562.332 426.44 647.238 358.094 717.802C346.977 728.992 334.967 739.258 322.183 748.498C315.413 748.498 312.21 743.305 309.42 738.525C304.338 729.66 300.956 719.925 299.447 709.819C297.046 697.856 295.467 685.894 296.245 673.542V667.961C295.696 666.771 289.726 117.813 292.105 114.999Z" fill="#717374"/>
<path d="M292.105 113.787C291.304 112.186 290.504 113.398 289.703 114.176C290.092 122.181 287.301 129.318 282.933 136.134C278.129 142.905 271.77 148.097 265.389 153.678C229.935 184.374 202.03 221.451 179.683 262.921C149.947 318.732 134.622 378.545 130.276 441.515C128.286 464.229 137.458 544.376 144.618 567.501C164.152 628.893 199.239 680.335 244.688 724.984C255.851 735.734 267.79 745.707 280.142 755.291C283.733 755.291 284.122 752.089 284.945 749.71C286.52 744.62 287.72 739.421 288.537 734.156L296.542 674.365L292.105 113.787Z" fill="#717374"/>
<path d="M311.639 772.789C312.439 763.64 316.831 756.046 321.611 748.475C316.808 746.485 313.24 742.528 310.449 738.113C308.043 733.933 306.051 729.528 304.502 724.961C298.921 708.218 297.732 690.651 296.131 673.542V663.18C294.141 664.781 293.729 678.322 293.729 680.335C292.565 698.418 290.165 716.4 286.547 734.156C285.357 741.338 284.557 748.498 280.142 754.879C280.142 755.68 280.142 756.48 280.531 757.67C287.713 778.805 289.68 800.328 290.893 822.264V830.27C290.893 839.831 290.504 837.818 298.441 841.02C301.643 842.209 305.211 842.621 308.413 845C310.815 845 311.204 843.01 311.204 841.409L310.015 828.257V791.568C309.626 785.163 310.815 778.805 311.616 772.812L311.639 772.789Z" fill="#C2BFBF"/>
</svg>
