<svg width="957" height="957" viewBox="0 0 957 957" fill="none" xmlns="http://www.w3.org/2000/svg">
<path d="M889.971 479.084C889.971 424.632 821.781 373.028 717.233 341.027C741.36 234.469 730.637 149.692 683.389 122.55C672.499 116.183 659.766 113.168 645.859 113.168V150.53C653.566 150.53 659.766 152.038 664.959 154.886C687.745 167.954 697.631 217.715 689.924 281.717C688.081 297.466 685.065 314.053 681.379 330.975C648.54 322.933 612.686 316.734 574.988 312.713C552.37 281.717 528.914 253.569 505.29 228.94C559.909 178.175 611.178 150.362 646.027 150.362V113C599.952 113 539.637 145.839 478.65 202.804C417.664 146.174 357.349 113.67 311.274 113.67V151.032C345.956 151.032 397.392 178.677 452.011 229.108C428.555 253.737 405.099 281.717 382.815 312.713C344.95 316.734 309.096 322.933 276.257 331.142C272.404 314.388 269.555 298.136 267.545 282.555C259.67 218.553 269.388 168.792 292.006 155.556C297.033 152.54 303.567 151.2 311.274 151.2V113.838C297.2 113.838 284.467 116.854 273.409 123.22C226.329 150.362 215.774 234.972 240.068 341.195C135.855 373.363 68 424.799 68 479.084C68 533.536 136.19 585.139 240.738 617.14C216.612 723.698 227.334 808.475 274.582 835.617C285.472 841.984 298.206 845 312.279 845C358.354 845 418.67 812.161 479.656 755.196C540.642 811.826 600.958 844.33 647.032 844.33C661.106 844.33 673.839 841.314 684.897 834.947C731.977 807.805 742.532 723.195 718.238 616.973C822.116 584.972 889.971 533.368 889.971 479.084ZM671.829 367.332C665.63 388.945 657.923 411.228 649.21 433.512C642.341 420.108 635.137 406.705 627.262 393.301C619.555 379.898 611.345 366.829 603.136 354.096C626.927 357.614 649.88 361.97 671.829 367.332ZM595.094 545.766C582.025 568.385 568.622 589.83 554.716 609.768C529.751 611.946 504.452 613.119 478.986 613.119C453.686 613.119 428.387 611.946 403.591 609.936C389.685 589.998 376.114 568.72 363.045 546.269C350.312 524.321 338.751 502.037 328.196 479.586C338.584 457.135 350.312 434.685 362.878 412.736C375.946 390.118 389.35 368.672 403.256 348.734C428.22 346.556 453.519 345.384 478.986 345.384C504.285 345.384 529.584 346.556 554.38 348.567C568.287 368.505 581.858 389.783 594.926 412.234C607.659 434.182 619.22 456.465 629.775 478.916C619.22 501.367 607.659 523.818 595.094 545.766ZM649.21 523.986C658.258 546.436 665.965 568.887 672.331 590.668C650.383 596.03 627.262 600.553 603.303 604.072C611.513 591.171 619.723 577.935 627.43 564.364C635.137 550.96 642.341 537.389 649.21 523.986ZM479.321 702.755C463.739 686.671 448.157 668.744 432.743 649.141C447.822 649.811 463.236 650.314 478.818 650.314C494.567 650.314 510.149 649.979 525.395 649.141C510.316 668.744 494.735 686.671 479.321 702.755ZM354.668 604.072C330.877 600.553 307.923 596.197 285.975 590.836C292.174 569.222 299.881 546.939 308.593 524.656C315.463 538.059 322.667 551.463 330.542 564.866C338.416 578.27 346.458 591.338 354.668 604.072ZM478.483 255.412C494.065 271.497 509.646 289.424 525.06 309.027C509.981 308.356 494.567 307.854 478.986 307.854C463.236 307.854 447.655 308.189 432.408 309.027C447.487 289.424 463.069 271.497 478.483 255.412ZM354.5 354.096C346.291 366.997 338.081 380.233 330.374 393.804C322.667 407.207 315.463 420.611 308.593 434.014C299.546 411.564 291.839 389.113 285.472 367.332C307.42 362.138 330.542 357.614 354.5 354.096ZM202.873 563.861C143.562 538.562 105.195 505.388 105.195 479.084C105.195 452.779 143.562 419.438 202.873 394.306C217.282 388.107 233.031 382.578 249.283 377.385C258.833 410.223 271.398 444.402 286.98 479.419C271.566 514.268 259.168 548.279 249.785 580.951C233.198 575.757 217.449 570.06 202.873 563.861ZM293.012 803.281C270.226 790.213 260.341 740.452 268.048 676.451C269.891 660.701 272.906 644.115 276.592 627.193C309.431 635.235 345.285 641.434 382.983 645.455C405.601 676.451 429.057 704.598 452.681 729.227C398.062 779.993 346.793 807.805 311.944 807.805C304.405 807.638 298.038 806.13 293.012 803.281ZM690.426 675.613C698.301 739.615 688.583 789.375 665.965 802.611C660.938 805.627 654.404 806.967 646.697 806.967C612.016 806.967 560.58 779.323 505.96 728.892C529.416 704.263 552.873 676.283 575.156 645.287C613.021 641.266 648.875 635.067 681.714 626.858C685.567 643.78 688.583 660.031 690.426 675.613ZM754.931 563.861C740.522 570.06 724.773 575.589 708.521 580.783C698.971 547.944 686.405 513.765 670.824 478.749C686.238 443.899 698.636 409.888 708.018 377.217C724.605 382.411 740.354 388.107 755.098 394.306C814.409 419.606 852.776 452.779 852.776 479.084C852.609 505.388 814.241 538.729 754.931 563.861Z" fill="#949494"/>
<path d="M478.818 555.651C521.105 555.651 555.386 521.371 555.386 479.084C555.386 436.797 521.105 402.516 478.818 402.516C436.531 402.516 402.25 436.797 402.25 479.084C402.25 521.371 436.531 555.651 478.818 555.651Z" fill="#949494"/>
</svg>
