<svg width="957" height="957" viewBox="0 0 957 957" fill="none" xmlns="http://www.w3.org/2000/svg">
<path d="M778.696 151.12C768.4 175.707 755.34 199.056 739.61 220.499C670.781 151.692 577.357 113 480.024 113C278.685 113 113 278.822 113 480.382C113 580.923 154.183 677.177 227.016 746.555L240.553 758.563C306.712 814.313 390.508 845 476.973 845C668.398 845 829.316 694.998 842.949 503.826C852.959 410.241 825.503 291.878 778.696 151.12ZM279.162 748.652C273.251 755.99 264.195 760.278 254.757 760.278C237.502 760.278 223.393 746.079 223.393 728.829C223.393 711.58 237.597 697.38 254.757 697.38C261.907 697.38 268.961 699.858 274.491 704.432C287.932 715.297 290.03 735.214 279.162 748.652ZM777.17 638.675C686.606 759.421 493.18 718.727 369.154 724.541C369.154 724.541 347.133 725.875 325.016 729.496C325.016 729.496 333.31 725.97 344.082 721.872C431.119 691.567 472.302 685.658 525.211 658.498C624.832 607.798 723.309 496.869 743.805 381.46C705.863 492.485 590.894 587.88 486.125 626.668C414.341 653.161 284.691 678.892 284.691 678.892L279.448 676.128C191.171 633.148 188.502 441.881 348.944 380.126C419.203 353.061 486.411 367.928 562.295 349.821C643.326 330.57 737.036 269.769 775.168 190.479C817.877 317.323 869.26 515.929 777.17 638.675Z" fill="#949494"/>
</svg>
