<svg width="130" height="130" viewBox="0 0 130 130" fill="none" xmlns="http://www.w3.org/2000/svg">
<path d="M65 128.999C100.346 128.999 129 100.345 129 64.999C129 29.6528 100.346 0.999023 65 0.999023C29.6538 0.999023 1 29.6528 1 64.999C1 100.345 29.6538 128.999 65 128.999Z" fill="#0277BD"/>
<path d="M44.001 86.2467C45.1243 86.2467 46.035 85.3361 46.035 84.2127C46.035 83.0894 45.1243 82.1787 44.001 82.1787C42.8776 82.1787 41.967 83.0894 41.967 84.2127C41.967 85.3361 42.8776 86.2467 44.001 86.2467Z" fill="white"/>
<path d="M48.119 76.6383C49.2423 76.6383 50.153 75.7277 50.153 74.6043C50.153 73.481 49.2423 72.5703 48.119 72.5703C46.9956 72.5703 46.085 73.481 46.085 74.6043C46.085 75.7277 46.9956 76.6383 48.119 76.6383Z" fill="white"/>
<path d="M58.931 87.2633C60.0544 87.2633 60.965 86.3527 60.965 85.2293C60.965 84.106 60.0544 83.1953 58.931 83.1953C57.8077 83.1953 56.897 84.106 56.897 85.2293C56.897 86.3527 57.8077 87.2633 58.931 87.2633Z" fill="white"/>
<path d="M61.219 70.6383C62.3423 70.6383 63.253 69.7277 63.253 68.6043C63.253 67.481 62.3423 66.5703 61.219 66.5703C60.0957 66.5703 59.185 67.481 59.185 68.6043C59.185 69.7277 60.0957 70.6383 61.219 70.6383Z" fill="white"/>
<path d="M69.151 78.1099C70.2738 78.1099 71.184 77.1997 71.184 76.077C71.184 74.9542 70.2738 74.0439 69.151 74.0439C68.0282 74.0439 67.118 74.9542 67.118 76.077C67.118 77.1997 68.0282 78.1099 69.151 78.1099Z" fill="white"/>
<path d="M91.775 82.6345C91.775 83.7585 90.863 84.6705 89.741 84.6705C88.617 84.6705 87.708 83.7585 87.708 82.6345C87.708 81.5135 88.617 80.6025 89.741 80.6025C90.863 80.6025 91.775 81.5135 91.775 82.6345Z" fill="white"/>
<path d="M69.456 58.4352C70.5793 58.4352 71.49 57.5245 71.49 56.4012C71.49 55.2778 70.5793 54.3672 69.456 54.3672C68.3327 54.3672 67.422 55.2778 67.422 56.4012C67.422 57.5245 68.3327 58.4352 69.456 58.4352Z" fill="white"/>
<path d="M55.575 54.0133C56.6983 54.0133 57.609 53.1027 57.609 51.9793C57.609 50.856 56.6983 49.9453 55.575 49.9453C54.4516 49.9453 53.541 50.856 53.541 51.9793C53.541 53.1027 54.4516 54.0133 55.575 54.0133Z" fill="white"/>
<path d="M77.388 65.9098C78.5114 65.9098 79.422 64.9991 79.422 63.8758C79.422 62.7525 78.5114 61.8418 77.388 61.8418C76.2647 61.8418 75.354 62.7525 75.354 63.8758C75.354 64.9991 76.2647 65.9098 77.388 65.9098Z" fill="white"/>
<path d="M70.371 65.6041C71.4943 65.6041 72.405 64.6935 72.405 63.5701C72.405 62.4468 71.4943 61.5361 70.371 61.5361C69.2476 61.5361 68.337 62.4468 68.337 63.5701C68.337 64.6935 69.2476 65.6041 70.371 65.6041Z" fill="white"/>
<path d="M54.508 65.9098C55.6313 65.9098 56.542 64.9991 56.542 63.8758C56.542 62.7525 55.6313 61.8418 54.508 61.8418C53.3847 61.8418 52.474 62.7525 52.474 63.8758C52.474 64.9991 53.3847 65.9098 54.508 65.9098Z" fill="white"/>
<path d="M60.303 78.2633C61.4263 78.2633 62.337 77.3527 62.337 76.2293C62.337 75.106 61.4263 74.1953 60.303 74.1953C59.1796 74.1953 58.269 75.106 58.269 76.2293C58.269 77.3527 59.1796 78.2633 60.303 78.2633Z" fill="white"/>
<path d="M82.724 45.0143C83.8473 45.0143 84.758 44.1036 84.758 42.9803C84.758 41.8569 83.8473 40.9463 82.724 40.9463C81.6007 40.9463 80.69 41.8569 80.69 42.9803C80.69 44.1036 81.6007 45.0143 82.724 45.0143Z" fill="white"/>
<path d="M89.131 56.4528C90.2543 56.4528 91.165 55.5421 91.165 54.4188C91.165 53.2954 90.2543 52.3848 89.131 52.3848C88.0076 52.3848 87.097 53.2954 87.097 54.4188C87.097 55.5421 88.0076 56.4528 89.131 56.4528Z" fill="white"/>
<path d="M79.064 54.1657C80.1874 54.1657 81.098 53.255 81.098 52.1317C81.098 51.0083 80.1874 50.0977 79.064 50.0977C77.9407 50.0977 77.03 51.0083 77.03 52.1317C77.03 53.255 77.9407 54.1657 79.064 54.1657Z" fill="white"/>
<path d="M94.47 46.0817C95.5933 46.0817 96.504 45.171 96.504 44.0477C96.504 42.9243 95.5933 42.0137 94.47 42.0137C93.3466 42.0137 92.436 42.9243 92.436 44.0477C92.436 45.171 93.3466 46.0817 94.47 46.0817Z" fill="white"/>
<path d="M89.888 37.9996C91.0114 37.9996 91.922 37.089 91.922 35.9656C91.922 34.8423 91.0114 33.9316 89.888 33.9316C88.7647 33.9316 87.854 34.8423 87.854 35.9656C87.854 37.089 88.7647 37.9996 89.888 37.9996Z" fill="white"/>
<path d="M31.477 32.6074V96.0594H99.808" stroke="white" stroke-width="3" stroke-linecap="round"/>
<rect x="98.6774" y="34" width="3.9017" height="83.7263" rx="1.95085" transform="rotate(47.4473 98.6774 34)" fill="white"/>
</svg>
